SplineFontDB: 3.0
FontName: LondrinaSolid-Regular
FullName: Londrina Solid
FamilyName: Londrina Solid
Weight: Book
Copyright: Copyright (c) 2011 by Marcelo Magalhaes (marcelomagalhaes.net), with Reserved Font Name "Londrina"
Version: 1.001 2011
ItalicAngle: 0
UnderlinePosition: -50
UnderlineWidth: 50
Ascent: 800
Descent: 200
sfntRevision: 0x00010042
LayerCount: 2
Layer: 0 1 "Back"  1
Layer: 1 1 "Fore"  0
XUID: [1021 914 1698459054 14175377]
FSType: 0
OS2Version: 2
OS2_WeightWidthSlopeOnly: 0
OS2_UseTypoMetrics: 1
CreationTime: 1331472274
ModificationTime: 1331494198
PfmFamily: 17
TTFWeight: 400
TTFWidth: 5
LineGap: 0
VLineGap: 0
Panose: 2 0 5 6 0 0 0 2 0 3
OS2TypoAscent: 145
OS2TypoAOffset: 1
OS2TypoDescent: -38
OS2TypoDOffset: 1
OS2TypoLinegap: 0
OS2WinAscent: 9
OS2WinAOffset: 1
OS2WinDescent: 30
OS2WinDOffset: 1
HheadAscent: 9
HheadAOffset: 1
HheadDescent: -30
HheadDOffset: 1
OS2SubXSize: 700
OS2SubYSize: 650
OS2SubXOff: 0
OS2SubYOff: 140
OS2SupXSize: 700
OS2SupYSize: 650
OS2SupXOff: 0
OS2SupYOff: 477
OS2StrikeYSize: 50
OS2StrikeYPos: 250
OS2Vendor: 'PYRS'
OS2CodePages: 00000001.00000000
OS2UnicodeRanges: 8000002f.4000201a.00000000.00000000
Lookup: 258 0 0 "'kern' Horizontal Kerning in Latin lookup 0"  {"'kern' Horizontal Kerning in Latin lookup 0 per glyph data 0"  "'kern' Horizontal Kerning in Latin lookup 0 kerning class 1"  } ['kern' ('latn' <'dflt' > ) ]
DEI: 91125
KernClass2: 65+ 57 "'kern' Horizontal Kerning in Latin lookup 0 kerning class 1" 
 5 space
 28 hyphen uni00AD endash emdash
 5 slash
 40 comma period quotesinglbase quotedblbase
 15 colon semicolon
 22 quoteleft quotedblleft
 24 quoteright quotedblright
 9 backslash
 20 quotedbl quotesingle
 9 ampersand
 8 asterisk
 10 registered
 9 trademark
 27 guillemotleft guilsinglleft
 29 guillemotright guilsinglright
 50 A Agrave Aacute Acircumflex Atilde Adieresis Aring
 1 B
 10 C Ccedilla
 5 D Eth
 43 E AE Egrave Eacute Ecircumflex Edieresis OE
 1 F
 1 G

StartChar: exclam
Encoding: 33 33 4
Width: 217
GlyphClass: 2
Flags: W
LayerCount: 2
Fore
SplineSet
166 1 m 1,0,-1
 128 2 l 1,1,-1
 126 2 l 1,2,-1
 51 1 l 1,3,4
 46 11 46 11 50 58 c 128,-1,5
 54 105 54 105 54 118 c 2,6,-1
 54 119 l 1,7,8
 69 126 69 126 96 126 c 1,9,-1
 176 121 l 1,10,11
 173 10 173 10 173 1 c 1,12,-1
 166 1 l 1,0,-1
51 702 m 1,13,14
 98 709 98 709 128.5 709 c 128,-1,15
 159 709 159 709 174 704 c 1,16,17
 171 534 171 534 171 397.5 c 128,-1,18
 171 261 171 261 175 175 c 1,19,20
 156 173 156 173 46 170 c 1,21,-1
 45 170 l 1,22,23
 45 185 45 185 45 213 c 2,24,-1
 43 534 l 2,25,26
 43 660 43 660 48 702 c 1,27,-1
 51 702 l 1,13,14
EndSplineSet
EndChar

StartChar: quotedbl
Encoding: 34 34 5
Width: 378
GlyphClass: 2
Flags: W
LayerCount: 2
Fore
SplineSet
128 460 m 1,0,-1
 37 459 l 1,1,-1
 37 460 l 2,2,3
 37 665 37 665 39 702 c 1,4,-1
 39 704 l 1,5,-1
 40 704 l 1,6,-1
 123 711 l 1,7,8
 139 711 139 711 148 706 c 1,9,-1
 150 460 l 1,10,-1
 128 460 l 1,0,-1
321 460 m 1,11,-1
 230 459 l 1,12,-1
 230 460 l 2,13,14
 230 665 230 665 232 702 c 1,15,-1
 232 704 l 1,16,-1
 233 704 l 1,17,18
 233 704 233 704 316 711 c 1,19,20
 332 711 332 711 341 706 c 1,21,22
 341 706 341 706 343 460 c 1,23,-1
 321 460 l 1,11,-1
EndSplineSet
EndChar

StartChar: numbersign
Encoding: 35 35 6
Width: 669
GlyphClass: 2
Flags: W
LayerCount: 2
Fore
SplineSet
576 483 m 1,0,-1
 639 482 l 1,1,-1
 639 478 l 1,2,-1
 646 386 l 1,3,-1
 540 383 l 1,4,5
 532 361 532 361 519 320 c 128,-1,6
 506 279 506 279 498 257 c 1,7,-1
 522 257 l 2,8,9
 568 257 568 257 628 253 c 1,10,11
 633 242 633 242 633 213 c 128,-1,12
 633 184 633 184 635 160 c 1,13,-1
 635 158 l 1,14,15
 606 155 606 155 556 155 c 128,-1,16
 506 155 506 155 464 154 c 1,17,-1
 461 154 l 1,18,19
 459 151 459 151 450 123 c 0,20,21
 420 37 420 37 402 2 c 1,22,-1
 401 1 l 1,23,-1
 285 1 l 1,24,25
 293 32 293 32 311.5 83.5 c 128,-1,26
 330 135 330 135 336 157 c 1,27,-1
 335 157 l 1,28,29
 322 158 322 158 293 158 c 128,-1,30
 264 158 264 158 219 157 c 1,31,32
 207 118 207 118 202 109 c 0,33,34
 189 83 189 83 172 37 c 1,35,36
 166 16 166 16 158 2 c 0,37,38
 156 0 156 0 142.5 1 c 128,-1,39
 129 2 129 2 102.5 2 c 128,-1,40
 76 2 76 2 43 0 c 1,41,42
 52 47 52 47 71.5 97 c 128,-1,43
 91 147 91 147 94 155 c 1,44,-1
 39 153 l 2,45,46
 32 153 32 153 28 153 c 1,47,48
 25 201 25 201 25 262 c 1,49,50
 31 256 31 256 69 256 c 128,-1,51
 107 256 107 256 135 257 c 1,52,53
 139 261 139 261 142.5 274.5 c 128,-1,54
 146 288 146 288 150 300 c 0,55,56
 161 340 161 340 176 383 c 1,57,58
 169 383 169 383 38 382 c 1,59,-1
 36 490 l 1,60,-1
 37 490 l 1,61,62
 55 484 55 484 101 484 c 128,-1,63
 147 484 147 484 179 485 c 1,64,-1
 210 485 l 1,65,66
 210 486 210 486 210.5 486 c 128,-1,67
 211 486 211 486 214 492.5 c 128,-1,68
 217 499 217 499 234.5 554.5 c 128,-1,69
 252 610 252 610 258 637 c 1,70,-1
 258 638 l 1,71,72
 261 637 261 637 377 633 c 0,73,74
 377 632 377 632 333 486 c 1,75,-1
 413 487 l 2,76,77
 435 487 435 487 452 486 c 1,78,79
 469 512 469 512 502 639 c 1,80,-1
 504 639 l 1,81,82
 518 637 518 637 542 637 c 2,83,-1
 578 637 l 2,84,85
 603 637 603 637 617 635 c 1,86,87
 618 632 618 632 618 629 c 128,-1,88
 618 626 618 626 617.5 622.5 c 128,-1,89
 617 619 617 619 615 613.5 c 128,-1,90
 613 608 613 608 611.5 601.5 c 128,-1,91
 610 595 610 595 606 583 c 128,-1,92
 602 571 602 571 598.5 558.5 c 128,-1,93
 595 546 595 546 588.5 525.5 c 128,-1,94
 582 505 582 505 576 483 c 1,0,-1
420 384 m 1,95,-1
 418 384 l 1,96,97
 332 386 332 386 299 386 c 2,98,-1
 297 386 l 1,99,-1
 297 385 l 1,100,101
 290 364 290 364 276 321.5 c 128,-1,102
 262 279 262 279 254 257 c 1,103,-1
 379 258 l 1,104,105
 380 260 380 260 382.5 271.5 c 128,-1,106
 385 283 385 283 400 323 c 128,-1,107
 415 363 415 363 420 383 c 1,108,-1
 420 384 l 1,95,-1
EndSplineSet
EndChar

StartChar: dollar
Encoding: 36 36 7
Width: 445
GlyphClass: 2
Flags: W
LayerCount: 2
Fore
SplineSet
376 442 m 1,0,-1
 320 440 l 1,1,2
 291 440 291 440 279.5 452.5 c 128,-1,3
 268 465 268 465 269 480 c 0,4,5
 272 521 272 521 234 521 c 0,6,7
 218 521 218 521 202.5 507 c 128,-1,8
 187 493 187 493 187 476 c 128,-1,9
 187 459 187 459 196.5 442.5 c 128,-1,10
 206 426 206 426 226 408.5 c 128,-1,11
 246 391 246 391 261 380 c 1,12,13
 279 365 279 365 340 325 c 1,14,15
 377 298 377 298 399.5 251 c 128,-1,16
 422 204 422 204 422 160 c 0,17,18
 422 92 422 92 363 44 c 0,19,20
 358 39 358 39 331 22.5 c 128,-1,21
 304 6 304 6 300 6 c 1,22,-1
 299 -65 l 1,23,-1
 299 -69 l 2,24,25
 299 -96 299 -96 261 -96 c 2,26,-1
 219 -97 l 1,27,-1
 191 -97 l 2,28,29
 155 -97 155 -97 155 -64 c 1,30,-1
 158 -37 l 1,31,32
 158 1 158 1 126 11 c 0,33,34
 59 33 59 33 39.5 73.5 c 128,-1,35
 20 114 20 114 20 191 c 0,36,37
 20 222 20 222 25 230 c 0,38,39
 33 242 33 242 66 242 c 1,40,-1
 128 238 l 1,41,42
 145 238 145 238 152.5 236.5 c 128,-1,43
 160 235 160 235 167 227.5 c 128,-1,44
 174 220 174 220 174 206 c 2,45,-1
 175 175 l 1,46,47
 175 131 175 131 217 131 c 0,48,49
 234 131 234 131 248.5 141.5 c 128,-1,50
 263 152 263 152 263 167 c 0,51,52
 263 205 263 205 232.5 240 c 128,-1,53
 202 275 202 275 151 314 c 128,-1,54
 100 353 100 353 82 373 c 0,55,56
 28 434 28 434 28 507 c 0,57,58
 28 561 28 561 64 597 c 128,-1,59
 100 633 100 633 154 649 c 0,60,61
 160 651 160 651 158.5 656 c 128,-1,62
 157 661 157 661 157 663 c 2,63,-1
 152 737 l 1,64,65
 152 753 152 753 178 753 c 0,66,67
 194 753 194 753 210 753 c 0,68,69
 290 753 290 753 296 740 c 1,70,-1
 296 658 l 2,71,72
 296 645 296 645 309 644 c 0,73,74
 343 641 343 641 370.5 615.5 c 128,-1,75
 398 590 398 590 412 561 c 128,-1,76
 426 532 426 532 426 468 c 0,77,78
 426 442 426 442 392 442 c 2,79,-1
 376 442 l 1,0,-1
EndSplineSet
EndChar

StartChar: percent
Encoding: 37 37 8
Width: 604
GlyphClass: 2
Flags: W
LayerCount: 2
Fore
SplineSet
381 707 m 2,0,-1
 435 708 l 2,1,2
 472 708 472 708 481 701 c 1,3,4
 478 695 478 695 475 683.5 c 128,-1,5
 472 672 472 672 450 600 c 128,-1,6
 428 528 428 528 413.5 488.5 c 128,-1,7
 399 449 399 449 394 434.5 c 128,-1,8
 389 420 389 420 362 337 c 0,9,10
 319 207 319 207 296 151 c 2,11,-1
 239 7 l 2,12,13
 238 4 238 4 236 2 c 1,14,15
 229 1 229 1 207 1 c 128,-1,16
 185 1 185 1 111 -1 c 1,17,-1
 110 -1 l 2,18,19
 102 -1 102 -1 118.5 43 c 128,-1,20
 135 87 135 87 144 115.5 c 128,-1,21
 153 144 153 144 168 178 c 1,22,23
 175 203 175 203 223 332 c 128,-1,24
 271 461 271 461 284 503.5 c 128,-1,25
 297 546 297 546 299.5 551.5 c 128,-1,26
 302 557 302 557 310 578 c 0,27,28
 330 637 330 637 349 709 c 1,29,30
 358 707 358 707 381 707 c 2,0,-1
202.5 653.5 m 128,-1,32
 230 624 230 624 239 579 c 1,33,34
 243 549 243 549 243 537 c 128,-1,35
 243 525 243 525 243 519.5 c 128,-1,36
 243 514 243 514 243 493 c 128,-1,37
 243 472 243 472 234 436 c 128,-1,38
 225 400 225 400 197 371 c 128,-1,39
 169 342 169 342 129 342 c 0,40,41
 101 342 101 342 76 355 c 1,42,43
 38 380 38 380 27 428 c 1,44,-1
 19 487 l 1,45,-1
 19 488 l 1,46,-1
 18 513 l 1,47,-1
 20 538 l 2,48,49
 21 543 21 543 22.5 559.5 c 128,-1,50
 24 576 24 576 25.5 584 c 128,-1,51
 27 592 27 592 30 605 c 0,52,53
 37 630 37 630 52 645 c 1,54,55
 83 683 83 683 129 683 c 128,-1,31
 175 683 175 683 202.5 653.5 c 128,-1,32
160 462 m 2,56,-1
 161 473 l 2,57,58
 162 491 162 491 162 522.5 c 128,-1,59
 162 554 162 554 157 574 c 128,-1,60
 152 594 152 594 151 594.5 c 128,-1,61
 150 595 150 595 145 601.5 c 128,-1,62
 140 608 140 608 132.5 608 c 128,-1,63
 125 608 125 608 117 605 c 0,64,65
 97 596 97 596 97 563 c 0,66,67
 97 558 97 558 97 553 c 2,68,-1
 97 552 l 1,69,-1
 102 479 l 1,70,-1
 104 441 l 2,71,72
 104 429 104 429 114 423.5 c 128,-1,73
 124 418 124 418 132 420.5 c 128,-1,74
 140 423 140 423 143 425 c 128,-1,75
 146 427 146 427 148 428.5 c 128,-1,76
 150 430 150 430 151.5 433.5 c 128,-1,77
 153 437 153 437 154 438.5 c 128,-1,78
 155 440 155 440 156 444 c 128,-1,79
 157 448 157 448 158 450 c 0,80,81
 160 457 160 457 160 462 c 2,56,-1
545.5 336.5 m 128,-1,83
 573 307 573 307 582 262 c 1,84,85
 586 232 586 232 586 220 c 128,-1,86
 586 208 586 208 586 202.5 c 128,-1,87
 586 197 586 197 586 176 c 128,-1,88
 586 155 586 155 577 119 c 128,-1,89
 568 83 568 83 540 54 c 128,-1,90
 512 25 512 25 472 25 c 0,91,92
 444 25 444 25 419 38 c 1,93,94
 381 63 381 63 370 111 c 1,95,-1
 362 170 l 1,96,-1
 362 171 l 1,97,-1
 361 196 l 1,98,-1
 363 221 l 2,99,100
 364 226 364 226 365.5 242.5 c 128,-1,101
 367 259 367 259 368.5 267 c 128,-1,102
 370 275 370 275 374 288 c 0,103,104
 380 313 380 313 395 328 c 1,105,106
 426 366 426 366 472 366 c 128,-1,82
 518 366 518 366 545.5 336.5 c 128,-1,83
503 145 m 2,107,-1
 504 156 l 2,108,109
 505 174 505 174 505 205.5 c 128,-1,110
 505 237 505 237 495 275 c 1,111,112
 492 278 492 278 492 280 c 1,113,114
 484 291 484 291 476 291 c 128,-1,115
 468 291 468 291 460 288 c 0,116,117
 440 279 440 279 440 246 c 0,118,119
 440 241 440 241 440 236 c 2,120,-1
 440 235 l 1,121,-1
 445 162 l 1,122,-1
 447 124 l 2,123,124
 447 112 447 112 455 107.5 c 128,-1,125
 463 103 463 103 468.5 103 c 128,-1,126
 474 103 474 103 478.5 104.5 c 128,-1,127
 483 106 483 106 486 108 c 128,-1,128
 489 110 489 110 491 111.5 c 128,-1,129
 493 113 493 113 494.5 116.5 c 128,-1,130
 496 120 496 120 497 121.5 c 128,-1,131
 498 123 498 123 499 127 c 128,-1,132
 500 131 500 131 500 132 c 0,133,134
 503 140 503 140 503 145 c 2,107,-1
EndSplineSet
EndChar

StartChar: ampersand
Encoding: 38 38 9
Width: 565
GlyphClass: 2
Flags: W
LayerCount: 2
Fore
SplineSet
476 -1 m 2,0,-1
 471 -1 l 2,1,2
 431 -1 431 -1 410 5.5 c 128,-1,3
 389 12 389 12 362 38 c 1,4,5
 312 4 312 4 219 -1 c 1,6,7
 126 -1 126 -1 72 66 c 128,-1,8
 18 133 18 133 18 224.5 c 128,-1,9
 18 316 18 316 118 410 c 1,10,11
 41 513 41 513 41 577.5 c 128,-1,12
 41 642 41 642 100.5 686.5 c 128,-1,13
 160 731 160 731 234.5 731 c 128,-1,14
 309 731 309 731 357.5 686 c 128,-1,15
 406 641 406 641 406 579 c 0,16,17
 406 547 406 547 396.5 528 c 128,-1,18
 387 509 387 509 385.5 505 c 128,-1,19
 384 501 384 501 378 491 c 128,-1,20
 372 481 372 481 370 478 c 0,21,22
 360 466 360 466 353 452 c 1,23,24
 323 408 323 408 323 404 c 0,25,26
 322 396 322 396 322.5 392.5 c 128,-1,27
 323 389 323 389 323.5 382.5 c 128,-1,28
 324 376 324 376 327 368 c 128,-1,29
 330 360 330 360 334 350 c 1,30,31
 343 333 343 333 365 302 c 1,32,33
 375 318 375 318 375 342 c 1,34,35
 381 388 381 388 433 388 c 2,36,-1
 504 388 l 2,37,38
 523 388 523 388 532 380.5 c 128,-1,39
 541 373 541 373 541 342.5 c 128,-1,40
 541 312 541 312 512 245 c 1,41,-1
 504 224 l 1,42,43
 502 222 502 222 499 215 c 128,-1,44
 496 208 496 208 486.5 188.5 c 128,-1,45
 477 169 477 169 477 165 c 128,-1,46
 477 161 477 161 480.5 156 c 128,-1,47
 484 151 484 151 491.5 142 c 128,-1,48
 499 133 499 133 503 128 c 1,49,-1
 503 129 l 1,50,51
 547 74 547 74 553 43 c 1,52,-1
 553 34 l 1,53,-1
 552 29 l 1,54,55
 544 -1 544 -1 476 -1 c 2,0,-1
234 618 m 0,56,57
 191 618 191 618 191 577 c 0,58,59
 191 556 191 556 201.5 529 c 128,-1,60
 212 502 212 502 221 502 c 2,61,62
 221 502 221 502 222 502 c 1,63,-1
 222 501 l 1,64,65
 254 506 254 506 254 597 c 0,66,67
 254 618 254 618 234 618 c 0,56,57
292 207 m 1,68,69
 292 288 292 288 226 288 c 0,70,71
 217 288 217 288 208 287 c 0,72,73
 190 285 190 285 179.5 258.5 c 128,-1,74
 169 232 169 232 169 219 c 128,-1,75
 169 206 169 206 170 200 c 0,76,77
 177 139 177 139 235 139 c 0,78,79
 241 139 241 139 262 142 c 1,80,81
 287 151 287 151 287 154 c 2,82,-1
 292 207 l 1,68,69
EndSplineSet
EndChar

StartChar: quotesingle
Encoding: 39 39 10
Width: 185
GlyphClass: 2
Flags: W
LayerCount: 2
Fore
SplineSet
128 460 m 1,0,-1
 37 459 l 1,1,-1
 37 460 l 2,2,3
 37 665 37 665 39 702 c 1,4,-1
 39 704 l 1,5,-1
 40 704 l 1,6,-1
 123 711 l 1,7,8
 139 711 139 711 148 706 c 1,9,-1
 150 460 l 1,10,-1
 128 460 l 1,0,-1
EndSplineSet
EndChar

StartChar: parenleft
Encoding: 40 40 11
Width: 314
GlyphClass: 2
Flags: W
LayerCount: 2
Fore
SplineSet
176 380 m 1,0,-1
 175 310 l 2,1,2
 175 241 175 241 186 203 c 1,3,4
 200 171 200 171 229.5 150.5 c 128,-1,5
 259 130 259 130 289 129 c 1,6,-1
 290 129 l 1,7,-1
 290 124 l 1,8,9
 288 107 288 107 288 66 c 128,-1,10
 288 25 288 25 287 9 c 1,11,12
 280 0 280 0 245 0 c 2,13,-1
 228 0 l 1,14,15
 192 2 192 2 162 12 c 0,16,17
 107 31 107 31 70 80 c 1,18,19
 38 136 38 136 32 203 c 1,20,21
 38 344 38 344 38 378.5 c 128,-1,22
 38 413 38 413 38 420 c 2,23,-1
 38 444 l 2,24,25
 38 548 38 548 44.5 575 c 128,-1,26
 51 602 51 602 62 621 c 0,27,28
 108 709 108 709 212 711 c 1,29,30
 252 709 252 709 285 705 c 1,31,-1
 286 704 l 1,32,33
 288 694 288 694 288 663 c 128,-1,34
 288 632 288 632 286 581 c 1,35,36
 204 557 204 557 194 501 c 1,37,38
 189 487 189 487 186 469 c 128,-1,39
 183 451 183 451 176 380 c 1,0,-1
EndSplineSet
EndChar

StartChar: parenright
Encoding: 41 41 12
Width: 313
GlyphClass: 2
Flags: W
LayerCount: 2
Fore
SplineSet
139 310 m 2,0,-1
 138 380 l 1,1,2
 131 451 131 451 128 469 c 128,-1,3
 125 487 125 487 120 501 c 1,4,5
 110 557 110 557 28 581 c 1,6,7
 26 632 26 632 26 663 c 128,-1,8
 26 694 26 694 28 704 c 1,9,-1
 29 705 l 1,10,11
 61 709 61 709 102 711 c 1,12,13
 206 709 206 709 252 621 c 1,14,15
 273 584 273 584 274 534 c 0,16,17
 276 470 276 470 276 444 c 2,18,-1
 276 420 l 2,19,20
 276 413 276 413 276 378.5 c 128,-1,21
 276 344 276 344 282 203 c 1,22,23
 276 136 276 136 244 80 c 1,24,25
 208 32 208 32 151 11 c 1,26,27
 122 2 122 2 86 0 c 1,28,-1
 69 0 l 2,29,30
 34 0 34 0 27 9 c 1,31,32
 26 25 26 25 26 65.5 c 128,-1,33
 26 106 26 106 24 124 c 1,34,-1
 24 129 l 1,35,-1
 25 129 l 1,36,37
 55 130 55 130 84.5 150.5 c 128,-1,38
 114 171 114 171 128 203 c 1,39,40
 139 241 139 241 139 310 c 2,0,-1
EndSplineSet
EndChar

StartChar: asterisk
Encoding: 42 42 13
Width: 367
GlyphClass: 2
Flags: W
LayerCount: 2
Fore
SplineSet
319 414 m 2,0,-1
 254 362 l 2,1,2
 253 361 253 361 252 361 c 2,3,-1
 251 362 l 1,4,5
 238 379 238 379 232 381 c 1,6,7
 186 427 186 427 179 430 c 1,8,9
 173 427 173 427 147.5 402 c 128,-1,10
 122 377 122 377 115.5 372 c 128,-1,11
 109 367 109 367 106 367 c 1,12,13
 38 431 38 431 20 446 c 1,14,15
 28 458 28 458 54.5 486 c 128,-1,16
 81 514 81 514 85.5 519 c 128,-1,17
 90 524 90 524 87 530 c 128,-1,18
 84 536 84 536 52.5 571.5 c 128,-1,19
 21 607 21 607 19 613 c 1,20,21
 24 615 24 615 61 652 c 2,22,-1
 107 697 l 1,23,24
 111 696 111 696 146.5 663 c 128,-1,25
 182 630 182 630 186 627 c 1,26,-1
 260 695 l 1,27,-1
 344 611 l 1,28,29
 342 598 342 598 312 568.5 c 128,-1,30
 282 539 282 539 278 529 c 1,31,32
 281 529 281 529 313.5 490 c 128,-1,33
 346 451 346 451 348 450 c 1,34,35
 350 442 350 442 335 429 c 128,-1,36
 320 416 320 416 319 414 c 2,0,-1
EndSplineSet
EndChar

StartChar: plus
Encoding: 43 43 14
Width: 445
GlyphClass: 2
Flags: W
LayerCount: 2
Fore
SplineSet
262 112 m 2,0,-1
 153 114 l 2,1,2
 143 114 143 114 142 114 c 0,3,4
 139 117 139 117 139 153 c 2,5,-1
 140 193 l 1,6,7
 140 236 140 236 137 239 c 1,8,-1
 135 239 l 2,9,10
 117 239 117 239 74 242 c 0,11,12
 23 246 23 246 23 251 c 0,13,14
 24 261 24 261 24 272.5 c 128,-1,15
 24 284 24 284 23 303 c 128,-1,16
 22 322 22 322 20.5 352.5 c 128,-1,17
 19 383 19 383 19 384 c 1,18,19
 20 384 20 384 27.5 384 c 128,-1,20
 35 384 35 384 87.5 388 c 128,-1,21
 140 392 140 392 146 394 c 1,22,23
 146 432 146 432 149 468 c 128,-1,24
 152 504 152 504 152 506 c 2,25,-1
 155 524 l 2,26,27
 155 519 155 519 197 519 c 2,28,-1
 289 520 l 2,29,30
 298 520 298 520 300 520 c 1,31,32
 300 402 300 402 302 396 c 1,33,34
 315 395 315 395 360.5 395 c 128,-1,35
 406 395 406 395 423 392 c 1,36,37
 422 369 422 369 422 321.5 c 128,-1,38
 422 274 422 274 419 247 c 1,39,40
 416 245 416 245 361.5 244.5 c 128,-1,41
 307 244 307 244 300 240 c 1,42,43
 301 236 301 236 301 228 c 2,44,-1
 293 118 l 1,45,-1
 293 116 l 1,46,47
 288 112 288 112 262 112 c 2,0,-1
EndSplineSet
EndChar

StartChar: comma
Encoding: 44 44 15
Width: 188
GlyphClass: 2
Flags: W
LayerCount: 2
Fore
SplineSet
150 1 m 2,0,-1
 130 -100 l 2,1,2
 129 -100 129 -100 61 -98 c 1,3,4
 59 -96 59 -96 63 -80 c 2,5,6
 63 -80 63 -80 73 -40 c 0,7,8
 79 -16 79 -16 81 -1 c 1,9,-1
 34 3 l 2,10,11
 32 3 32 3 31 4 c 1,12,13
 31 32 31 32 35 119 c 1,14,-1
 35 120 l 1,15,-1
 36 120 l 1,16,17
 52 126 52 126 65 126 c 128,-1,18
 78 126 78 126 156 119 c 1,19,-1
 157 119 l 1,20,-1
 153 4 l 1,21,-1
 151 4 l 1,22,23
 150 2 150 2 150 1 c 2,0,-1
EndSplineSet
EndChar

StartChar: hyphen
Encoding: 45 45 16
Width: 521
GlyphClass: 2
Flags: W
LayerCount: 2
Fore
SplineSet
484 195 m 1,0,-1
 36 202 l 1,1,-1
 39 362 l 1,2,-1
 482 362 l 1,3,-1
 480 266 l 2,4,5
 480 223 480 223 485 195 c 1,6,-1
 484 195 l 1,0,-1
EndSplineSet
EndChar

StartChar: period
Encoding: 46 46 17
Width: 189
GlyphClass: 2
Flags: W
LayerCount: 2
Fore
SplineSet
34 1 m 1,0,1
 31 18 31 18 31 54 c 1,2,-1
 33 117 l 1,3,4
 52 125 52 125 98.5 125 c 128,-1,5
 145 125 145 125 158 119 c 1,6,-1
 156 94 l 1,7,8
 152 17 152 17 152 2 c 2,9,-1
 152 0 l 1,10,-1
 150 0 l 1,11,-1
 37 1 l 1,12,-1
 34 1 l 1,0,1
EndSplineSet
EndChar

StartChar: slash
Encoding: 47 47 18
Width: 412
GlyphClass: 2
Flags: W
LayerCount: 2
Fore
SplineSet
293 707 m 2,0,-1
 347 708 l 2,1,2
 384 708 384 708 393 701 c 1,3,4
 390 695 390 695 387 683.5 c 128,-1,5
 384 672 384 672 362 600 c 128,-1,6
 340 528 340 528 325.5 488.5 c 128,-1,7
 311 449 311 449 306 434.5 c 128,-1,8
 301 420 301 420 274 337 c 0,9,10
 231 207 231 207 208 151 c 2,11,-1
 151 7 l 2,12,13
 150 4 150 4 148 2 c 1,14,15
 141 1 141 1 119 1 c 128,-1,16
 97 1 97 1 23 -1 c 1,17,-1
 22 -1 l 2,18,19
 20 -1 20 -1 20 3.5 c 128,-1,20
 20 8 20 8 24.5 23.5 c 128,-1,21
 29 39 29 39 38 63 c 128,-1,22
 47 87 47 87 56 115.5 c 128,-1,23
 65 144 65 144 80 178 c 1,24,25
 87 203 87 203 135 332 c 128,-1,26
 183 461 183 461 196 503.5 c 128,-1,27
 209 546 209 546 211.5 551.5 c 128,-1,28
 214 557 214 557 222 578 c 0,29,30
 242 637 242 637 261 709 c 1,31,32
 270 707 270 707 293 707 c 2,0,-1
EndSplineSet
EndChar

StartChar: zero
Encoding: 48 48 19
Width: 513
GlyphClass: 2
Flags: W
LayerCount: 2
Fore
SplineSet
404 648 m 128,-1,1
 462 586 462 586 480 493 c 1,2,3
 489 439 489 439 489 412 c 128,-1,4
 489 385 489 385 489 373 c 128,-1,5
 489 361 489 361 489 329.5 c 128,-1,6
 489 298 489 298 478 240.5 c 128,-1,7
 467 183 467 183 440 125 c 128,-1,8
 413 67 413 67 364.5 34.5 c 128,-1,9
 316 2 316 2 258 2 c 0,10,11
 251 2 251 2 229 2.5 c 128,-1,12
 207 3 207 3 171 16 c 128,-1,13
 135 29 135 29 107.5 55 c 128,-1,14
 80 81 80 81 66 106.5 c 128,-1,15
 52 132 52 132 44 174 c 0,16,17
 34 234 34 234 31.5 309 c 128,-1,18
 29 384 29 384 29 427 c 128,-1,19
 29 470 29 470 42 523 c 0,20,21
 57 589 57 589 92 631 c 1,22,23
 163 710 163 710 254.5 710 c 128,-1,0
 346 710 346 710 404 648 c 128,-1,1
213 178 m 128,-1,25
 220 171 220 171 232 168 c 128,-1,26
 244 165 244 165 253 165 c 0,27,28
 305 165 305 165 316 244 c 0,29,30
 318 259 318 259 319 281.5 c 128,-1,31
 320 304 320 304 321 322 c 128,-1,32
 322 340 322 340 322 365 c 0,33,34
 322 490 322 490 293 532 c 1,35,36
 277 552 277 552 254 552 c 0,37,38
 244 552 244 552 232 548 c 1,39,40
 211 543 211 543 198 521 c 0,41,42
 190 509 190 509 184.5 453 c 128,-1,43
 179 397 179 397 179 338 c 128,-1,44
 179 279 179 279 186.5 252.5 c 128,-1,45
 194 226 194 226 197.5 212.5 c 128,-1,46
 201 199 201 199 203.5 192 c 128,-1,24
 206 185 206 185 213 178 c 128,-1,25
EndSplineSet
EndChar

StartChar: one
Encoding: 49 49 20
Width: 366
GlyphClass: 2
Flags: W
LayerCount: 2
Fore
SplineSet
324 542 m 1,0,-1
 313 88 l 1,1,2
 313 41 313 41 314 18 c 0,3,4
 314 0 314 0 253 0 c 0,5,6
 218 0 218 0 155 7 c 1,7,-1
 155 105 l 2,8,9
 155 170 155 170 161 297 c 128,-1,10
 167 424 167 424 167 462 c 128,-1,11
 167 500 167 500 166 507 c 1,12,13
 159 509 159 509 151 489 c 0,14,15
 137 452 137 452 123.5 452 c 128,-1,16
 110 452 110 452 56 466.5 c 128,-1,17
 2 481 2 481 2 489 c 0,18,19
 5 518 5 518 58 609 c 128,-1,20
 111 700 111 700 123 712 c 1,21,22
 185 714 185 714 228 714 c 128,-1,23
 271 714 271 714 319 710 c 1,24,25
 324 639 324 639 324 542 c 1,0,-1
EndSplineSet
EndChar

StartChar: two
Encoding: 50 50 21
Width: 498
GlyphClass: 2
Flags: W
LayerCount: 2
Fore
SplineSet
249 142 m 2,0,-1
 451 145 l 1,1,2
 458 126 458 126 458 94 c 128,-1,3
 458 62 458 62 458 37 c 128,-1,4
 458 12 458 12 460 5 c 0,5,6
 460 4 460 4 456 4 c 2,7,-1
 76 -1 l 1,8,-1
 31 -1 l 1,9,10
 30 0 30 0 31 13 c 128,-1,11
 32 26 32 26 32.5 84.5 c 128,-1,12
 33 143 33 143 39.5 180.5 c 128,-1,13
 46 218 46 218 65 250 c 1,14,15
 102 291 102 291 178.5 337.5 c 128,-1,16
 255 384 255 384 278 403 c 1,17,18
 314 427 314 427 314 475 c 0,19,20
 314 496 314 496 305 514 c 0,21,22
 291 542 291 542 261 546 c 1,23,24
 209 546 209 546 196 488 c 0,25,26
 189 460 189 460 187 425 c 1,27,-1
 187 423 l 1,28,-1
 186 423 l 1,29,30
 125 416 125 416 91 416 c 128,-1,31
 57 416 57 416 38 418 c 1,32,-1
 37 418 l 1,33,-1
 37 420 l 1,34,35
 31 456 31 456 31 489 c 0,36,37
 31 587 31 587 87 651 c 1,38,39
 112 683 112 683 163.5 697 c 128,-1,40
 215 711 215 711 262 711 c 2,41,-1
 280 711 l 1,42,43
 336 708 336 708 373 693 c 1,44,45
 459 649 459 649 471 526 c 1,46,47
 473 471 473 471 473 456 c 0,48,49
 473 390 473 390 439 351.5 c 128,-1,50
 405 313 405 313 367 296 c 0,51,52
 250 244 250 244 215 201 c 1,53,54
 201 164 201 164 201 154 c 128,-1,55
 201 144 201 144 204 143 c 0,56,57
 218 142 218 142 249 142 c 2,0,-1
EndSplineSet
EndChar

StartChar: three
Encoding: 51 51 22
Width: 492
GlyphClass: 2
Flags: W
LayerCount: 2
Fore
SplineSet
28 489 m 1,0,-1
 26 540 l 2,1,2
 26 565 26 565 32 582 c 0,3,4
 46 628 46 628 86 659.5 c 128,-1,5
 126 691 126 691 169.5 699.5 c 128,-1,6
 213 708 213 708 239 708 c 0,7,8
 323 708 323 708 371.5 683 c 128,-1,9
 420 658 420 658 440 623 c 0,10,11
 454 600 454 600 454 561 c 0,12,13
 454 556 454 556 455 521.5 c 128,-1,14
 456 487 456 487 456 404.5 c 128,-1,15
 456 322 456 322 453.5 266.5 c 128,-1,16
 451 211 451 211 450.5 191 c 128,-1,17
 450 171 450 171 449 160 c 0,18,19
 446 128 446 128 435 104 c 0,20,21
 405 34 405 34 335 11 c 1,22,23
 295 -1 295 -1 252.5 -1 c 128,-1,24
 210 -1 210 -1 172 4 c 0,25,26
 168 5 168 5 128 15.5 c 128,-1,27
 88 26 88 26 65 49 c 128,-1,28
 42 72 42 72 37 115 c 1,29,30
 34 131 34 131 32 165 c 128,-1,31
 30 199 30 199 29 209 c 128,-1,32
 28 219 28 219 29 219 c 2,33,-1
 30 219 l 2,34,35
 33 219 33 219 44 219 c 128,-1,36
 55 219 55 219 89.5 223.5 c 128,-1,37
 124 228 124 228 139 228 c 128,-1,38
 154 228 154 228 160 228 c 2,39,-1
 161 228 l 1,40,-1
 162 227 l 1,41,42
 170 202 170 202 195 184 c 0,43,44
 221 164 221 164 248 164 c 128,-1,45
 275 164 275 164 296 189 c 1,46,47
 306 204 306 204 306 216 c 0,48,49
 306 257 306 257 280.5 275.5 c 128,-1,50
 255 294 255 294 225 294 c 128,-1,51
 195 294 195 294 170 289 c 1,52,53
 163 296 163 296 163 329 c 1,54,-1
 166 412 l 2,55,56
 166 423 166 423 165 427 c 1,57,-1
 165 428 l 1,58,59
 178 433 178 433 219 433 c 128,-1,60
 260 433 260 433 282 444.5 c 128,-1,61
 304 456 304 456 304 489 c 0,62,63
 304 548 304 548 251 548 c 0,64,65
 228 548 228 548 199.5 532.5 c 128,-1,66
 171 517 171 517 160 489 c 1,67,68
 146 487 146 487 28 487 c 1,69,-1
 28 489 l 1,0,-1
EndSplineSet
EndChar

StartChar: four
Encoding: 52 52 23
Width: 469
GlyphClass: 2
Flags: W
LayerCount: 2
Fore
SplineSet
233 702 m 2,0,-1
 360 705 l 2,1,2
 377 705 377 705 390 704 c 1,3,-1
 392 704 l 1,4,-1
 391 666 l 2,5,6
 390 629 390 629 388.5 578.5 c 128,-1,7
 387 528 387 528 385.5 472 c 128,-1,8
 384 416 384 416 384 378.5 c 128,-1,9
 384 341 384 341 385 329 c 1,10,11
 401 332 401 332 425 330 c 128,-1,12
 449 328 449 328 452 328 c 1,13,-1
 446 183 l 1,14,15
 438 180 438 180 429 180 c 128,-1,16
 420 180 420 180 407.5 181 c 128,-1,17
 395 182 395 182 385 180 c 1,18,-1
 384 160 l 1,19,20
 374 16 374 16 371 4 c 1,21,22
 366 -3 366 -3 335 -3 c 2,23,-1
 276 -3 l 1,24,-1
 227 -3 l 1,25,26
 224 0 224 0 231 93.5 c 128,-1,27
 238 187 238 187 238 189 c 1,28,29
 232 191 232 191 178 191 c 0,30,31
 26 191 26 191 24 194 c 0,32,33
 13 227 13 227 13 271.5 c 128,-1,34
 13 316 13 316 14 339 c 1,35,36
 22 351 22 351 46 394 c 0,37,38
 126 544 126 544 232 701 c 0,39,40
 232 702 232 702 233 702 c 2,0,-1
267 543 m 0,41,42
 256 543 256 543 151 360 c 1,43,-1
 133 328 l 1,44,-1
 265 327 l 1,45,-1
 268 541 l 2,46,47
 268 543 268 543 267 543 c 0,41,42
EndSplineSet
EndChar

StartChar: five
Encoding: 53 53 24
Width: 503
GlyphClass: 2
Flags: W
LayerCount: 2
Fore
SplineSet
186 544 m 1,0,1
 188 541 188 541 189 526 c 0,2,3
 190 510 190 510 195 505 c 1,4,-1
 196 505 l 1,5,6
 227 511 227 511 253 511 c 128,-1,7
 279 511 279 511 301 507 c 0,8,9
 348 500 348 500 382 474 c 0,10,11
 442 429 442 429 466 326 c 0,12,13
 476 283 476 283 476 259 c 0,14,15
 476 192 476 192 470 134 c 1,16,17
 460 89 460 89 424 56 c 0,18,19
 354 -9 354 -9 240 -9 c 0,20,21
 119 -9 119 -9 65 64 c 0,22,23
 37 101 37 101 37 152 c 0,24,25
 37 182 37 182 43 214 c 1,26,-1
 43 216 l 1,27,-1
 185 221 l 1,28,-1
 185 220 l 1,29,30
 192 179 192 179 205.5 167.5 c 128,-1,31
 219 156 219 156 230.5 156 c 128,-1,32
 242 156 242 156 249 158 c 0,33,34
 293 166 293 166 310 208 c 0,35,36
 318 230 318 230 318 251.5 c 128,-1,37
 318 273 318 273 310 294 c 0,38,39
 294 338 294 338 256 350 c 1,40,41
 237 354 237 354 200 354 c 1,42,-1
 62 349 l 2,43,44
 38 349 38 349 38 351 c 2,45,-1
 36 696 l 1,46,-1
 37 696 l 1,47,-1
 148 698 l 1,48,49
 353 703 353 703 398.5 703 c 128,-1,50
 444 703 444 703 463 702 c 0,51,52
 464 702 464 702 464 678 c 0,53,54
 464 650 464 650 461 578 c 2,55,-1
 460 554 l 1,56,57
 409 547 409 547 187 547 c 2,58,-1
 186 547 l 1,59,-1
 186 544 l 1,0,1
EndSplineSet
EndChar

StartChar: six
Encoding: 54 54 25
Width: 503
GlyphClass: 2
Flags: W
LayerCount: 2
Fore
SplineSet
204 325 m 1,0,1
 267 359 267 359 337 359 c 0,2,3
 359 359 359 359 376 354 c 0,4,5
 418 341 418 341 445 311 c 1,6,7
 471 286 471 286 479 227 c 1,8,-1
 481 203 l 2,9,10
 482 191 482 191 482 179 c 0,11,12
 482 119 482 119 444 72 c 1,13,14
 380 -4 380 -4 244 -4 c 0,15,16
 221 -4 221 -4 197 -1 c 1,17,18
 133 10 133 10 94.5 61 c 128,-1,19
 56 112 56 112 46 182 c 0,20,21
 32 271 32 271 32 352 c 128,-1,22
 32 433 32 433 35 463 c 128,-1,23
 38 493 38 493 40 524 c 0,24,25
 42 570 42 570 51 585 c 1,26,27
 76 642 76 642 144.5 675 c 128,-1,28
 213 708 213 708 289 708 c 0,29,30
 292 708 292 708 294 708 c 0,31,32
 382 708 382 708 432 639 c 0,33,34
 467 590 467 590 467 535 c 0,35,36
 467 511 467 511 460 485 c 1,37,38
 437 481 437 481 388 480 c 128,-1,39
 339 479 339 479 328 478 c 1,40,-1
 326 478 l 1,41,-1
 326 479 l 1,42,43
 324 526 324 526 306 544.5 c 128,-1,44
 288 563 288 563 268 563 c 0,45,46
 246 563 246 563 230 547 c 1,47,48
 208 528 208 528 203.5 500.5 c 128,-1,49
 199 473 199 473 199 445 c 1,50,-1
 204 335 l 2,51,52
 204 330 204 330 204 326 c 2,53,-1
 204 325 l 1,0,1
362 191 m 1,54,-1
 362 204 l 2,55,56
 362 250 362 250 315 250 c 0,57,58
 279 250 279 250 255 219 c 1,59,60
 248 207 248 207 248 198 c 0,61,62
 248 169 248 169 272 155 c 1,63,64
 286 149 286 149 301 149 c 128,-1,65
 316 149 316 149 333 158 c 0,66,67
 358 170 358 170 362 191 c 1,54,-1
EndSplineSet
EndChar

StartChar: seven
Encoding: 55 55 26
Width: 476
GlyphClass: 2
Flags: W
LayerCount: 2
Fore
SplineSet
168 7 m 1,0,-1
 62 2 l 1,1,2
 34 2 34 2 16 7 c 1,3,4
 48 76 48 76 141 267 c 128,-1,5
 234 458 234 458 279 561 c 1,6,7
 130 571 130 571 84 571 c 128,-1,8
 38 571 38 571 24 570 c 1,9,-1
 22 570 l 1,10,11
 24 588 24 588 27 706 c 1,12,-1
 27 707 l 1,13,-1
 254 712 l 1,14,15
 398 712 398 712 462 705 c 1,16,-1
 462 704 l 1,17,18
 461 697 461 697 461 675 c 2,19,-1
 463 565 l 1,20,21
 417 459 417 459 308 263 c 128,-1,22
 199 67 199 67 168 7 c 1,0,-1
EndSplineSet
EndChar

StartChar: eight
Encoding: 56 56 27
Width: 490
GlyphClass: 2
Flags: W
LayerCount: 2
Fore
SplineSet
87 352 m 1,0,1
 32 409 32 409 32 493 c 128,-1,2
 32 577 32 577 77 640.5 c 128,-1,3
 122 704 122 704 200 708 c 0,4,5
 234 709 234 709 264.5 709 c 128,-1,6
 295 709 295 709 323 706 c 0,7,8
 360 702 360 702 392 679 c 0,9,10
 397 675 397 675 400 673 c 128,-1,11
 403 671 403 671 408 666 c 2,12,-1
 416 658 l 2,13,14
 420 654 420 654 425 646 c 2,15,-1
 436 630 l 1,16,17
 452 603 452 603 457.5 565 c 128,-1,18
 463 527 463 527 463 523 c 2,19,-1
 463 495 l 2,20,21
 463 476 463 476 459 464 c 1,22,23
 442 392 442 392 386 346 c 1,24,-1
 386 345 l 1,25,26
 433 310 433 310 450 254 c 0,27,28
 461 221 461 221 461 193 c 0,29,30
 461 106 461 106 406 45 c 1,31,32
 373 6 373 6 304 -7 c 0,33,34
 275 -13 275 -13 241 -13 c 128,-1,35
 207 -13 207 -13 168 -2 c 1,36,37
 101 15 101 15 70 57 c 1,38,39
 24 112 24 112 24 201.5 c 128,-1,40
 24 291 24 291 87 352 c 1,0,1
288 469 m 0,41,42
 291 479 291 479 291 493.5 c 128,-1,43
 291 508 291 508 278 520 c 128,-1,44
 265 532 265 532 244.5 532 c 128,-1,45
 224 532 224 532 215 524.5 c 128,-1,46
 206 517 206 517 200.5 513 c 128,-1,47
 195 509 195 509 195 506 c 2,48,-1
 195 504 l 1,49,50
 194 499 194 499 194 487.5 c 128,-1,51
 194 476 194 476 205 457 c 0,52,53
 217 437 217 437 247 437 c 128,-1,54
 277 437 277 437 288 469 c 0,41,42
284 182 m 1,55,56
 288 184 288 184 295 197 c 128,-1,57
 302 210 302 210 302 218 c 0,58,59
 302 245 302 245 282.5 261.5 c 128,-1,60
 263 278 263 278 238 278 c 0,61,62
 231 278 231 278 223 276 c 0,63,64
 186 262 186 262 186 217 c 0,65,66
 186 190 186 190 212 178 c 0,67,68
 225 173 225 173 240 173 c 128,-1,69
 255 173 255 173 267.5 175.5 c 128,-1,70
 280 178 280 178 284 182 c 1,55,56
EndSplineSet
EndChar

StartChar: nine
Encoding: 57 57 28
Width: 513
GlyphClass: 2
Flags: W
LayerCount: 2
Fore
SplineSet
30 222 m 1,0,-1
 135 227 l 2,1,2
 152 227 152 227 187 224 c 1,3,4
 193 203 193 203 209.5 190 c 128,-1,5
 226 177 226 177 245 177 c 0,6,7
 247 177 247 177 250 177 c 0,8,9
 304 183 304 183 304 277 c 0,10,11
 304 288 304 288 303 300 c 1,12,-1
 302 301 l 1,13,14
 265 286 265 286 231 286 c 128,-1,15
 197 286 197 286 166 297 c 0,16,17
 97 320 97 320 59 378 c 0,18,19
 28 424 28 424 28 508 c 0,20,21
 28 563 28 563 44 598 c 1,22,23
 58 623 58 623 66 632 c 0,24,25
 127 704 127 704 256 709 c 1,26,27
 358 709 358 709 390 694 c 1,28,29
 464 662 464 662 472 540 c 0,30,31
 473 514 473 514 474 471 c 2,32,-1
 476 323 l 1,33,34
 478 253 478 253 478 225 c 0,35,36
 478 128 478 128 427 57 c 1,37,38
 376 -5 376 -5 266 -5 c 0,39,40
 213 -5 213 -5 161 14 c 1,41,42
 27 60 27 60 27 182 c 0,43,44
 27 199 27 199 30 217 c 1,45,-1
 30 222 l 1,0,-1
208 466 m 1,46,47
 223 434 223 434 260.5 434 c 128,-1,48
 298 434 298 434 312 457 c 1,49,-1
 318 469 l 2,50,51
 320 473 320 473 320 475.5 c 128,-1,52
 320 478 320 478 321.5 481.5 c 128,-1,53
 323 485 323 485 323 499 c 0,54,55
 323 526 323 526 294 541 c 0,56,57
 278 549 278 549 262 549 c 1,58,-1
 232 542 l 1,59,60
 201 529 201 529 201 504 c 1,61,62
 203 481 203 481 208 467 c 1,63,-1
 208 466 l 1,46,47
EndSplineSet
EndChar

StartChar: colon
Encoding: 58 58 29
Width: 205
GlyphClass: 2
Flags: W
LayerCount: 2
Fore
SplineSet
42 1 m 1,0,1
 39 18 39 18 39 54 c 1,2,-1
 41 117 l 1,3,4
 60 125 60 125 106.5 125 c 128,-1,5
 153 125 153 125 166 119 c 1,6,-1
 164 94 l 1,7,8
 160 17 160 17 160 2 c 2,9,-1
 160 0 l 1,10,-1
 158 0 l 1,11,-1
 45 1 l 1,12,-1
 42 1 l 1,0,1
42 337 m 1,13,14
 39 354 39 354 39 390 c 1,15,-1
 41 453 l 1,16,17
 60 461 60 461 106.5 461 c 128,-1,18
 153 461 153 461 166 455 c 1,19,-1
 164 430 l 1,20,21
 160 353 160 353 160 338 c 2,22,-1
 160 336 l 1,23,-1
 158 336 l 1,24,-1
 45 337 l 1,25,-1
 42 337 l 1,13,14
EndSplineSet
EndChar

StartChar: semicolon
Encoding: 59 59 30
Width: 205
GlyphClass: 2
Flags: W
LayerCount: 2
Fore
SplineSet
42 337 m 1,0,1
 39 354 39 354 39 390 c 1,2,-1
 41 453 l 1,3,4
 60 461 60 461 106.5 461 c 128,-1,5
 153 461 153 461 166 455 c 1,6,-1
 164 430 l 1,7,8
 160 353 160 353 160 338 c 2,9,-1
 160 336 l 1,10,-1
 158 336 l 1,11,-1
 45 337 l 1,12,-1
 42 337 l 1,0,1
159 1 m 2,13,-1
 139 -100 l 2,14,15
 138 -100 138 -100 70 -98 c 1,16,17
 68 -96 68 -96 72 -80 c 2,18,-1
 82 -40 l 2,19,20
 88 -16 88 -16 90 -1 c 1,21,-1
 43 3 l 2,22,23
 41 3 41 3 40 4 c 1,24,25
 40 32 40 32 44 119 c 1,26,-1
 44 120 l 1,27,-1
 45 120 l 1,28,29
 62 126 62 126 74.5 126 c 128,-1,30
 87 126 87 126 165 119 c 1,31,-1
 166 119 l 1,32,-1
 162 4 l 1,33,-1
 160 4 l 1,34,35
 159 2 159 2 159 1 c 2,13,-1
EndSplineSet
EndChar

StartChar: less
Encoding: 60 60 31
Width: 363
GlyphClass: 2
Flags: W
LayerCount: 2
Fore
SplineSet
343 93 m 1,0,-1
 316 67 l 2,1,2
 289 40 289 40 265 19 c 1,3,4
 251 33 251 33 154 121.5 c 128,-1,5
 57 210 57 210 13 270 c 1,6,7
 53 321 53 321 201 469 c 1,8,-1
 258 528 l 1,9,10
 270 521 270 521 296.5 494 c 128,-1,11
 323 467 323 467 334 459 c 1,12,13
 315 435 315 435 249.5 367.5 c 128,-1,14
 184 300 184 300 158 267 c 1,15,16
 185 243 185 243 246.5 182 c 128,-1,17
 308 121 308 121 343 93 c 1,0,-1
EndSplineSet
EndChar

StartChar: equal
Encoding: 61 61 32
Width: 466
GlyphClass: 2
Flags: W
LayerCount: 2
Fore
SplineSet
425 320 m 1,0,-1
 41 326 l 1,1,-1
 44 463 l 1,2,-1
 423 463 l 1,3,-1
 421 381 l 2,4,5
 421 343 421 343 426 320 c 1,6,-1
 425 320 l 1,0,-1
425 113 m 1,7,-1
 41 119 l 1,8,-1
 44 256 l 1,9,-1
 423 256 l 1,10,-1
 421 174 l 2,11,12
 421 136 421 136 426 113 c 1,13,-1
 425 113 l 1,7,-1
EndSplineSet
EndChar

StartChar: greater
Encoding: 62 62 33
Width: 363
GlyphClass: 2
Flags: W
LayerCount: 2
Fore
SplineSet
31 83 m 1,0,-1
 20 93 l 1,1,2
 55 121 55 121 116.5 182 c 128,-1,3
 178 243 178 243 205 267 c 1,4,5
 178 299 178 299 113.5 366.5 c 128,-1,6
 49 434 49 434 29 459 c 1,7,8
 40 466 40 466 66 493.5 c 128,-1,9
 92 521 92 521 105 528 c 1,10,-1
 162 469 l 1,11,12
 310 321 310 321 350 270 c 1,13,14
 305 211 305 211 211.5 125 c 128,-1,15
 118 39 118 39 98 19 c 1,16,17
 74 40 74 40 47 67 c 2,18,-1
 31 83 l 1,0,-1
EndSplineSet
EndChar

StartChar: question
Encoding: 63 63 34
Width: 451
GlyphClass: 2
Flags: W
LayerCount: 2
Fore
SplineSet
227 177 m 2,0,-1
 173 178 l 2,1,2
 158 178 158 178 147 177 c 1,3,-1
 146 177 l 1,4,5
 142 181 142 181 142 199 c 2,6,-1
 144 237 l 1,7,8
 157 318 157 318 183 356 c 1,9,10
 190 369 190 369 209 394 c 0,11,12
 271 475 271 475 271 507 c 0,13,14
 271 537 271 537 233 551 c 1,15,16
 220 558 220 558 211.5 558 c 128,-1,17
 203 558 203 558 192.5 553.5 c 128,-1,18
 182 549 182 549 176 538 c 0,19,20
 154 502 154 502 138 496 c 1,21,22
 115 494 115 494 102 494 c 2,23,-1
 16 498 l 1,24,-1
 16 499 l 1,25,26
 20 578 20 578 75.5 640.5 c 128,-1,27
 131 703 131 703 213 707 c 0,28,29
 224 708 224 708 235 708 c 0,30,31
 315 708 315 708 373 657.5 c 128,-1,32
 431 607 431 607 431 533 c 0,33,34
 431 465 431 465 383 405 c 0,35,36
 372 390 372 390 352.5 369.5 c 128,-1,37
 333 349 333 349 323 336 c 0,38,39
 288 287 288 287 274 214 c 1,40,41
 269 197 269 197 269 190 c 128,-1,42
 269 183 269 183 270 180 c 1,43,-1
 270 179 l 1,44,45
 254 177 254 177 227 177 c 2,0,-1
143 1 m 1,46,47
 140 18 140 18 140 54 c 1,48,-1
 142 117 l 1,49,50
 161 125 161 125 207.5 125 c 128,-1,51
 254 125 254 125 267 119 c 1,52,-1
 266 94 l 1,53,54
 261 17 261 17 261 2 c 2,55,-1
 261 0 l 1,56,-1
 259 0 l 1,57,-1
 146 1 l 1,58,-1
 143 1 l 1,46,47
EndSplineSet
EndChar

StartChar: at
Encoding: 64 64 35
Width: 564
GlyphClass: 2
Flags: W
LayerCount: 2
Fore
SplineSet
193 88 m 1,0,1
 225 69 225 69 303.5 69 c 128,-1,2
 382 69 382 69 493 124 c 1,3,-1
 531 42 l 1,4,5
 502 24 502 24 460.5 6.5 c 128,-1,6
 419 -11 419 -11 392 -15 c 1,7,8
 357 -23 357 -23 307 -23 c 128,-1,9
 257 -23 257 -23 224 -20 c 1,10,11
 136 -8 136 -8 90 53 c 1,12,13
 72 79 72 79 57 122 c 128,-1,14
 42 165 42 165 40 195 c 0,15,16
 33 314 33 314 33 376 c 2,17,-1
 33 406 l 1,18,19
 35 528 35 528 83 590 c 0,20,21
 125 643 125 643 229 656 c 1,22,23
 244 659 244 659 280 659 c 128,-1,24
 316 659 316 659 370.5 651.5 c 128,-1,25
 425 644 425 644 470 602 c 0,26,27
 498 577 498 577 513 534 c 128,-1,28
 528 491 528 491 530.5 460 c 128,-1,29
 533 429 533 429 533 380 c 2,30,-1
 533 326 l 2,31,32
 533 273 533 273 526.5 235.5 c 128,-1,33
 520 198 520 198 490.5 176.5 c 128,-1,34
 461 155 461 155 418 154 c 0,35,36
 399 154 399 154 377 167 c 1,37,38
 366 178 366 178 359 187 c 1,39,40
 326 160 326 160 276 160 c 128,-1,41
 226 160 226 160 195 195 c 128,-1,42
 164 230 164 230 164 305 c 0,43,44
 164 378 164 378 206 426 c 1,45,46
 222 447 222 447 258.5 463 c 128,-1,47
 295 479 295 479 332 479 c 0,48,49
 370 479 370 479 395 462 c 1,50,51
 405 450 405 450 405 431 c 2,52,-1
 404 399 l 2,53,54
 403 382 403 382 403 341 c 0,55,56
 403 241 403 241 424 237 c 1,57,58
 431 242 431 242 436 271 c 1,59,60
 440 302 440 302 440 328.5 c 128,-1,61
 440 355 440 355 439 380 c 1,62,-1
 439 408 l 1,63,64
 433 519 433 519 368 555 c 1,65,66
 346 566 346 566 313.5 570 c 128,-1,67
 281 574 281 574 270 574 c 0,68,69
 170 574 170 574 143 487 c 0,70,71
 133 455 133 455 131 434 c 0,72,73
 126 380 126 380 126 320 c 128,-1,74
 126 260 126 260 136 201 c 0,75,76
 149 116 149 116 193 88 c 1,0,1
249 289 m 2,77,-1
 249 286 l 2,78,79
 249 268 249 268 259 261 c 128,-1,80
 269 254 269 254 276.5 254 c 128,-1,81
 284 254 284 254 292 258 c 0,82,83
 319 269 319 269 319 325.5 c 128,-1,84
 319 382 319 382 324 382 c 1,85,86
 317 383 317 383 311 383 c 0,87,88
 275 383 275 383 263 359 c 1,89,90
 249 337 249 337 249 289 c 2,77,-1
EndSplineSet
EndChar

StartChar: A
Encoding: 65 65 36
Width: 434
GlyphClass: 2
Flags: W
LayerCount: 2
Fore
SplineSet
157 700 m 1,0,1
 171 702 171 702 176 701 c 128,-1,2
 181 700 181 700 202 700 c 128,-1,3
 223 700 223 700 280 705 c 1,4,-1
 362 351 l 1,5,-1
 437 1 l 1,6,-1
 437 0 l 1,7,8
 412 -5 412 -5 379 -5 c 128,-1,9
 346 -5 346 -5 303 4 c 1,10,-1
 302 4 l 1,11,12
 295 23 295 23 280 84.5 c 128,-1,13
 265 146 265 146 255 167 c 1,14,15
 251 170 251 170 236 170 c 2,16,-1
 193 168 l 1,17,18
 185 149 185 149 173 87 c 128,-1,19
 161 25 161 25 149 1 c 1,20,21
 140 -1 140 -1 131 -1 c 2,22,-1
 6 1 l 2,23,24
 5 1 5 1 4 2 c 1,25,26
 5 5 5 5 24 115 c 128,-1,27
 43 225 43 225 79 391.5 c 128,-1,28
 115 558 115 558 157 700 c 1,0,1
186 286 m 1,29,30
 223 286 223 286 260 286 c 1,31,32
 236 495 236 495 222 495 c 0,33,34
 218 495 218 495 214 480 c 128,-1,35
 210 465 210 465 186 286 c 1,29,30
EndSplineSet
EndChar

StartChar: B
Encoding: 66 66 37
Width: 477
GlyphClass: 2
Flags: W
LayerCount: 2
Fore
SplineSet
40 218 m 2,0,-1
 42 558 l 2,1,2
 42 644 42 644 41 692 c 1,3,-1
 42 693 l 1,4,5
 122 715 122 715 171.5 715 c 128,-1,6
 221 715 221 715 262.5 709.5 c 128,-1,7
 304 704 304 704 345.5 683 c 128,-1,8
 387 662 387 662 413 617 c 128,-1,9
 439 572 439 572 439 503 c 128,-1,10
 439 434 439 434 390 352 c 0,11,12
 385 343 385 343 397.5 328 c 128,-1,13
 410 313 410 313 413.5 308.5 c 128,-1,14
 417 304 417 304 429.5 287 c 128,-1,15
 442 270 442 270 445 262.5 c 128,-1,16
 448 255 448 255 455.5 238.5 c 128,-1,17
 463 222 463 222 464.5 209.5 c 128,-1,18
 466 197 466 197 466 180 c 128,-1,19
 466 163 466 163 461.5 137 c 128,-1,20
 457 111 457 111 442 84.5 c 128,-1,21
 427 58 427 58 408.5 42 c 128,-1,22
 390 26 390 26 361 16 c 1,23,24
 306 -5 306 -5 213 -4 c 0,25,26
 190 -4 190 -4 137 -2 c 2,27,-1
 66 2 l 2,28,29
 49 2 49 2 44 4 c 1,30,31
 40 71 40 71 40 218 c 2,0,-1
188 140 m 1,32,-1
 226 139 l 1,33,34
 266 139 266 139 279.5 147.5 c 128,-1,35
 293 156 293 156 301 165 c 1,36,37
 312 180 312 180 312 199 c 128,-1,38
 312 218 312 218 304 239 c 1,39,40
 290 266 290 266 261 273 c 0,41,42
 246 277 246 277 217 278.5 c 128,-1,43
 188 280 188 280 183 281 c 1,44,45
 171 234 171 234 171 198.5 c 128,-1,46
 171 163 171 163 186 141 c 1,47,-1
 188 140 l 1,32,-1
180 535 m 2,48,-1
 179 468 l 2,49,50
 179 435 179 435 184 420 c 1,51,52
 205 417 205 417 222 417 c 0,53,54
 283 417 283 417 300 450 c 0,55,56
 313 474 313 474 313 488 c 128,-1,57
 313 502 313 502 309 510 c 0,58,59
 294 539 294 539 265 545 c 128,-1,60
 236 551 236 551 215 551 c 128,-1,61
 194 551 194 551 180 544 c 1,62,63
 180 542 180 542 180 535 c 2,48,-1
EndSplineSet
EndChar

StartChar: C
Encoding: 67 67 38
Width: 488
GlyphClass: 2
Flags: W
LayerCount: 2
Fore
SplineSet
360 285 m 2,0,-1
 405 285 l 2,1,2
 446 285 446 285 458 280 c 1,3,4
 468 242 468 242 468 208 c 0,5,6
 468 101 468 101 388 35 c 0,7,8
 334 -10 334 -10 263 -11 c 1,9,10
 242 -14 242 -14 217 -14 c 128,-1,11
 192 -14 192 -14 154 -6 c 128,-1,12
 116 2 116 2 78.5 35.5 c 128,-1,13
 41 69 41 69 36 122 c 1,14,15
 32 207 32 207 32 320.5 c 128,-1,16
 32 434 32 434 32 488.5 c 128,-1,17
 32 543 32 543 32 559 c 128,-1,18
 32 575 32 575 44 604 c 1,19,20
 62 657 62 657 99 691 c 1,21,22
 119 706 119 706 150 714 c 1,23,24
 188 726 188 726 215 726 c 0,25,26
 300 726 300 726 349 695 c 0,27,28
 471 617 471 617 471 498 c 0,29,30
 471 461 471 461 459 421 c 1,31,32
 436 416 436 416 401 416 c 128,-1,33
 366 416 366 416 313 425 c 1,34,35
 311 436 311 436 310 459 c 128,-1,36
 309 482 309 482 307 496 c 0,37,38
 301 538 301 538 279 551 c 0,39,40
 267 558 267 558 256 558 c 128,-1,41
 245 558 245 558 223.5 554.5 c 128,-1,42
 202 551 202 551 193 542 c 0,43,44
 190 540 190 540 188 532 c 0,45,46
 179 508 179 508 179 398 c 128,-1,47
 179 288 179 288 183 244 c 0,48,49
 191 166 191 166 240 152 c 0,50,51
 246 151 246 151 251 151 c 0,52,53
 318 151 318 151 321 240 c 0,54,55
 322 275 322 275 324 286 c 1,56,57
 333 285 333 285 360 285 c 2,0,-1
EndSplineSet
EndChar

StartChar: D
Encoding: 68 68 39
Width: 482
GlyphClass: 2
Flags: W
LayerCount: 2
Fore
SplineSet
167 702 m 2,0,-1
 260 701 l 2,1,2
 274 701 274 701 284 701 c 1,3,4
 316 693 316 693 345.5 670 c 128,-1,5
 375 647 375 647 393 617 c 1,6,7
 434 553 434 553 453 470 c 1,8,9
 460 449 460 449 462 407 c 1,10,11
 461 392 461 392 460 360.5 c 128,-1,12
 459 329 459 329 458 311 c 0,13,14
 455 255 455 255 451.5 236.5 c 128,-1,15
 448 218 448 218 447.5 218 c 128,-1,16
 447 218 447 218 447 217 c 0,17,18
 414 122 414 122 320 5 c 1,19,20
 232 2 232 2 57 2 c 1,21,-1
 56 1 l 1,22,23
 39 123 39 123 39 343 c 1,24,-1
 41 594 l 2,25,26
 41 649 41 649 40 687 c 1,27,-1
 43 691 l 1,28,29
 90 702 90 702 167 702 c 2,0,-1
183 410 m 2,30,-1
 183 304 l 2,31,32
 183 255 183 255 184 222 c 1,33,34
 194 214 194 214 214 214 c 0,35,36
 249 214 249 214 270 222 c 1,37,38
 286 232 286 232 301 254 c 0,39,40
 329 297 329 297 329 343 c 0,41,42
 329 376 329 376 319 408 c 0,43,44
 299 473 299 473 260 486 c 1,45,46
 240 489 240 489 221 489 c 128,-1,47
 202 489 202 489 185 485 c 1,48,-1
 182 485 l 1,49,-1
 182 481 l 1,50,51
 183 457 183 457 183 410 c 2,30,-1
EndSplineSet
EndChar

StartChar: E
Encoding: 69 69 40
Width: 481
GlyphClass: 2
Flags: W
LayerCount: 2
Fore
SplineSet
201 141 m 1,0,-1
 421 135 l 2,1,2
 444 135 444 135 463 136 c 1,3,-1
 463 134 l 1,4,5
 465 110 465 110 465 74 c 128,-1,6
 465 38 465 38 455 3 c 1,7,-1
 171 0 l 2,8,9
 102 0 102 0 45 5 c 1,10,-1
 40 474 l 1,11,12
 40 587 40 587 46 689 c 1,13,14
 215 698 215 698 337 698 c 128,-1,15
 459 698 459 698 460 695 c 0,16,17
 463 674 463 674 463 650 c 2,18,-1
 460 553 l 1,19,-1
 460 552 l 1,20,21
 416 542 416 542 344 542 c 2,22,-1
 292 542 l 2,23,24
 236 542 236 542 198 540 c 1,25,-1
 195 540 l 1,26,-1
 194 539 l 1,27,-1
 191 452 l 2,28,29
 191 426 191 426 196 421 c 1,30,31
 250 418 250 418 319 418 c 1,32,-1
 319 417 l 1,33,34
 323 414 323 414 323 375 c 2,35,-1
 321 278 l 1,36,37
 300 272 300 272 253.5 272 c 128,-1,38
 207 272 207 272 200 267 c 1,39,40
 196 246 196 246 196 214.5 c 128,-1,41
 196 183 196 183 200 142 c 1,42,-1
 201 141 l 1,0,-1
EndSplineSet
EndChar

StartChar: F
Encoding: 70 70 41
Width: 494
GlyphClass: 2
Flags: W
LayerCount: 2
Fore
SplineSet
353 261 m 2,0,1
 353 261 353 261 225 246 c 1,2,-1
 224 246 l 1,3,4
 218 178 218 178 216 1 c 1,5,6
 175 -3 175 -3 110.5 -3 c 128,-1,7
 46 -3 46 -3 41 2 c 1,8,-1
 43 679 l 1,9,-1
 43 680 l 1,10,11
 141 697 141 697 274 697 c 128,-1,12
 407 697 407 697 490 682 c 1,13,-1
 490 534 l 1,14,15
 272 523 272 523 223 518 c 1,16,17
 213 495 213 495 213 472 c 128,-1,18
 213 449 213 449 219.5 438 c 128,-1,19
 226 427 226 427 227 427 c 0,20,21
 254 424 254 424 285.5 424 c 128,-1,22
 317 424 317 424 353 427 c 1,23,24
 356 419 356 419 356 385 c 2,25,-1
 355 309 l 2,26,27
 355 281 355 281 356 263 c 0,28,29
 356 261 356 261 353 261 c 2,0,1
EndSplineSet
EndChar

StartChar: G
Encoding: 71 71 42
Width: 481
GlyphClass: 2
Flags: W
LayerCount: 2
Fore
SplineSet
305 238 m 2,0,-1
 266 238 l 2,1,2
 248 238 248 238 244 240 c 1,3,4
 242 261 242 261 242 291 c 128,-1,5
 242 321 242 321 240 345 c 1,6,-1
 240 346 l 2,7,8
 240 347 240 347 241 347 c 128,-1,9
 242 347 242 347 243 348 c 0,10,11
 258 357 258 357 284.5 357.5 c 128,-1,12
 311 358 311 358 333 358 c 128,-1,13
 355 358 355 358 400.5 355 c 128,-1,14
 446 352 446 352 448 352 c 2,15,-1
 450 352 l 1,16,-1
 451 351 l 1,17,18
 459 282 459 282 459 225 c 128,-1,19
 459 168 459 168 451 125 c 1,20,21
 442 38 442 38 356 6 c 1,22,23
 281 -15 281 -15 229.5 -15 c 128,-1,24
 178 -15 178 -15 142 0.5 c 128,-1,25
 106 16 106 16 84 44 c 0,26,27
 49 90 49 90 38 187 c 1,28,29
 27 298 27 298 27 348 c 0,30,31
 27 481 27 481 39 555.5 c 128,-1,32
 51 630 51 630 97 662 c 1,33,34
 144 702 144 702 236 702 c 128,-1,35
 328 702 328 702 390 654.5 c 128,-1,36
 452 607 452 607 452 516 c 0,37,38
 452 494 452 494 449 475 c 1,39,40
 447 472 447 472 397 471.5 c 128,-1,41
 347 471 347 471 323 474 c 1,42,43
 298 557 298 557 255 557 c 1,44,45
 246 558 246 558 237.5 558 c 128,-1,46
 229 558 229 558 216.5 557 c 128,-1,47
 204 556 204 556 196.5 548.5 c 128,-1,48
 189 541 189 541 179 507 c 0,49,50
 164 454 164 454 164 365.5 c 128,-1,51
 164 277 164 277 169.5 220 c 128,-1,52
 175 163 175 163 201 142 c 1,53,54
 216 132 216 132 237.5 132 c 128,-1,55
 259 132 259 132 286 142 c 1,56,57
 311 153 311 153 317 178 c 0,58,59
 320 190 320 190 321.5 211 c 128,-1,60
 323 232 323 232 318 238 c 1,61,62
 314 238 314 238 305 238 c 2,0,-1
EndSplineSet
EndChar

StartChar: H
Encoding: 72 72 43
Width: 499
GlyphClass: 2
Flags: W
LayerCount: 2
Fore
SplineSet
71 697 m 2,0,-1
 137 700 l 2,1,2
 159 700 159 700 170 696 c 1,3,4
 175 656 175 656 178.5 567.5 c 128,-1,5
 182 479 182 479 191 433 c 1,6,-1
 192 433 l 1,7,8
 204 430 204 430 230 430 c 128,-1,9
 256 430 256 430 300 434 c 1,10,-1
 301 434 l 1,11,12
 307 506 307 506 307 573.5 c 128,-1,13
 307 641 307 641 305 695 c 1,14,15
 344 708 344 708 382 708 c 128,-1,16
 420 708 420 708 442 706 c 1,17,-1
 469 6 l 1,18,19
 442 1 442 1 390 1 c 128,-1,20
 338 1 338 1 329 0 c 1,21,-1
 328 0 l 1,22,23
 321 46 321 46 319.5 140.5 c 128,-1,24
 318 235 318 235 313 276 c 1,25,-1
 312 277 l 1,26,27
 284 282 284 282 255 282 c 128,-1,28
 226 282 226 282 196 275 c 1,29,30
 194 250 194 250 194 204 c 2,31,-1
 195 92 l 2,32,33
 195 33 195 33 190 7 c 1,34,35
 178 0 178 0 150 0 c 1,36,-1
 79 4 l 1,37,38
 60 4 60 4 54 1 c 1,39,40
 47 94 47 94 43 281 c 128,-1,41
 39 468 39 468 39 556 c 128,-1,42
 39 644 39 644 40 698 c 1,43,-1
 40 699 l 1,44,-1
 43 699 l 1,45,46
 53 697 53 697 71 697 c 2,0,-1
EndSplineSet
EndChar

StartChar: I
Encoding: 73 73 44
Width: 260
GlyphClass: 2
Flags: W
LayerCount: 2
Fore
SplineSet
52 708 m 2,0,-1
 88 706 l 1,1,2
 171 703 171 703 198 703 c 2,3,-1
 222 703 l 1,4,-1
 222 699 l 1,5,-1
 215 222 l 1,6,7
 215 143 215 143 221 5 c 1,8,9
 218 -6 218 -6 161 -6 c 1,10,-1
 58 -3 l 2,11,12
 43 -3 43 -3 39 -4 c 1,13,14
 44 61 44 61 44 167 c 1,15,-1
 39 512 l 1,16,17
 39 640 39 640 47 706 c 1,18,-1
 47 708 l 1,19,20
 49 708 49 708 52 708 c 2,0,-1
EndSplineSet
EndChar

StartChar: J
Encoding: 74 74 45
Width: 463
GlyphClass: 2
Flags: W
LayerCount: 2
Fore
SplineSet
159 286 m 1,0,-1
 159 280 l 1,1,2
 167 169 167 169 219 166 c 0,3,4
 225 165 225 165 231 165 c 0,5,6
 250 165 250 165 263.5 184 c 128,-1,7
 277 203 277 203 280 236 c 1,8,9
 277 402 277 402 277 515.5 c 128,-1,10
 277 629 277 629 279 703 c 1,11,-1
 279 710 l 1,12,-1
 425 712 l 1,13,14
 425 698 425 698 425 681 c 2,15,-1
 430 385 l 2,16,17
 430 353 430 353 429 335 c 128,-1,18
 428 317 428 317 427.5 281 c 128,-1,19
 427 245 427 245 425.5 226.5 c 128,-1,20
 424 208 424 208 420.5 175.5 c 128,-1,21
 417 143 417 143 409 123 c 128,-1,22
 401 103 401 103 390 80 c 0,23,24
 368 37 368 37 313 16 c 1,25,26
 263 -9 263 -9 214.5 -9 c 128,-1,27
 166 -9 166 -9 126 0 c 1,28,29
 87 11 87 11 60 43 c 0,30,31
 3 112 3 112 3 260 c 0,32,33
 3 274 3 274 4 288 c 1,34,35
 32 295 32 295 70.5 295 c 128,-1,36
 109 295 109 295 159 286 c 1,0,-1
EndSplineSet
EndChar

StartChar: K
Encoding: 75 75 46
Width: 459
GlyphClass: 2
Flags: W
LayerCount: 2
Fore
SplineSet
463 4 m 1,0,1
 440 -1 440 -1 405 -1 c 1,2,-1
 324 2 l 1,3,4
 291 40 291 40 242.5 144 c 128,-1,5
 194 248 194 248 186 263 c 1,6,7
 185 243 185 243 185 214 c 2,8,-1
 189 5 l 1,9,10
 162 -2 162 -2 140 -2 c 0,11,12
 73 -2 73 -2 43 5 c 1,13,14
 38 39 38 39 38 162 c 1,15,-1
 45 699 l 1,16,17
 55 699 55 699 68 699 c 2,18,-1
 179 697 l 1,19,20
 180 659 180 659 180 577 c 128,-1,21
 180 495 180 495 181 457 c 1,22,23
 181 458 181 458 198 479.5 c 128,-1,24
 215 501 215 501 257.5 581 c 128,-1,25
 300 661 300 661 326 698 c 1,26,27
 334 698 334 698 351 698 c 2,28,-1
 413 698 l 2,29,30
 449 698 449 698 462 695 c 1,31,32
 444 632 444 632 377 517 c 128,-1,33
 310 402 310 402 292 359 c 1,34,-1
 463 4 l 1,0,1
EndSplineSet
EndChar

StartChar: L
Encoding: 76 76 47
Width: 461
GlyphClass: 2
Flags: W
LayerCount: 2
Fore
SplineSet
457 101 m 1,0,-1
 460 33 l 2,1,2
 460 20 460 20 456.5 11 c 128,-1,3
 453 2 453 2 449.5 1 c 128,-1,4
 446 0 446 0 439 0 c 2,5,6
 439 0 439 0 431 0 c 0,7,8
 426 0 426 0 416 0 c 2,9,-1
 214 -3 l 1,10,11
 143 -3 143 -3 36 -1 c 1,12,-1
 36 17 l 1,13,14
 44 324 44 324 44 363 c 2,15,-1
 39 703 l 1,16,17
 57 712 57 712 114 712 c 128,-1,18
 171 712 171 712 199 700 c 1,19,20
 197 657 197 657 197 580 c 2,21,-1
 200 213 l 2,22,23
 200 181 200 181 200 159 c 2,24,-1
 200 158 l 1,25,26
 206 160 206 160 228 160 c 2,27,-1
 446 152 l 2,28,29
 456 152 456 152 459 152 c 1,30,-1
 457 101 l 1,0,-1
EndSplineSet
EndChar

StartChar: M
Encoding: 77 77 48
Width: 501
GlyphClass: 2
Flags: W
LayerCount: 2
Fore
SplineSet
456 -1 m 1,0,1
 432 2 432 2 397 2 c 2,2,-1
 324 0 l 1,3,4
 323 18 323 18 320.5 170.5 c 128,-1,5
 318 323 318 323 310 389 c 1,6,7
 303 378 303 378 290 340 c 1,8,9
 254 243 254 243 247 243 c 128,-1,10
 240 243 240 243 230 263.5 c 128,-1,11
 220 284 220 284 214.5 299 c 128,-1,12
 209 314 209 314 203.5 328.5 c 128,-1,13
 198 343 198 343 194 355.5 c 128,-1,14
 190 368 190 368 185 382 c 1,15,16
 180 319 180 319 180 227 c 128,-1,17
 180 135 180 135 188 3 c 1,18,19
 160 -2 160 -2 120 -2 c 1,20,-1
 48 0 l 2,21,22
 46 0 46 0 44 7 c 128,-1,23
 42 14 42 14 42 199.5 c 128,-1,24
 42 385 42 385 44 686 c 1,25,26
 48 692 48 692 90 692 c 2,27,-1
 163 691 l 2,28,29
 176 691 176 691 180 691 c 2,30,-1
 181 691 l 1,31,32
 195 676 195 676 216.5 615 c 128,-1,33
 238 554 238 554 247 540 c 0,34,35
 250 537 250 537 252.5 536.5 c 128,-1,36
 255 536 255 536 259.5 549 c 128,-1,37
 264 562 264 562 270 582 c 128,-1,38
 276 602 276 602 283 624 c 0,39,40
 301 679 301 679 312 693 c 1,41,42
 320 692 320 692 329 692 c 2,43,-1
 460 697 l 1,44,45
 459 670 459 670 459 630 c 2,46,-1
 461 418 l 2,47,48
 461 355 461 355 459 318 c 1,49,-1
 456 -1 l 1,0,1
EndSplineSet
EndChar

StartChar: N
Encoding: 78 78 49
Width: 498
GlyphClass: 2
Flags: W
LayerCount: 2
Fore
SplineSet
456 100 m 1,0,-1
 457 20 l 1,1,-1
 457 0 l 1,2,3
 442 -5 442 -5 424 -5 c 2,4,-1
 332 0 l 1,5,6
 240 198 240 198 211 277 c 1,7,-1
 201 307 l 2,8,9
 191 337 191 337 188 337 c 0,10,11
 181 337 181 337 181 180 c 128,-1,12
 181 23 181 23 182 0 c 1,13,14
 163 -5 163 -5 138 -5 c 1,15,-1
 42 1 l 1,16,-1
 42 71 l 1,17,-1
 39 432 l 1,18,19
 39 591 39 591 48 700 c 1,20,21
 65 704 65 704 88.5 704 c 128,-1,22
 112 704 112 704 144 701 c 128,-1,23
 176 698 176 698 176 694 c 1,24,25
 186 668 186 668 201.5 638 c 128,-1,26
 217 608 217 608 226 586.5 c 128,-1,27
 235 565 235 565 272.5 490 c 128,-1,28
 310 415 310 415 312 415 c 1,29,30
 319 420 319 420 319 470 c 1,31,-1
 316 615 l 2,32,33
 316 638 316 638 318 704 c 1,34,35
 352 710 352 710 390 710 c 128,-1,36
 428 710 428 710 456 704 c 1,37,-1
 456 382 l 1,38,39
 457 326 457 326 457 211 c 1,40,-1
 456 100 l 1,0,-1
EndSplineSet
EndChar

StartChar: O
Encoding: 79 79 50
Width: 483
GlyphClass: 2
Flags: W
LayerCount: 2
Fore
SplineSet
456 468 m 2,0,-1
 453 330 l 1,1,2
 453 262 453 262 450 226 c 2,3,-1
 447 193 l 1,4,5
 442 111 442 111 409 58 c 1,6,7
 379 17 379 17 306 -3 c 0,8,9
 268 -14 268 -14 238 -14 c 128,-1,10
 208 -14 208 -14 175.5 -11.5 c 128,-1,11
 143 -9 143 -9 109.5 6 c 128,-1,12
 76 21 76 21 60 57 c 1,13,14
 38 95 38 95 36 168 c 1,15,16
 28 321 28 321 28 354 c 0,17,18
 28 433 28 433 31 482 c 1,19,20
 33 594 33 594 84 653 c 1,21,22
 96 665 96 665 107 671 c 0,23,24
 165 700 165 700 238 700 c 0,25,26
 334 700 334 700 396 653 c 1,27,28
 425 627 425 627 437 592 c 1,29,30
 447 569 447 569 451.5 536 c 128,-1,31
 456 503 456 503 456 468 c 2,0,-1
328 248 m 2,32,-1
 330 300 l 1,33,-1
 330 348 l 1,34,-1
 328 416 l 1,35,36
 324 454 324 454 324 473 c 1,37,38
 319 535 319 535 272 558 c 0,39,40
 258 564 258 564 245 564 c 1,41,-1
 194 544 l 1,42,43
 159 516 159 516 147 475 c 1,44,45
 137 426 137 426 137 381.5 c 128,-1,46
 137 337 137 337 138 319 c 0,47,48
 145 208 145 208 157 170 c 1,49,50
 178 126 178 126 237 126 c 0,51,52
 280 126 280 126 308 157 c 1,53,54
 324 179 324 179 325 188.5 c 128,-1,55
 326 198 326 198 326.5 215 c 128,-1,56
 327 232 327 232 328 248 c 2,32,-1
EndSplineSet
EndChar

StartChar: P
Encoding: 80 80 51
Width: 497
GlyphClass: 2
Flags: W
LayerCount: 2
Fore
SplineSet
40 289 m 1,0,-1
 41 391 l 1,1,2
 41 590 41 590 37 695 c 1,3,4
 103 713 103 713 175.5 713 c 128,-1,5
 248 713 248 713 317 695 c 128,-1,6
 386 677 386 677 433 624.5 c 128,-1,7
 480 572 480 572 484 491 c 1,8,-1
 484 490 l 2,9,10
 484 379 484 379 388 308 c 0,11,12
 322 260 322 260 249 260 c 0,13,14
 230 260 230 260 210 263 c 1,15,16
 211 248 211 248 211 191.5 c 128,-1,17
 211 135 211 135 214 12 c 1,18,-1
 214 11 l 1,19,20
 212 10 212 10 211 10 c 0,21,22
 183 2 183 2 127.5 2 c 128,-1,23
 72 2 72 2 44 6 c 1,24,25
 40 92 40 92 40 289 c 1,0,-1
184 483 m 2,26,27
 184 430 184 430 192 405 c 1,28,-1
 195 405 l 2,29,30
 265 405 265 405 290.5 414 c 128,-1,31
 316 423 316 423 327 434 c 1,32,33
 340 451 340 451 340 466 c 0,34,35
 340 515 340 515 309 533 c 1,36,37
 274 561 274 561 228 561 c 0,38,39
 208 561 208 561 196 558.5 c 128,-1,40
 184 556 184 556 183 555 c 1,41,42
 184 537 184 537 184 520 c 2,43,-1
 184 483 l 2,26,27
EndSplineSet
EndChar

StartChar: Q
Encoding: 81 81 52
Width: 495
GlyphClass: 2
Flags: W
LayerCount: 2
Fore
SplineSet
428 78 m 1,0,1
 447 55 447 55 447 47 c 128,-1,2
 447 39 447 39 442.5 31.5 c 128,-1,3
 438 24 438 24 434 21 c 128,-1,4
 430 18 430 18 420 10 c 1,5,6
 392 -8 392 -8 382 -8 c 0,7,8
 362 -8 362 -8 340 24 c 1,9,10
 328 10 328 10 298 2 c 128,-1,11
 268 -6 268 -6 252 -6 c 0,12,13
 153 -6 153 -6 90 54 c 0,14,15
 68 74 68 74 58.5 94.5 c 128,-1,16
 49 115 49 115 44.5 125.5 c 128,-1,17
 40 136 40 136 37.5 154 c 128,-1,18
 35 172 35 172 33 181.5 c 128,-1,19
 31 191 31 191 30.5 212.5 c 128,-1,20
 30 234 30 234 30 242 c 2,21,-1
 30 409 l 2,22,23
 30 534 30 534 52 618 c 1,24,25
 66 660 66 660 121.5 687 c 128,-1,26
 177 714 177 714 254.5 714 c 128,-1,27
 332 714 332 714 370 695 c 128,-1,28
 408 676 408 676 439 602 c 1,29,30
 468 511 468 511 468 368 c 0,31,32
 468 304 468 304 466 278.5 c 128,-1,33
 464 253 464 253 464 232 c 0,34,35
 462 187 462 187 456 165 c 1,36,37
 454 147 454 147 450 133 c 128,-1,38
 446 119 446 119 428 78 c 1,0,1
153 343 m 1,39,-1
 152 257 l 2,40,41
 152 196 152 196 161 171 c 0,42,43
 182 115 182 115 251 115 c 0,44,45
 262 115 262 115 269 116 c 1,46,-1
 247 139 l 1,47,48
 226 164 226 164 226 176 c 128,-1,49
 226 188 226 188 230 192.5 c 128,-1,50
 234 197 234 197 244.5 202.5 c 128,-1,51
 255 208 255 208 258.5 210.5 c 128,-1,52
 262 213 262 213 268.5 219 c 128,-1,53
 275 225 275 225 281 228.5 c 128,-1,54
 287 232 287 232 294 232 c 128,-1,55
 301 232 301 232 307.5 223.5 c 128,-1,56
 314 215 314 215 320.5 202 c 128,-1,57
 327 189 327 189 334 182 c 1,58,59
 336 188 336 188 338 213.5 c 128,-1,60
 340 239 340 239 341.5 247 c 128,-1,61
 343 255 343 255 343 336 c 128,-1,62
 343 417 343 417 338 470 c 128,-1,63
 333 523 333 523 313.5 544 c 128,-1,64
 294 565 294 565 243.5 565 c 128,-1,65
 193 565 193 565 178 552 c 0,66,67
 153 529 153 529 153 343 c 1,39,-1
EndSplineSet
EndChar

StartChar: R
Encoding: 82 82 53
Width: 518
GlyphClass: 2
Flags: W
LayerCount: 2
Fore
SplineSet
516 3 m 1,0,-1
 386 -1 l 2,1,2
 361 -1 361 -1 351 1 c 1,3,-1
 350 1 l 1,4,5
 278 169 278 169 211 252 c 1,6,-1
 209 255 l 1,7,8
 207 238 207 238 207 187.5 c 128,-1,9
 207 137 207 137 214 11 c 1,10,11
 186 0 186 0 103 0 c 2,12,-1
 52 0 l 2,13,14
 42 0 42 0 40 0 c 1,15,16
 44 0 44 0 44 315.5 c 128,-1,17
 44 631 44 631 33 699 c 1,18,19
 150 716 150 716 208.5 716 c 128,-1,20
 267 716 267 716 296 713 c 1,21,22
 354 710 354 710 402 679 c 0,23,24
 495 619 495 619 502 500 c 0,25,26
 503 495 503 495 503 490 c 0,27,28
 503 440 503 440 473 393 c 1,29,30
 431 311 431 311 343 306 c 1,31,-1
 338 306 l 1,32,-1
 338 305 l 1,33,34
 348 287 348 287 420 177.5 c 128,-1,35
 492 68 492 68 516 3 c 1,0,-1
241 433 m 128,-1,37
 266 433 266 433 286 436 c 1,38,39
 329 445 329 445 329 502 c 0,40,41
 329 538 329 538 304 556 c 1,42,43
 283 575 283 575 251.5 575 c 128,-1,44
 220 575 220 575 179 559 c 1,45,46
 180 545 180 545 180.5 499 c 128,-1,47
 181 453 181 453 184 436 c 1,48,-1
 185 436 l 1,49,36
 216 433 216 433 241 433 c 128,-1,37
EndSplineSet
EndChar

StartChar: S
Encoding: 83 83 54
Width: 485
GlyphClass: 2
Flags: W
LayerCount: 2
Fore
SplineSet
55 210 m 1,0,-1
 165 207 l 1,1,2
 168 163 168 163 212 148 c 0,3,4
 227 142 227 142 246 142 c 128,-1,5
 265 142 265 142 283 157.5 c 128,-1,6
 301 173 301 173 301 199 c 0,7,8
 301 232 301 232 285 248 c 0,9,10
 265 268 265 268 248 274.5 c 128,-1,11
 231 281 231 281 217 284.5 c 128,-1,12
 203 288 203 288 198 289 c 0,13,14
 161 296 161 296 157 297 c 0,15,16
 122 304 122 304 89 331 c 1,17,18
 22 395 22 395 22 485 c 0,19,20
 22 558 22 558 74 622 c 0,21,22
 108 663 108 663 155 683 c 1,23,24
 198 699 198 699 248 699 c 0,25,26
 318 699 318 699 377 672 c 1,27,28
 428 646 428 646 452 596 c 0,29,30
 468 563 468 563 468 531.5 c 128,-1,31
 468 500 468 500 463 474 c 1,32,-1
 462 474 l 1,33,34
 418 467 418 467 380 467 c 128,-1,35
 342 467 342 467 312 475 c 1,36,37
 314 482 314 482 314 489 c 0,38,39
 314 513 314 513 291.5 529 c 128,-1,40
 269 545 269 545 253 545 c 0,41,42
 180 545 180 545 187 473 c 1,43,44
 199 438 199 438 252 430 c 1,45,46
 305 424 305 424 350 396 c 128,-1,47
 395 368 395 368 425 325 c 1,48,49
 463 276 463 276 463 215 c 128,-1,50
 463 154 463 154 441 110 c 1,51,52
 418 51 418 51 367 23 c 128,-1,53
 316 -5 316 -5 256 -5 c 0,54,55
 193 -5 193 -5 136 19.5 c 128,-1,56
 79 44 79 44 45.5 89.5 c 128,-1,57
 12 135 12 135 12 188 c 0,58,59
 12 194 12 194 12 200 c 2,60,-1
 12 206 l 1,61,62
 18 210 18 210 55 210 c 1,0,-1
EndSplineSet
EndChar

StartChar: T
Encoding: 84 84 55
Width: 443
GlyphClass: 2
Flags: W
LayerCount: 2
Fore
SplineSet
143 9 m 2,0,-1
 144 144 l 1,1,2
 144 336 144 336 136 532 c 1,3,-1
 135 533 l 1,4,5
 117 542 117 542 67.5 543 c 128,-1,6
 18 544 18 544 15 545 c 1,7,8
 9 557 9 557 9 613.5 c 128,-1,9
 9 670 9 670 11 702 c 1,10,-1
 10 704 l 1,11,12
 80 706 80 706 138 706 c 128,-1,13
 196 706 196 706 270 705.5 c 128,-1,14
 344 705 344 705 432 695 c 1,15,16
 434 662 434 662 434 622 c 128,-1,17
 434 582 434 582 428 540 c 1,18,19
 416 542 416 542 386 542 c 128,-1,20
 356 542 356 542 306 540 c 1,21,-1
 303 540 l 1,22,23
 301 536 301 536 301 448 c 128,-1,24
 301 360 301 360 307 8 c 1,25,-1
 307 6 l 1,26,27
 285 2 285 2 237 2 c 1,28,-1
 212 3 l 1,29,30
 164 3 164 3 143 -1 c 1,31,32
 143 0 143 0 143 9 c 2,0,-1
EndSplineSet
EndChar

StartChar: U
Encoding: 85 85 56
Width: 505
GlyphClass: 2
Flags: W
LayerCount: 2
Fore
SplineSet
323 672 m 1,0,-1
 410 679 l 1,1,2
 453 679 453 679 469 669 c 1,3,4
 473 570 473 570 473 436 c 128,-1,5
 473 302 473 302 457 151 c 1,6,7
 448 83 448 83 406 38 c 0,8,9
 355 -16 355 -16 259 -16 c 0,10,11
 146 -16 146 -16 80 49 c 0,12,13
 39 89 39 89 37 147 c 1,14,-1
 42 586 l 1,15,16
 42 678 42 678 40 680 c 1,17,-1
 41 680 l 1,18,-1
 115 682 l 1,19,20
 159 682 159 682 182 675 c 1,21,-1
 182 674 l 1,22,23
 178 588 178 588 178 466 c 128,-1,24
 178 344 178 344 191 183 c 1,25,26
 204 138 204 138 251 138 c 0,27,28
 266 138 266 138 282 146 c 0,29,30
 308 159 308 159 314 188 c 1,31,32
 318 279 318 279 320 449 c 128,-1,33
 322 619 322 619 323 672 c 1,0,-1
EndSplineSet
EndChar

StartChar: V
Encoding: 86 86 57
Width: 440
GlyphClass: 2
Flags: W
LayerCount: 2
Fore
SplineSet
279 1 m 1,0,-1
 216 -3 l 1,1,2
 157 -3 157 -3 133 5 c 1,3,4
 46 319 46 319 16 681 c 1,5,-1
 16 682 l 1,6,7
 28 696 28 696 87.5 696 c 128,-1,8
 147 696 147 696 158 692 c 1,9,10
 161 677 161 677 164 602 c 0,11,12
 171 390 171 390 211 223 c 1,13,14
 239 340 239 340 262.5 491 c 128,-1,15
 286 642 286 642 299 691 c 0,16,17
 299 693 299 693 301 693 c 0,18,19
 325 688 325 688 374 688 c 128,-1,20
 423 688 423 688 445 684 c 1,21,22
 396 423 396 423 279 1 c 1,0,-1
EndSplineSet
EndChar

StartChar: W
Encoding: 87 87 58
Width: 465
GlyphClass: 2
Flags: W
LayerCount: 2
Fore
SplineSet
307 694 m 1,0,1
 335 700 335 700 388.5 700 c 128,-1,2
 442 700 442 700 446 696 c 1,3,4
 437 590 437 590 413.5 359 c 128,-1,5
 390 128 390 128 380 5 c 1,6,7
 374 3 374 3 346 3 c 2,8,-1
 298 3 l 1,9,10
 286 19 286 19 268.5 87 c 128,-1,11
 251 155 251 155 239 173 c 1,12,-1
 238 173 l 1,13,14
 225 160 225 160 209 91 c 128,-1,15
 193 22 193 22 184 7 c 1,16,17
 156 2 156 2 138 2 c 128,-1,18
 120 2 120 2 97 5 c 1,19,-1
 96 5 l 1,20,21
 94 21 94 21 80 116 c 2,22,-1
 63 238 l 2,23,24
 27 493 27 493 23 695 c 1,25,-1
 23 696 l 1,26,27
 56 701 56 701 75 701 c 128,-1,28
 94 701 94 701 166 698 c 1,29,30
 169 664 169 664 169.5 506 c 128,-1,31
 170 348 170 348 187 281 c 1,32,33
 234 453 234 453 234 463 c 1,34,35
 239 459 239 459 261 371.5 c 128,-1,36
 283 284 283 284 289 268 c 1,37,38
 295 326 295 326 298.5 480.5 c 128,-1,39
 302 635 302 635 307 693 c 1,40,-1
 307 694 l 1,0,1
EndSplineSet
EndChar

StartChar: X
Encoding: 88 88 59
Width: 436
GlyphClass: 2
Flags: W
LayerCount: 2
Fore
SplineSet
398 3 m 2,0,-1
 334 1 l 2,1,2
 307 1 307 1 290 5 c 1,3,-1
 289 6 l 1,4,5
 275 36 275 36 256.5 116.5 c 128,-1,6
 238 197 238 197 221 230 c 1,7,-1
 220 231 l 1,8,9
 203 193 203 193 182 114.5 c 128,-1,10
 161 36 161 36 145 2 c 1,11,12
 115 0 115 0 74.5 0 c 128,-1,13
 34 0 34 0 9 9 c 1,14,15
 19 44 19 44 59 164 c 128,-1,16
 99 284 99 284 113 347 c 1,17,18
 93 440 93 440 70.5 501.5 c 128,-1,19
 48 563 48 563 44 574 c 0,20,21
 11 666 11 666 -1 689 c 1,22,23
 56 693 56 693 80 693 c 0,24,25
 110 693 110 693 126.5 693 c 128,-1,26
 143 693 143 693 146 692 c 0,27,28
 150 690 150 690 151 688 c 0,29,30
 205 500 205 500 217 467 c 1,31,32
 231 499 231 499 256.5 591 c 128,-1,33
 282 683 282 683 286 695 c 1,34,-1
 286 696 l 1,35,36
 333 700 333 700 439 700 c 2,37,-1
 440 700 l 1,38,-1
 402 590 l 1,39,40
 346 436 346 436 331 341 c 1,41,42
 342 277 342 277 378.5 158 c 128,-1,43
 415 39 415 39 424 2 c 1,44,45
 415 3 415 3 398 3 c 2,0,-1
EndSplineSet
EndChar

StartChar: Y
Encoding: 89 89 60
Width: 435
GlyphClass: 2
Flags: W
LayerCount: 2
Fore
SplineSet
16 692 m 1,0,-1
 102 698 l 1,1,2
 132 698 132 698 149 690 c 1,3,4
 158 647 158 647 182.5 578.5 c 128,-1,5
 207 510 207 510 226 471 c 1,6,7
 241 498 241 498 269.5 582.5 c 128,-1,8
 298 667 298 667 307 688 c 1,9,10
 341 695 341 695 387.5 695 c 128,-1,11
 434 695 434 695 450 693 c 1,12,-1
 450 692 l 1,13,14
 411 567 411 567 302.5 338.5 c 128,-1,15
 194 110 194 110 156 0 c 1,16,17
 148 1 148 1 131 1 c 2,18,-1
 37 -2 l 2,19,20
 21 -2 21 -2 13 -1 c 1,21,-1
 11 -1 l 1,22,23
 44 102 44 102 142 345 c 1,24,-1
 142 347 l 1,25,26
 128 405 128 405 79 520 c 128,-1,27
 30 635 30 635 16 692 c 1,0,-1
EndSplineSet
EndChar

StartChar: Z
Encoding: 90 90 61
Width: 474
GlyphClass: 2
Flags: W
LayerCount: 2
Fore
SplineSet
454 653 m 2,0,-1
 451 535 l 1,1,-1
 451 534 l 1,2,3
 407 459 407 459 314 326 c 128,-1,4
 221 193 221 193 194 151 c 1,5,-1
 193 150 l 1,6,7
 270 160 270 160 338.5 160.5 c 128,-1,8
 407 161 407 161 445 163 c 1,9,-1
 445 160 l 1,10,11
 448 138 448 138 448 99.5 c 128,-1,12
 448 61 448 61 443 0 c 1,13,-1
 443 -2 l 1,14,15
 331 4 331 4 229 4 c 128,-1,16
 127 4 127 4 34 -1 c 1,17,18
 25 25 25 25 25 71 c 1,19,-1
 26 107 l 2,20,21
 26 137 26 137 25 159 c 1,22,23
 63 245 63 245 138 351 c 0,24,25
 162 386 162 386 209.5 451.5 c 128,-1,26
 257 517 257 517 270 535 c 1,27,28
 172 548 172 548 29 548 c 1,29,30
 21 562 21 562 21 611 c 128,-1,31
 21 660 21 660 15 685 c 1,32,-1
 15 686 l 2,33,34
 15 688 15 688 13 690 c 1,35,36
 86 698 86 698 200 698 c 1,37,-1
 451 694 l 1,38,39
 454 685 454 685 454 653 c 2,0,-1
EndSplineSet
EndChar

StartChar: bracketleft
Encoding: 91 91 62
Width: 321
GlyphClass: 2
Flags: W
LayerCount: 2
Fore
SplineSet
176 457 m 1,0,-1
 184 143 l 1,1,-1
 184 142 l 1,2,3
 206 136 206 136 243.5 134.5 c 128,-1,4
 281 133 281 133 291 132 c 1,5,6
 295 74 295 74 295 45 c 128,-1,7
 295 16 295 16 294 1 c 1,8,-1
 197 0 l 1,9,10
 62 0 62 0 43 -2 c 1,11,-1
 43 2 l 1,12,13
 44 74 44 74 44 139 c 2,14,-1
 43 329 l 1,15,16
 43 558 43 558 53 704 c 1,17,-1
 53 705 l 1,18,19
 77 708 77 708 114 708 c 1,20,-1
 253 704 l 2,21,22
 280 704 280 704 297 706 c 1,23,24
 297 607 297 607 291 588 c 1,25,-1
 288 588 l 2,26,27
 283 588 283 588 277 588 c 2,28,-1
 202 585 l 2,29,30
 190 585 190 585 182 586 c 1,31,-1
 181 586 l 1,32,33
 176 509 176 509 176 457 c 1,0,-1
EndSplineSet
EndChar

StartChar: backslash
Encoding: 92 92 63
Width: 412
GlyphClass: 2
Flags: W
LayerCount: 2
Fore
SplineSet
389 -1 m 1,0,1
 313 1 313 1 291.5 1 c 128,-1,2
 270 1 270 1 264 2 c 1,3,4
 262 4 262 4 261 7 c 2,5,-1
 204 151 l 2,6,7
 174 226 174 226 145.5 314.5 c 128,-1,8
 117 403 117 403 109 426 c 128,-1,9
 101 449 101 449 86 488 c 1,10,11
 54 578 54 578 39 633 c 0,12,13
 22 696 22 696 19 701 c 1,14,15
 34 708 34 708 67 708 c 2,16,-1
 116 707 l 2,17,18
 138 707 138 707 151 709 c 1,19,20
 170 637 170 637 184 597 c 128,-1,21
 198 557 198 557 200.5 551.5 c 128,-1,22
 203 546 203 546 216 503.5 c 128,-1,23
 229 461 229 461 277 332 c 128,-1,24
 325 203 325 203 332 178 c 1,25,26
 347 144 347 144 356 115.5 c 128,-1,27
 365 87 365 87 374 63 c 0,28,29
 392 14 392 14 392 6.5 c 128,-1,30
 392 -1 392 -1 390 -1 c 2,31,-1
 389 -1 l 1,0,1
EndSplineSet
EndChar

StartChar: bracketright
Encoding: 93 93 64
Width: 321
GlyphClass: 2
Flags: W
LayerCount: 2
Fore
SplineSet
68 704 m 2,0,-1
 207 708 l 1,1,2
 244 708 244 708 268 705 c 1,3,-1
 268 704 l 1,4,5
 277 571 277 571 277 352 c 128,-1,6
 277 133 277 133 278 2 c 1,7,-1
 278 -2 l 1,8,9
 259 0 259 0 124 0 c 1,10,-1
 27 1 l 1,11,12
 26 16 26 16 26 45 c 128,-1,13
 26 74 26 74 30 132 c 1,14,15
 40 133 40 133 62 134 c 0,16,17
 115 136 115 136 137 142 c 1,18,-1
 137 143 l 1,19,-1
 145 457 l 1,20,21
 145 509 145 509 140 586 c 1,22,-1
 139 586 l 1,23,24
 131 585 131 585 119 585 c 2,25,-1
 44 588 l 2,26,27
 38 588 38 588 33 588 c 2,28,-1
 30 588 l 1,29,30
 24 607 24 607 24 706 c 1,31,32
 41 704 41 704 68 704 c 2,0,-1
EndSplineSet
EndChar

StartChar: asciicircum
Encoding: 94 94 65
Width: 440
GlyphClass: 2
Flags: W
LayerCount: 2
Fore
SplineSet
408 476.5 m 128,-1,1
 387 473 387 473 366.5 471.5 c 128,-1,2
 346 470 346 470 329 470 c 128,-1,3
 312 470 312 470 283 473 c 0,4,5
 276 473 276 473 250 502 c 128,-1,6
 224 531 224 531 217 535 c 1,7,8
 209 532 209 532 182 503 c 128,-1,9
 155 474 155 474 151.5 473.5 c 128,-1,10
 148 473 148 473 135.5 473 c 128,-1,11
 123 473 123 473 11 478 c 1,12,13
 44 524 44 524 85 564 c 128,-1,14
 126 604 126 604 165 639 c 128,-1,15
 204 674 204 674 220 689 c 1,16,-1
 430 479 l 2,17,0
 429 480 429 480 408 476.5 c 128,-1,1
EndSplineSet
EndChar

StartChar: underscore
Encoding: 95 95 66
Width: 650
GlyphClass: 2
Flags: W
LayerCount: 2
Fore
SplineSet
43 -148 m 1,0,-1
 41 -42 l 1,1,-1
 610 -37 l 1,2,-1
 611 -37 l 1,3,4
 606 -69 606 -69 606 -92 c 2,5,-1
 607 -150 l 1,6,-1
 43 -148 l 1,0,-1
EndSplineSet
EndChar

StartChar: grave
Encoding: 96 96 67
Width: 255
GlyphClass: 2
Flags: W
LayerCount: 2
Fore
SplineSet
249 527 m 1,0,1
 225 521 225 521 181 521 c 128,-1,2
 137 521 137 521 115 523 c 1,3,4
 107 535 107 535 63.5 574 c 128,-1,5
 20 613 20 613 13 620 c 1,6,-1
 82 690 l 1,7,8
 109 669 109 669 172.5 604 c 128,-1,9
 236 539 236 539 249 527 c 1,0,1
EndSplineSet
EndChar

StartChar: a
Encoding: 97 97 68
Width: 476
GlyphClass: 2
Flags: W
LayerCount: 2
Fore
SplineSet
349 2 m 1,0,-1
 306 -1 l 1,1,2
 294 3 294 3 294 16 c 128,-1,3
 294 29 294 29 296 39.5 c 128,-1,4
 298 50 298 50 298 56 c 1,5,6
 273 31 273 31 236.5 14.5 c 128,-1,7
 200 -2 200 -2 166 -2 c 0,8,9
 118 -2 118 -2 83 44 c 0,10,11
 19 128 19 128 19 266 c 0,12,13
 19 365 19 365 67.5 430 c 128,-1,14
 116 495 116 495 187 497 c 0,15,16
 218 497 218 497 232.5 495.5 c 128,-1,17
 247 494 247 494 263.5 483.5 c 128,-1,18
 280 473 280 473 289 451 c 1,19,20
 288 463 288 463 290.5 479.5 c 128,-1,21
 293 496 293 496 293 502 c 0,22,23
 293 503 293 503 341 503 c 1,24,25
 411 500 411 500 439 498 c 1,26,27
 441 482 441 482 441 474 c 2,28,-1
 441 464 l 1,29,30
 440 438 440 438 440 393 c 2,31,-1
 442 159 l 2,32,33
 442 78 442 78 440.5 54.5 c 128,-1,34
 439 31 439 31 439 17 c 128,-1,35
 439 3 439 3 426 -1 c 1,36,-1
 414 -1 l 1,37,-1
 349 2 l 1,0,-1
178 344.5 m 128,-1,39
 154 326 154 326 148 302.5 c 128,-1,40
 142 279 142 279 142 239.5 c 128,-1,41
 142 200 142 200 166 169 c 128,-1,42
 190 138 190 138 231 138 c 0,43,44
 263 138 263 138 280 156 c 0,45,46
 291 168 291 168 292 194 c 128,-1,47
 293 220 293 220 293 238 c 2,48,-1
 293 259 l 2,49,50
 293 335 293 335 285.5 349 c 128,-1,51
 278 363 278 363 240 363 c 128,-1,38
 202 363 202 363 178 344.5 c 128,-1,39
EndSplineSet
EndChar

StartChar: b
Encoding: 98 98 69
Width: 464
GlyphClass: 2
Flags: W
LayerCount: 2
Fore
SplineSet
41 704 m 1,0,1
 61 708 61 708 114 708 c 128,-1,2
 167 708 167 708 167 703 c 2,3,-1
 167 692 l 1,4,-1
 172 607 l 2,5,6
 172 596 172 596 171 570 c 2,7,-1
 170 475 l 1,8,9
 174 494 174 494 241 500 c 0,10,11
 258 502 258 502 290 502 c 128,-1,12
 322 502 322 502 363 487.5 c 128,-1,13
 404 473 404 473 423.5 417 c 128,-1,14
 443 361 443 361 442.5 305.5 c 128,-1,15
 442 250 442 250 440.5 227.5 c 128,-1,16
 439 205 439 205 434.5 173 c 128,-1,17
 430 141 430 141 423 120.5 c 128,-1,18
 416 100 416 100 403.5 77 c 128,-1,19
 391 54 391 54 374 40 c 0,20,21
 327 2 327 2 256 2 c 0,22,23
 204 2 204 2 182 46 c 0,24,25
 178 55 178 55 172 42 c 1,26,-1
 171 9 l 2,27,28
 171 3 171 3 170 2 c 0,29,30
 146 -1 146 -1 113 -1 c 2,31,-1
 35 1 l 1,32,33
 34 44 34 44 34 106 c 2,34,-1
 41 638 l 1,35,-1
 41 704 l 1,0,1
227 386 m 0,36,37
 185 386 185 386 175.5 367.5 c 128,-1,38
 166 349 166 349 166 291 c 128,-1,39
 166 233 166 233 168 211.5 c 128,-1,40
 170 190 170 190 176 168 c 0,41,42
 189 126 189 126 234 126 c 128,-1,43
 279 126 279 126 304 165 c 128,-1,44
 329 204 329 204 329 250 c 128,-1,45
 329 296 329 296 322 315 c 1,46,47
 311 386 311 386 227 386 c 0,36,37
EndSplineSet
EndChar

StartChar: c
Encoding: 99 99 70
Width: 442
GlyphClass: 2
Flags: W
LayerCount: 2
Fore
SplineSet
305 194 m 2,0,-1
 384 196 l 2,1,2
 414 196 414 196 421 192 c 1,3,4
 411 53 411 53 393 35 c 1,5,6
 377 12 377 12 345.5 1 c 128,-1,7
 314 -10 314 -10 298 -11 c 128,-1,8
 282 -12 282 -12 267 -12 c 2,9,-1
 161 -9 l 1,10,11
 110 0 110 0 75 35 c 1,12,13
 50 57 50 57 38 94.5 c 128,-1,14
 26 132 26 132 26 170 c 0,15,16
 26 276 26 276 23 323 c 1,17,18
 23 359 23 359 26.5 381.5 c 128,-1,19
 30 404 30 404 45 454 c 1,20,21
 58 483 58 483 100.5 497.5 c 128,-1,22
 143 512 143 512 173.5 511.5 c 128,-1,23
 204 511 204 511 218 511 c 2,24,-1
 249 512 l 1,25,26
 340 512 340 512 384 469 c 1,27,28
 408 453 408 453 415 412 c 0,29,30
 419 387 419 387 420 369.5 c 128,-1,31
 421 352 421 352 422 344 c 0,32,33
 423 322 423 322 423 289 c 1,34,35
 409 286 409 286 380.5 286 c 128,-1,36
 352 286 352 286 296 294 c 1,37,38
 291 331 291 331 270.5 346 c 128,-1,39
 250 361 250 361 233 361 c 0,40,41
 190 361 190 361 170 336 c 1,42,43
 164 331 164 331 161 312 c 128,-1,44
 158 293 158 293 157 248 c 2,45,-1
 155 181 l 2,46,47
 155 156 155 156 176 142.5 c 128,-1,48
 197 129 197 129 222 129 c 0,49,50
 252 129 252 129 268 140 c 128,-1,51
 284 151 284 151 294 194 c 1,52,53
 297 194 297 194 305 194 c 2,0,-1
EndSplineSet
EndChar

StartChar: d
Encoding: 100 100 71
Width: 463
GlyphClass: 2
Flags: W
LayerCount: 2
Fore
SplineSet
292 607 m 2,0,-1
 297 692 l 1,1,-1
 297 703 l 2,2,3
 297 708 297 708 350 708 c 128,-1,4
 403 708 403 708 423 704 c 1,5,-1
 423 638 l 1,6,7
 423 638 423 638 430 106 c 0,8,9
 430 44 430 44 429 1 c 1,10,-1
 351 -1 l 2,11,12
 318 -1 318 -1 294 2 c 0,13,14
 293 3 293 3 293 9 c 2,15,-1
 292 42 l 1,16,17
 286 55 286 55 282 46 c 0,18,19
 260 2 260 2 208 2 c 0,20,21
 199 2 199 2 189 3 c 0,22,23
 145 6 145 6 114 24.5 c 128,-1,24
 83 43 83 43 65.5 67.5 c 128,-1,25
 48 92 48 92 38 132 c 0,26,27
 23 192 23 192 22 277 c 0,28,29
 20 459 20 459 102 488 c 0,30,31
 142 502 142 502 174 502 c 0,32,33
 288 502 288 502 294 475 c 1,34,-1
 292 578 l 2,35,36
 292 596 292 596 292 607 c 2,0,-1
142 315 m 1,37,38
 135 296 135 296 135 250 c 128,-1,39
 135 204 135 204 160 165 c 128,-1,40
 185 126 185 126 228.5 126 c 128,-1,41
 272 126 272 126 285 160.5 c 128,-1,42
 298 195 298 195 298 272 c 128,-1,43
 298 349 298 349 288.5 367.5 c 128,-1,44
 279 386 279 386 237 386 c 0,45,46
 153 386 153 386 142 315 c 1,37,38
EndSplineSet
EndChar

StartChar: e
Encoding: 101 101 72
Width: 444
GlyphClass: 2
Flags: W
LayerCount: 2
Fore
SplineSet
255 -13 m 2,0,-1
 164 -10 l 1,1,2
 136 -6 136 -6 112 8 c 1,3,4
 62 43 62 43 41 113.5 c 128,-1,5
 20 184 20 184 20 258 c 0,6,7
 20 271 20 271 21 284 c 0,8,9
 29 385 29 385 43 423 c 1,10,11
 68 480 68 480 142 503 c 0,12,13
 182 516 182 516 219 516 c 128,-1,14
 256 516 256 516 290 507 c 1,15,16
 426 484 426 484 426 300 c 0,17,18
 426 280 426 280 424 259 c 1,19,20
 402 253 402 253 327.5 250 c 128,-1,21
 253 247 253 247 214.5 247 c 128,-1,22
 176 247 176 247 156 251 c 1,23,-1
 156 220 l 1,24,-1
 157 198 l 2,25,26
 157 191 157 191 157.5 188.5 c 128,-1,27
 158 186 158 186 159 180 c 128,-1,28
 160 174 160 174 161 171 c 0,29,30
 178 119 178 119 218 106 c 0,31,32
 227 104 227 104 241.5 104 c 128,-1,33
 256 104 256 104 276 122 c 128,-1,34
 296 140 296 140 296 185 c 0,35,36
 296 188 296 188 296 192 c 1,37,38
 299 192 299 192 307 192 c 2,39,-1
 385 194 l 2,40,41
 414 194 414 194 422 190 c 1,42,43
 412 49 412 49 394 34 c 1,44,45
 367 -3 367 -3 314 -9 c 0,46,47
 281 -13 281 -13 255 -13 c 2,0,-1
253 329 m 2,48,-1
 307 327 l 2,49,50
 312 327 312 327 314 328 c 128,-1,51
 316 329 316 329 316 334 c 2,52,-1
 316 341 l 2,53,54
 316 386 316 386 277 406 c 1,55,56
 261 416 261 416 230 416 c 0,57,58
 167 416 167 416 159 351 c 0,59,60
 158 345 158 345 158 338.5 c 128,-1,61
 158 332 158 332 162.5 330.5 c 128,-1,62
 167 329 167 329 208.5 329 c 128,-1,63
 250 329 250 329 253 329 c 2,48,-1
EndSplineSet
EndChar

StartChar: f
Encoding: 102 102 73
Width: 379
GlyphClass: 2
Flags: W
LayerCount: 2
Fore
SplineSet
373 473 m 1,0,1
 372 471 372 471 372 435.5 c 128,-1,2
 372 400 372 400 367 348 c 1,3,4
 242 355 242 355 216 356 c 1,5,-1
 216 4 l 1,6,7
 207 5 207 5 193 5 c 2,8,-1
 101 0 l 2,9,10
 93 0 93 0 87 1 c 1,11,12
 82 26 82 26 82 131 c 1,13,-1
 85 355 l 1,14,15
 41 355 41 355 14 354 c 1,16,-1
 11 476 l 1,17,18
 62 476 62 476 83 475 c 1,19,20
 82 486 82 486 82 497 c 0,21,22
 82 547 82 547 102 593 c 1,23,24
 125 649 125 649 184.5 669 c 128,-1,25
 244 689 244 689 331 689 c 0,26,27
 352 689 352 689 374 688 c 1,28,29
 380 669 380 669 380 635.5 c 128,-1,30
 380 602 380 602 374 553 c 1,31,32
 372 553 372 553 357 553 c 128,-1,33
 342 553 342 553 249 541 c 0,34,35
 217 536 217 536 217 499 c 0,36,37
 217 487 217 487 220 473 c 1,38,-1
 373 473 l 1,0,1
EndSplineSet
EndChar

StartChar: g
Encoding: 103 103 74
Width: 467
GlyphClass: 2
Flags: W
LayerCount: 2
Fore
SplineSet
135 237 m 2,0,-1
 135 228 l 2,1,2
 135 177 135 177 165 141 c 0,3,4
 188 112 188 112 236 112 c 0,5,6
 275 112 275 112 286 134 c 1,7,8
 294 147 294 147 298 179 c 1,9,10
 298 289 298 289 285 340 c 1,11,12
 271 375 271 375 225 375 c 0,13,14
 196 375 196 375 177 357 c 1,15,16
 144 319 144 319 137 276 c 0,17,18
 135 267 135 267 135 237 c 2,0,-1
351 501 m 2,19,-1
 429 499 l 1,20,21
 433 356 433 356 433 220 c 128,-1,22
 433 84 433 84 430.5 16.5 c 128,-1,23
 428 -51 428 -51 428 -66 c 2,24,-1
 428 -91 l 2,25,26
 428 -117 428 -117 419 -130 c 0,27,28
 374 -201 374 -201 290 -201 c 2,29,-1
 205 -200 l 1,30,31
 112 -200 112 -200 61 -126 c 1,32,33
 44 -95 44 -95 44 -52 c 0,34,35
 44 -47 44 -47 45 -42 c 1,36,37
 70 -35 70 -35 105 -35 c 128,-1,38
 140 -35 140 -35 173 -41 c 1,39,40
 173 -74 173 -74 200 -91 c 0,41,42
 215 -101 215 -101 229 -101 c 0,43,44
 280 -101 280 -101 292 -50 c 1,45,46
 294 -25 294 -25 294 -16 c 2,47,-1
 293 6 l 2,48,49
 293 15 293 15 294 24 c 1,50,51
 276 4 276 4 242 1 c 0,52,53
 231 0 231 0 209 -0.5 c 128,-1,54
 187 -1 187 -1 180 -2 c 1,55,56
 80 -2 80 -2 50 61 c 1,57,58
 27 104 27 104 22 178 c 1,59,-1
 22 222 l 2,60,61
 22 283 22 283 26 306 c 128,-1,62
 30 329 30 329 35.5 358 c 128,-1,63
 41 387 41 387 49 401.5 c 128,-1,64
 57 416 57 416 70 436.5 c 128,-1,65
 83 457 83 457 99 468 c 0,66,67
 145 497 145 497 206 497 c 128,-1,68
 267 497 267 497 288 450 c 1,69,70
 292 448 292 448 292.5 453 c 128,-1,71
 293 458 293 458 292 475 c 128,-1,72
 291 492 291 492 294 498 c 1,73,74
 321 501 321 501 351 501 c 2,19,-1
EndSplineSet
EndChar

StartChar: h
Encoding: 104 104 75
Width: 448
GlyphClass: 2
Flags: W
LayerCount: 2
Fore
SplineSet
106 723 m 1,0,-1
 153 728 l 2,1,2
 162 728 162 728 166 724 c 1,3,4
 167 719 167 719 167 446 c 1,5,6
 187 457 187 457 192 461 c 0,7,8
 239 496 239 496 296 496 c 128,-1,9
 353 496 353 496 393 464 c 1,10,11
 412 447 412 447 415 366 c 0,12,13
 416 329 416 329 416 283 c 2,14,-1
 413 61 l 2,15,16
 413 24 413 24 414 2 c 1,17,18
 387 -2 387 -2 289 -2 c 1,19,20
 287 28 287 28 287 109.5 c 128,-1,21
 287 191 287 191 286 212.5 c 128,-1,22
 285 234 285 234 284 244.5 c 128,-1,23
 283 255 283 255 282.5 261 c 128,-1,24
 282 267 282 267 280.5 277 c 128,-1,25
 279 287 279 287 277.5 293 c 128,-1,26
 276 299 276 299 274 306 c 0,27,28
 263 337 263 337 221 337 c 0,29,30
 202 337 202 337 182.5 322.5 c 128,-1,31
 163 308 163 308 161 275 c 0,32,33
 160 262 160 262 160 243 c 2,34,-1
 164 77 l 1,35,36
 164 29 164 29 160 7 c 1,37,-1
 160 3 l 1,38,39
 151 -3 151 -3 121 -3 c 2,40,-1
 66 -2 l 2,41,42
 48 -2 48 -2 36 -3 c 1,43,-1
 34 506 l 2,44,45
 34 645 34 645 36 723 c 1,46,47
 54 722 54 722 71 722 c 2,48,-1
 106 723 l 1,0,-1
EndSplineSet
EndChar

StartChar: i
Encoding: 105 105 76
Width: 207
GlyphClass: 2
Flags: W
LayerCount: 2
Fore
SplineSet
39 506 m 1,0,-1
 67 505 l 2,1,2
 104 503 104 503 126 503 c 128,-1,3
 148 503 148 503 158 503 c 2,4,-1
 175 503 l 1,5,-1
 175 500 l 1,6,-1
 170 170 l 2,7,8
 170 119 170 119 174 6 c 1,9,10
 173 -1 173 -1 128 -1 c 2,11,-1
 43 0 l 2,12,13
 35 0 35 0 33 0 c 1,14,15
 37 49 37 49 37 131 c 1,16,-1
 34 363 l 1,17,18
 34 457 34 457 39 505 c 1,19,-1
 39 506 l 1,0,-1
174 590 m 1,20,21
 168 581 168 581 132 581 c 2,22,-1
 53 583 l 2,23,24
 45 583 45 583 39 583 c 1,25,-1
 35 701 l 2,26,27
 35 711 35 711 35 721 c 1,28,-1
 171 718 l 1,29,-1
 174 590 l 1,20,21
EndSplineSet
EndChar

StartChar: j
Encoding: 106 106 77
Width: 204
GlyphClass: 2
Flags: W
LayerCount: 2
Fore
SplineSet
169 263 m 2,0,-1
 170 114 l 2,1,2
 170 0 170 0 154 -99 c 1,3,4
 116 -188 116 -188 -76 -188 c 0,5,6
 -97 -188 -97 -188 -120 -187 c 1,7,8
 -126 -168 -126 -168 -126 -134 c 128,-1,9
 -126 -100 -126 -100 -120 -52 c 1,10,11
 -109 -53 -109 -53 -87 -53 c 128,-1,12
 -65 -53 -65 -53 -24 -45 c 128,-1,13
 17 -37 17 -37 34 -12 c 1,14,15
 35 35 35 35 35 170 c 128,-1,16
 35 305 35 305 38 363 c 1,17,-1
 38 497 l 1,18,19
 47 496 47 496 61 496 c 2,20,-1
 153 501 l 2,21,22
 161 501 161 501 167 500 c 1,23,24
 170 478 170 478 170 430 c 2,25,-1
 168 302 l 2,26,27
 168 274 168 274 169 263 c 2,0,-1
168 590 m 1,28,29
 162 581 162 581 128 581 c 2,30,-1
 50 583 l 2,31,32
 42 583 42 583 36 583 c 1,33,-1
 32 701 l 2,34,35
 32 711 32 711 32 721 c 1,36,-1
 165 718 l 1,37,-1
 168 590 l 1,28,29
EndSplineSet
EndChar

StartChar: k
Encoding: 107 107 78
Width: 435
GlyphClass: 2
Flags: W
LayerCount: 2
Fore
SplineSet
38 726 m 1,0,-1
 135 728 l 2,1,2
 159 728 159 728 174 726 c 1,3,-1
 174 507 l 1,4,-1
 172 412 l 2,5,6
 172 391 172 391 174 377 c 1,7,8
 199 399 199 399 229.5 450 c 128,-1,9
 260 501 260 501 276 520 c 1,10,11
 280 514 280 514 319 514 c 1,12,-1
 426 517 l 2,13,14
 432 517 432 517 434 517 c 1,15,16
 402 468 402 468 269 293 c 1,17,18
 283 271 283 271 313 223 c 2,19,-1
 360 147 l 2,20,21
 405 75 405 75 443 0 c 1,22,-1
 330 -4 l 1,23,24
 300 -4 300 -4 282 0 c 1,25,26
 267 24 267 24 233.5 92 c 128,-1,27
 200 160 200 160 174 193 c 1,28,-1
 176 90 l 1,29,30
 176 33 176 33 170 0 c 1,31,32
 166 0 166 0 157 0 c 2,33,-1
 73 -2 l 2,34,35
 50 -2 50 -2 38 0 c 1,36,37
 34 37 34 37 34 187 c 1,38,-1
 38 726 l 1,0,-1
EndSplineSet
EndChar

StartChar: l
Encoding: 108 108 79
Width: 206
GlyphClass: 2
Flags: W
LayerCount: 2
Fore
SplineSet
175 724 m 1,0,-1
 170 205 l 2,1,2
 170 114 170 114 174 6 c 1,3,4
 173 -1 173 -1 128 -1 c 2,5,-1
 43 0 l 2,6,7
 35 0 35 0 33 0 c 1,8,9
 38 61 38 61 38 159 c 1,10,-1
 31 533 l 1,11,12
 31 655 31 655 39 727 c 1,13,-1
 175 724 l 1,0,-1
EndSplineSet
EndChar

StartChar: m
Encoding: 109 109 80
Width: 684
GlyphClass: 2
Flags: W
LayerCount: 2
Fore
SplineSet
106 498 m 1,0,-1
 153 503 l 2,1,2
 162 503 162 503 166 499 c 1,3,4
 168 486 168 486 168 468 c 2,5,-1
 168 446 l 1,6,7
 188 457 188 457 193 461 c 0,8,9
 240 496 240 496 297 496 c 128,-1,10
 354 496 354 496 394 464 c 0,11,12
 400 458 400 458 404 447 c 1,13,14
 426 460 426 460 428 461 c 0,15,16
 475 496 475 496 532 496 c 128,-1,17
 589 496 589 496 629 464 c 1,18,19
 648 447 648 447 651 366 c 0,20,21
 652 329 652 329 652 283 c 2,22,-1
 649 61 l 2,23,24
 649 24 649 24 650 2 c 1,25,26
 623 -2 623 -2 525 -2 c 1,27,28
 523 28 523 28 523 109.5 c 128,-1,29
 523 191 523 191 522 212.5 c 128,-1,30
 521 234 521 234 520 244.5 c 128,-1,31
 519 255 519 255 518.5 261 c 128,-1,32
 518 267 518 267 516.5 277 c 128,-1,33
 515 287 515 287 513.5 293 c 128,-1,34
 512 299 512 299 510 306 c 0,35,36
 499 337 499 337 459 337 c 0,37,38
 437 337 437 337 417 322 c 1,39,40
 417 310 417 310 417 293 c 2,41,-1
 414 62 l 2,42,43
 414 23 414 23 415 2 c 1,44,45
 388 -2 388 -2 290 -2 c 1,46,47
 288 28 288 28 288 109.5 c 128,-1,48
 288 191 288 191 287 212.5 c 128,-1,49
 286 234 286 234 285 244.5 c 128,-1,50
 284 255 284 255 283.5 261 c 128,-1,51
 283 267 283 267 281.5 277 c 128,-1,52
 280 287 280 287 278.5 293 c 128,-1,53
 277 299 277 299 274 306 c 0,54,55
 264 337 264 337 222 337 c 0,56,57
 203 337 203 337 183.5 322.5 c 128,-1,58
 164 308 164 308 162 275 c 0,59,60
 161 262 161 262 161 243 c 2,61,-1
 165 77 l 1,62,63
 165 29 165 29 161 7 c 1,64,-1
 161 3 l 1,65,66
 152 -3 152 -3 122 -3 c 2,67,-1
 67 -2 l 2,68,69
 50 -2 50 -2 37 -3 c 1,70,-1
 34 387 l 2,71,72
 34 480 34 480 36 498 c 1,73,74
 54 496 54 496 71 496 c 2,75,-1
 106 498 l 1,0,-1
EndSplineSet
EndChar

StartChar: n
Encoding: 110 110 81
Width: 450
GlyphClass: 2
Flags: W
LayerCount: 2
Fore
SplineSet
107 498 m 1,0,-1
 154 503 l 2,1,2
 163 503 163 503 167 499 c 1,3,4
 169 486 169 486 169 468 c 2,5,-1
 169 446 l 1,6,7
 189 457 189 457 194 461 c 0,8,9
 241 496 241 496 298 496 c 128,-1,10
 355 496 355 496 395 464 c 1,11,12
 414 447 414 447 417 366 c 0,13,14
 418 329 418 329 418 283 c 2,15,-1
 415 61 l 2,16,17
 415 24 415 24 416 2 c 1,18,19
 389 -2 389 -2 291 -2 c 1,20,21
 289 28 289 28 289 109.5 c 128,-1,22
 289 191 289 191 288 212.5 c 128,-1,23
 287 234 287 234 286 244.5 c 128,-1,24
 285 255 285 255 284.5 261 c 128,-1,25
 284 267 284 267 282.5 277 c 128,-1,26
 281 287 281 287 279.5 293 c 128,-1,27
 278 299 278 299 276 306 c 0,28,29
 265 337 265 337 223 337 c 0,30,31
 204 337 204 337 184.5 322.5 c 128,-1,32
 165 308 165 308 163 275 c 0,33,34
 162 262 162 262 162 243 c 2,35,-1
 166 77 l 1,36,37
 166 29 166 29 162 7 c 1,38,-1
 162 3 l 1,39,40
 153 -3 153 -3 123 -3 c 2,41,-1
 68 -2 l 2,42,43
 50 -2 50 -2 38 -3 c 1,44,-1
 35 387 l 2,45,46
 35 480 35 480 37 498 c 1,47,48
 54 496 54 496 72 496 c 1,49,-1
 107 498 l 1,0,-1
EndSplineSet
EndChar

StartChar: o
Encoding: 111 111 82
Width: 448
GlyphClass: 2
Flags: W
LayerCount: 2
Fore
SplineSet
267 -10 m 2,0,-1
 161 -7 l 1,1,2
 110 2 110 2 75 37 c 1,3,4
 50 59 50 59 38 96.5 c 128,-1,5
 26 134 26 134 25.5 172 c 128,-1,6
 25 210 25 210 25 252 c 128,-1,7
 25 294 25 294 24.5 330 c 128,-1,8
 24 366 24 366 26.5 385 c 128,-1,9
 29 404 29 404 32 415 c 128,-1,10
 35 426 35 426 39.5 438.5 c 128,-1,11
 44 451 44 451 45 456 c 1,12,13
 58 485 58 485 100.5 499.5 c 128,-1,14
 143 514 143 514 173.5 513.5 c 128,-1,15
 204 513 204 513 218 513 c 2,16,-1
 249 514 l 1,17,18
 339 514 339 514 384 470 c 1,19,20
 419 447 419 447 424 290 c 0,21,22
 425 278 425 278 425 272 c 0,23,24
 418 94 418 94 403 54 c 0,25,26
 398 42 398 42 393 37 c 1,27,28
 377 14 377 14 345.5 3 c 128,-1,29
 314 -8 314 -8 298 -9 c 128,-1,30
 282 -10 282 -10 267 -10 c 2,0,-1
221 132 m 0,31,32
 282 132 282 132 293 176 c 1,33,34
 299 229 299 229 299 258 c 128,-1,35
 299 287 299 287 296 302 c 0,36,37
 291 338 291 338 267 354 c 0,38,39
 252 363 252 363 235 363 c 128,-1,40
 218 363 218 363 200.5 358.5 c 128,-1,41
 183 354 183 354 170 338 c 1,42,43
 164 333 164 333 161 313.5 c 128,-1,44
 158 294 158 294 157 250 c 2,45,-1
 155 186 l 2,46,47
 155 159 155 159 175.5 145.5 c 128,-1,48
 196 132 196 132 221 132 c 0,31,32
EndSplineSet
EndChar

StartChar: p
Encoding: 112 112 83
Width: 464
GlyphClass: 2
Flags: W
LayerCount: 2
Fore
SplineSet
172 -107 m 2,0,-1
 167 -192 l 1,1,-1
 167 -203 l 2,2,3
 167 -208 167 -208 114 -208 c 128,-1,4
 61 -208 61 -208 41 -204 c 1,5,-1
 41 -138 l 1,6,7
 41 -138 41 -138 34 394 c 0,8,9
 34 456 34 456 35 499 c 1,10,-1
 113 501 l 2,11,12
 146 501 146 501 170 498 c 0,13,14
 171 497 171 497 171 491 c 2,15,-1
 172 458 l 1,16,17
 178 445 178 445 182 454 c 0,18,19
 204 498 204 498 256 498 c 0,20,21
 265 498 265 498 286 496.5 c 128,-1,22
 307 495 307 495 332 484.5 c 128,-1,23
 357 474 357 474 374 460 c 128,-1,24
 391 446 391 446 403.5 423 c 128,-1,25
 416 400 416 400 423 379.5 c 128,-1,26
 430 359 430 359 434 327 c 0,27,28
 441 280 441 280 443 215 c 1,29,30
 443 139 443 139 423.5 83 c 128,-1,31
 404 27 404 27 363 12.5 c 128,-1,32
 322 -2 322 -2 290 -2 c 0,33,34
 176 -2 176 -2 170 25 c 1,35,36
 170 25 170 25 172 -78 c 0,37,38
 172 -96 172 -96 172 -107 c 2,0,-1
322 185 m 1,39,40
 329 204 329 204 329 250 c 128,-1,41
 329 296 329 296 304 335 c 128,-1,42
 279 374 279 374 235.5 374 c 128,-1,43
 192 374 192 374 179 339.5 c 128,-1,44
 166 305 166 305 166 228 c 128,-1,45
 166 151 166 151 175.5 132.5 c 128,-1,46
 185 114 185 114 227 114 c 0,47,48
 311 114 311 114 322 185 c 1,39,40
EndSplineSet
EndChar

StartChar: q
Encoding: 113 113 84
Width: 463
GlyphClass: 2
Flags: W
LayerCount: 2
Fore
SplineSet
423 -204 m 1,0,1
 403 -208 403 -208 350 -208 c 128,-1,2
 297 -208 297 -208 297 -203 c 2,3,-1
 297 -192 l 1,4,-1
 292 -107 l 2,5,6
 292 -96 292 -96 293 -70 c 2,7,-1
 294 25 l 1,8,9
 290 6 290 6 223 0 c 0,10,11
 206 -2 206 -2 174 -2 c 128,-1,12
 142 -2 142 -2 101 12.5 c 128,-1,13
 60 27 60 27 40.5 83 c 128,-1,14
 21 139 21 139 21.5 201 c 128,-1,15
 22 263 22 263 25 295.5 c 128,-1,16
 28 328 28 328 38 368 c 128,-1,17
 48 408 48 408 65.5 432.5 c 128,-1,18
 83 457 83 457 114 475.5 c 128,-1,19
 145 494 145 494 189 497 c 0,20,21
 199 498 199 498 208 498 c 0,22,23
 260 498 260 498 282 454 c 0,24,25
 286 445 286 445 292 458 c 1,26,-1
 293 491 l 2,27,28
 293 497 293 497 294 498 c 0,29,30
 318 501 318 501 351 501 c 2,31,-1
 429 499 l 1,32,33
 430 456 430 456 430 394 c 2,34,-1
 423 -138 l 1,35,-1
 423 -204 l 1,0,1
237 114 m 0,36,37
 279 114 279 114 288.5 132.5 c 128,-1,38
 298 151 298 151 298 209 c 128,-1,39
 298 267 298 267 296 288.5 c 128,-1,40
 294 310 294 310 288 332 c 0,41,42
 275 374 275 374 230 374 c 128,-1,43
 185 374 185 374 160 335 c 128,-1,44
 135 296 135 296 135 250 c 128,-1,45
 135 204 135 204 142 185 c 1,46,47
 153 114 153 114 237 114 c 0,36,37
EndSplineSet
EndChar

StartChar: r
Encoding: 114 114 85
Width: 368
GlyphClass: 2
Flags: W
LayerCount: 2
Fore
SplineSet
107 498 m 1,0,-1
 161 502 l 2,1,2
 169 502 169 502 172 499 c 1,3,4
 172 488 172 488 172.5 481 c 128,-1,5
 173 474 173 474 173 465 c 1,6,7
 180 469 180 469 220 484 c 1,8,9
 268 499 268 499 309 499 c 128,-1,10
 350 499 350 499 358 497 c 1,11,-1
 358 321 l 1,12,13
 307 338 307 338 290 338 c 1,14,15
 268 341 268 341 242.5 341 c 128,-1,16
 217 341 217 341 197 332 c 1,17,18
 168 321 168 321 168 275 c 0,19,20
 168 272 168 272 170 209 c 128,-1,21
 172 146 172 146 172 7 c 2,22,-1
 172 3 l 1,23,24
 163 -3 163 -3 130 -3 c 2,25,-1
 68 -2 l 2,26,27
 50 -2 50 -2 38 -3 c 1,28,-1
 35 387 l 2,29,30
 35 480 35 480 37 498 c 1,31,32
 54 496 54 496 72 496 c 1,33,-1
 107 498 l 1,0,-1
EndSplineSet
EndChar

StartChar: s
Encoding: 115 115 86
Width: 450
GlyphClass: 2
Flags: W
LayerCount: 2
Fore
SplineSet
75 160 m 2,0,-1
 159 158 l 1,1,2
 160 129 160 129 192 112 c 0,3,4
 212 102 212 102 227 102 c 0,5,6
 285 102 285 102 284 152 c 1,7,8
 285 156 285 156 285 166.5 c 128,-1,9
 285 177 285 177 271.5 189.5 c 128,-1,10
 258 202 258 202 238 206 c 0,11,12
 156 222 156 222 127 235 c 1,13,14
 73 253 73 253 47 293 c 128,-1,15
 21 333 21 333 21 373 c 0,16,17
 21 418 21 418 49.5 457.5 c 128,-1,18
 78 497 78 497 119.5 508.5 c 128,-1,19
 161 520 161 520 224 520 c 0,20,21
 295 520 295 520 349 507 c 1,22,23
 436 470 436 470 436 346 c 1,24,25
 396 340 396 340 360.5 340 c 128,-1,26
 325 340 325 340 293 346 c 1,27,28
 294 351 294 351 294 356 c 0,29,30
 294 375 294 375 273.5 391.5 c 128,-1,31
 253 408 253 408 229 408 c 0,32,33
 227 408 227 408 224 408 c 0,34,35
 195 403 195 403 184 382 c 0,36,37
 178 372 178 372 178 361 c 128,-1,38
 178 350 178 350 184 338 c 0,39,40
 195 316 195 316 225 305 c 1,41,42
 368 284 368 284 402 240 c 1,43,44
 428 197 428 197 428 154.5 c 128,-1,45
 428 112 428 112 415 74 c 1,46,47
 372 -16 372 -16 242 -16 c 0,48,49
 239 -16 239 -16 233.5 -16 c 128,-1,50
 228 -16 228 -16 220 -16 c 0,51,52
 130 -16 130 -16 70.5 28 c 128,-1,53
 11 72 11 72 11 152 c 2,54,-1
 11 157 l 1,55,56
 38 160 38 160 75 160 c 2,0,-1
EndSplineSet
EndChar

StartChar: t
Encoding: 116 116 87
Width: 387
GlyphClass: 2
Flags: W
LayerCount: 2
Fore
SplineSet
100 688 m 2,0,-1
 192 683 l 2,1,2
 206 683 206 683 215 684 c 1,3,-1
 215 550 l 1,4,-1
 216 494 l 1,5,6
 242 495 242 495 367 502 c 1,7,8
 376 492 376 492 376 462 c 1,9,-1
 372 392 l 2,10,11
 372 383 372 383 373 377 c 1,12,-1
 218 377 l 1,13,14
 218 235 218 235 219 175 c 1,15,16
 236 150 236 150 277 142 c 128,-1,17
 318 134 318 134 340 134 c 128,-1,18
 362 134 362 134 373 135 c 1,19,20
 380 86 380 86 380 52.5 c 128,-1,21
 380 19 380 19 373 0 c 1,22,23
 350 -1 350 -1 328 -1 c 0,24,25
 137 -1 137 -1 99 88 c 1,26,27
 83 185 83 185 83 340 c 0,28,29
 83 357 83 357 83 375 c 1,30,31
 62 374 62 374 11 374 c 1,32,-1
 14 496 l 1,33,34
 41 495 41 495 85 495 c 1,35,-1
 83 609 l 2,36,37
 83 658 83 658 86 687 c 1,38,39
 92 688 92 688 100 688 c 2,0,-1
EndSplineSet
EndChar

StartChar: u
Encoding: 117 117 88
Width: 450
GlyphClass: 2
Flags: W
LayerCount: 2
Fore
SplineSet
343 2 m 1,0,-1
 296 -3 l 2,1,2
 287 -3 287 -3 283 1 c 1,3,4
 281 14 281 14 281 32 c 2,5,-1
 281 54 l 1,6,7
 261 43 261 43 256 39 c 0,8,9
 209 4 209 4 152 4 c 128,-1,10
 95 4 95 4 55 36 c 1,11,12
 36 53 36 53 33 134 c 0,13,14
 32 171 32 171 32 217 c 2,15,-1
 35 439 l 2,16,17
 35 476 35 476 34 498 c 1,18,19
 61 502 61 502 159 502 c 1,20,21
 161 472 161 472 161 390.5 c 128,-1,22
 161 309 161 309 162 287.5 c 128,-1,23
 163 266 163 266 164 255.5 c 128,-1,24
 165 245 165 245 165.5 239 c 128,-1,25
 166 233 166 233 167.5 223 c 128,-1,26
 169 213 169 213 170.5 207 c 128,-1,27
 172 201 172 201 174 194 c 0,28,29
 185 163 185 163 227 163 c 0,30,31
 246 163 246 163 265.5 177.5 c 128,-1,32
 285 192 285 192 287 225 c 0,33,34
 288 236 288 236 288 253 c 2,35,-1
 283 424 l 1,36,37
 283 472 283 472 288 493 c 1,38,-1
 288 497 l 1,39,40
 297 503 297 503 327 503 c 2,41,-1
 382 502 l 2,42,43
 400 502 400 502 412 503 c 1,44,-1
 415 113 l 2,45,46
 415 20 415 20 413 2 c 1,47,48
 396 4 396 4 378 4 c 1,49,-1
 343 2 l 1,0,-1
EndSplineSet
EndChar

StartChar: v
Encoding: 118 118 89
Width: 429
GlyphClass: 2
Flags: W
LayerCount: 2
Fore
SplineSet
294 496 m 1,0,-1
 397 500 l 2,1,2
 414 500 414 500 428 499 c 1,3,4
 396 411 396 411 355.5 228 c 128,-1,5
 315 45 315 45 303 -1 c 1,6,7
 276 -6 276 -6 229 -6 c 1,8,-1
 115 -3 l 1,9,10
 66 298 66 298 11 500 c 1,11,12
 27 498 27 498 53 498 c 2,13,-1
 111 499 l 2,14,15
 137 499 137 499 150 497 c 1,16,17
 156 465 156 465 168 390 c 0,18,19
 197 205 197 205 216 155 c 1,20,21
 230 193 230 193 253.5 323.5 c 128,-1,22
 277 454 277 454 294 496 c 1,0,-1
EndSplineSet
EndChar

StartChar: w
Encoding: 119 119 90
Width: 683
GlyphClass: 2
Flags: W
LayerCount: 2
Fore
SplineSet
54 498 m 2,0,-1
 112 499 l 2,1,2
 138 499 138 499 151 497 c 1,3,4
 157 465 157 465 168 390 c 0,5,6
 196 209 196 209 216 155 c 1,7,8
 238 220 238 220 245 254 c 0,9,10
 264 348 264 348 282 430 c 1,11,-1
 295 500 l 1,12,13
 305 499 305 499 316 499 c 2,14,-1
 378 502 l 2,15,16
 396 502 396 502 406 499 c 1,17,18
 408 488 408 488 430.5 345.5 c 128,-1,19
 453 203 453 203 470 155 c 1,20,21
 487 197 487 197 514 332.5 c 128,-1,22
 541 468 541 468 552 496 c 1,23,-1
 652 500 l 2,24,25
 668 500 668 500 682 499 c 1,26,27
 650 411 650 411 609.5 228 c 128,-1,28
 569 45 569 45 557 -1 c 1,29,30
 530 -6 530 -6 488 -6 c 1,31,-1
 381 -3 l 1,32,33
 344 219 344 219 342 229 c 1,34,35
 335 197 335 197 324 117.5 c 128,-1,36
 313 38 313 38 303 -1 c 1,37,38
 276 -6 276 -6 229 -6 c 1,39,-1
 115 -3 l 1,40,41
 66 298 66 298 11 500 c 1,42,43
 27 498 27 498 54 498 c 2,0,-1
EndSplineSet
EndChar

StartChar: x
Encoding: 120 120 91
Width: 413
GlyphClass: 2
Flags: W
LayerCount: 2
Fore
SplineSet
154 -1 m 1,0,-1
 81 -2 l 2,1,2
 24 -2 24 -2 9 4 c 1,3,4
 17 34 17 34 46.5 119.5 c 128,-1,5
 76 205 76 205 86 247 c 1,6,7
 74 306 74 306 60 344 c 128,-1,8
 46 382 46 382 41 396 c 128,-1,9
 36 410 36 410 20 450.5 c 128,-1,10
 4 491 4 491 2 497 c 1,11,12
 47 500 47 500 101 500 c 128,-1,13
 155 500 155 500 158 497 c 1,14,15
 204 330 204 330 205 327 c 1,16,17
 214 348 214 348 231.5 416.5 c 128,-1,18
 249 485 249 485 253 498 c 1,19,20
 277 501 277 501 412 501 c 2,21,-1
 413 501 l 1,22,23
 413 499 413 499 388 435 c 1,24,25
 342 311 342 311 330 246 c 1,26,27
 338 201 338 201 366 115.5 c 128,-1,28
 394 30 394 30 401 0 c 1,29,30
 394 1 394 1 383 1 c 2,31,-1
 334 0 l 1,32,33
 265 0 265 0 256 3 c 1,34,-1
 255 3 l 1,35,36
 244 26 244 26 231 82 c 128,-1,37
 218 138 218 138 207 161 c 1,38,39
 195 135 195 135 180.5 79 c 128,-1,40
 166 23 166 23 154 -1 c 1,0,-1
EndSplineSet
EndChar

StartChar: y
Encoding: 121 121 92
Width: 449
GlyphClass: 2
Flags: W
LayerCount: 2
Fore
SplineSet
295 499 m 1,0,-1
 397 501 l 2,1,2
 426 501 426 501 441 499 c 1,3,4
 405 364 405 364 382.5 259 c 128,-1,5
 360 154 360 154 352.5 121 c 128,-1,6
 345 88 345 88 330 43.5 c 128,-1,7
 315 -1 315 -1 299 -31 c 128,-1,8
 283 -61 283 -61 254.5 -92.5 c 128,-1,9
 226 -124 226 -124 192 -142 c 0,10,11
 122 -178 122 -178 27 -178 c 0,12,13
 11 -178 11 -178 -6 -177 c 1,14,15
 -18 -141 -18 -141 -18 -107.5 c 128,-1,16
 -18 -74 -18 -74 -12 -44 c 1,17,-1
 54 -46 l 1,18,19
 92 -46 92 -46 102 -36 c 0,20,21
 120 -19 120 -19 120 8 c 0,22,23
 120 50 120 50 65 268 c 0,24,25
 49 331 49 331 27 411.5 c 128,-1,26
 5 492 5 492 3 500 c 1,27,28
 19 498 19 498 47 498 c 2,29,-1
 110 499 l 2,30,31
 138 499 138 499 151 497 c 1,32,33
 155 476 155 476 166.5 413.5 c 128,-1,34
 178 351 178 351 186 308 c 0,35,36
 210 189 210 189 229 137 c 1,37,38
 243 175 243 175 260.5 316.5 c 128,-1,39
 278 458 278 458 295 499 c 1,0,-1
EndSplineSet
EndChar

StartChar: z
Encoding: 122 122 93
Width: 456
GlyphClass: 2
Flags: W
LayerCount: 2
Fore
SplineSet
434 497 m 1,0,1
 434 497 434 497 432 404 c 0,2,3
 432 383 432 383 434 363 c 1,4,5
 403 330 403 330 325.5 255.5 c 128,-1,6
 248 181 248 181 212 140 c 1,7,8
 229 141 229 141 270 141 c 2,9,-1
 341 141 l 2,10,11
 404 141 404 141 429 146 c 1,12,-1
 431 7 l 1,13,14
 185 1 185 1 24 1 c 1,15,16
 25 20 25 20 25 37 c 2,17,-1
 22 117 l 2,18,19
 22 124 22 124 22 129 c 1,20,21
 56 173 56 173 138 249.5 c 128,-1,22
 220 326 220 326 251 363 c 1,23,24
 96 356 96 356 28 347 c 1,25,26
 26 369 26 369 26 394 c 2,27,-1
 28 478 l 2,28,29
 28 488 28 488 28 497 c 1,30,-1
 306 498 l 1,31,32
 312 496 312 496 332 496 c 2,33,-1
 415 499 l 2,34,35
 432 499 432 499 434 497 c 1,0,1
EndSplineSet
EndChar

StartChar: braceleft
Encoding: 123 123 94
Width: 318
GlyphClass: 2
Flags: W
LayerCount: 2
Fore
SplineSet
236 228 m 1,0,-1
 235 193 l 1,1,2
 235 108 235 108 293 103 c 1,3,4
 293 11 293 11 292 1 c 1,5,6
 275 -1 275 -1 260 -1 c 0,7,8
 204 -1 204 -1 162.5 29 c 128,-1,9
 121 59 121 59 123 108 c 1,10,11
 127 128 127 128 127 143.5 c 128,-1,12
 127 159 127 159 126 181 c 0,13,14
 120 249 120 249 82 278 c 0,15,16
 60 294 60 294 28 294 c 0,17,18
 25 294 25 294 19.5 294 c 128,-1,19
 14 294 14 294 13 295 c 0,20,21
 9 311 9 311 9 335 c 128,-1,22
 9 359 9 359 15 393 c 1,23,24
 23 392 23 392 40.5 392 c 128,-1,25
 58 392 58 392 80 405 c 1,26,27
 118 425 118 425 127 500 c 0,28,29
 129 514 129 514 129 527 c 1,30,-1
 124 586 l 1,31,32
 124 613 124 613 136 636 c 0,33,34
 155 670 155 670 192 676 c 1,35,36
 226 680 226 680 249.5 680 c 128,-1,37
 273 680 273 680 289 678 c 1,38,39
 292 656 292 656 292 632.5 c 128,-1,40
 292 609 292 609 290 585 c 1,41,42
 242 569 242 569 238 545 c 1,43,44
 236 517 236 517 236 485 c 2,45,-1
 237 423 l 2,46,47
 237 397 237 397 224 374.5 c 128,-1,48
 211 352 211 352 183 342 c 1,49,50
 236 313 236 313 236 228 c 1,0,-1
EndSplineSet
EndChar

StartChar: bar
Encoding: 124 124 95
Width: 201
GlyphClass: 2
Flags: W
LayerCount: 2
Fore
SplineSet
155 728 m 1,0,-1
 157 -28 l 1,1,-1
 148 -28 l 1,2,-1
 45 -25 l 1,3,-1
 45 726 l 1,4,-1
 108 724 l 2,5,6
 126 724 126 724 155 729 c 1,7,-1
 155 728 l 1,0,-1
EndSplineSet
EndChar

StartChar: braceright
Encoding: 125 125 96
Width: 318
GlyphClass: 2
Flags: W
LayerCount: 2
Fore
SplineSet
194 586 m 1,0,-1
 189 527 l 1,1,2
 189 431 189 431 240 403 c 0,3,4
 260 392 260 392 277.5 392 c 128,-1,5
 295 392 295 392 303 393 c 1,6,7
 309 359 309 359 309 335 c 128,-1,8
 309 311 309 311 305 295 c 0,9,10
 304 294 304 294 298.5 294 c 128,-1,11
 293 294 293 294 290 294 c 0,12,13
 258 294 258 294 234.5 276.5 c 128,-1,14
 211 259 211 259 202 230 c 0,15,16
 191 191 191 191 191 159.5 c 128,-1,17
 191 128 191 128 195 108 c 1,18,19
 197 59 197 59 155.5 29 c 128,-1,20
 114 -1 114 -1 58 -1 c 0,21,22
 43 -1 43 -1 26 1 c 1,23,24
 25 11 25 11 25 103 c 1,25,26
 83 108 83 108 83 193 c 1,27,-1
 82 228 l 1,28,29
 82 313 82 313 135 342 c 1,30,31
 107 352 107 352 94 374.5 c 128,-1,32
 81 397 81 397 81 423 c 2,33,-1
 82 485 l 2,34,35
 82 517 82 517 80 545 c 1,36,37
 78 557 78 557 68 566 c 0,38,39
 56 576 56 576 28 585 c 1,40,41
 26 609 26 609 26 632.5 c 128,-1,42
 26 656 26 656 29 678 c 1,43,44
 45 680 45 680 68.5 680 c 128,-1,45
 92 680 92 680 126 676 c 1,46,47
 163 670 163 670 182 636 c 0,48,49
 194 613 194 613 194 586 c 1,0,-1
EndSplineSet
EndChar

StartChar: asciitilde
Encoding: 126 126 97
Width: 570
GlyphClass: 2
Flags: W
LayerCount: 2
Fore
SplineSet
541 340 m 1,0,1
 547 334 547 334 547 308 c 0,2,3
 547 245 547 245 496 172 c 1,4,5
 474 145 474 145 447.5 135 c 128,-1,6
 421 125 421 125 398 125 c 128,-1,7
 375 125 375 125 353 133 c 0,8,9
 306 149 306 149 286 193 c 1,10,11
 266 222 266 222 237 222 c 0,12,13
 236 222 236 222 225 222 c 128,-1,14
 214 222 214 222 190 210 c 1,15,16
 174 200 174 200 169.5 188 c 128,-1,17
 165 176 165 176 165 163 c 128,-1,18
 165 150 165 150 169 134 c 1,19,-1
 169 133 l 1,20,21
 153 137 153 137 96.5 137 c 128,-1,22
 40 137 40 137 17 136 c 1,23,24
 26 173 26 173 49 226.5 c 128,-1,25
 72 280 72 280 95 306 c 1,26,27
 140 351 140 351 202 351 c 0,28,29
 239 351 239 351 272 331 c 1,30,31
 286 321 286 321 304.5 297.5 c 128,-1,32
 323 274 323 274 333 267 c 1,33,34
 349 253 349 253 364.5 253 c 128,-1,35
 380 253 380 253 402 276.5 c 128,-1,36
 424 300 424 300 433 336 c 1,37,38
 450 337 450 337 541 340 c 1,0,1
EndSplineSet
EndChar

StartChar: exclamdown
Encoding: 161 161 99
Width: 216
GlyphClass: 2
Flags: W
LayerCount: 2
Fore
SplineSet
51 631 m 1,0,-1
 89 630 l 1,1,-1
 91 630 l 1,2,-1
 166 631 l 1,3,4
 171 621 171 621 167 574 c 128,-1,5
 163 527 163 527 163 514 c 2,6,-1
 163 513 l 1,7,8
 148 506 148 506 121 506 c 1,9,-1
 41 511 l 1,10,11
 44 622 44 622 44 631 c 1,12,-1
 51 631 l 1,0,-1
166 -70 m 1,13,14
 119 -77 119 -77 88.5 -77 c 128,-1,15
 58 -77 58 -77 43 -72 c 1,16,17
 46 98 46 98 46 234.5 c 128,-1,18
 46 371 46 371 42 457 c 1,19,20
 61 459 61 459 171 462 c 1,21,-1
 172 462 l 1,22,23
 172 439 172 439 172 392 c 2,24,-1
 173 111 l 2,25,26
 173 -22 173 -22 169 -70 c 1,27,-1
 166 -70 l 1,13,14
EndSplineSet
EndChar

StartChar: cent
Encoding: 162 162 100
Width: 350
GlyphClass: 2
Flags: W
LayerCount: 2
Fore
SplineSet
133 415 m 2,0,-1
 130 336 l 1,1,2
 130 299 130 299 133 265 c 1,3,4
 135 220 135 220 161 206 c 1,5,6
 162 277 162 277 162 348 c 128,-1,7
 162 419 162 419 160 472 c 1,8,9
 141 472 141 472 137 453 c 0,10,11
 133 435 133 435 133 415 c 2,0,-1
196 410 m 2,12,-1
 197 206 l 1,13,-1
 198 206 l 1,14,15
 221 216 221 216 224 243 c 0,16,17
 225 253 225 253 226 269.5 c 128,-1,18
 227 286 227 286 228 293 c 1,19,20
 232 292 232 292 243 292 c 2,21,-1
 285 293 l 2,22,23
 312 293 312 293 319 289 c 1,24,-1
 319 288 l 1,25,-1
 324 220 l 1,26,27
 324 168 324 168 284.5 134 c 128,-1,28
 245 100 245 100 199 94 c 1,29,-1
 197 94 l 1,30,-1
 197 93 l 1,31,32
 196 88 196 88 196 80 c 128,-1,33
 196 72 196 72 197 55 c 128,-1,34
 198 38 198 38 196 30 c 1,35,36
 184 24 184 24 175.5 24 c 128,-1,37
 167 24 167 24 163 30 c 1,38,39
 161 52 161 52 161.5 65.5 c 128,-1,40
 162 79 162 79 161 93 c 1,41,42
 153 92 153 92 144 92 c 0,43,44
 112 92 112 92 76.5 112.5 c 128,-1,45
 41 133 41 133 36 176 c 0,46,47
 29 231 29 231 29 294 c 2,48,-1
 31 442 l 1,49,50
 30 452 30 452 30 461 c 0,51,52
 30 512 30 512 59.5 551 c 128,-1,53
 89 590 89 590 132 590 c 0,54,55
 145 590 145 590 160 586 c 1,56,57
 162 587 162 587 162 614 c 2,58,-1
 162 646 l 1,59,60
 166 654 166 654 178 654 c 128,-1,61
 190 654 190 654 197 650 c 1,62,-1
 197 584 l 1,63,-1
 198 584 l 1,64,65
 266 582 266 582 304 516 c 0,66,67
 328 474 328 474 328 441 c 128,-1,68
 328 408 328 408 320 385 c 1,69,-1
 320 384 l 1,70,71
 299 381 299 381 279 381 c 1,72,-1
 220 387 l 1,73,74
 218 395 218 395 218 416 c 0,75,76
 218 461 218 461 197 474 c 1,77,78
 196 464 196 464 196 410 c 2,12,-1
EndSplineSet
EndChar

StartChar: sterling
Encoding: 163 163 101
Width: 486
GlyphClass: 2
Flags: W
LayerCount: 2
Fore
SplineSet
143 370 m 1,0,-1
 152 370 l 1,1,2
 150 429 150 429 150 540 c 128,-1,3
 150 651 150 651 156 669 c 1,4,5
 247 669 247 669 273 675 c 1,6,-1
 273 674 l 1,7,8
 275 596 275 596 275 519 c 128,-1,9
 275 442 275 442 273 366 c 1,10,11
 337 363 337 363 367.5 363 c 128,-1,12
 398 363 398 363 404 365 c 1,13,-1
 405 365 l 1,14,15
 407 348 407 348 407 332 c 128,-1,16
 407 316 407 316 406 293.5 c 128,-1,17
 405 271 405 271 402.5 256.5 c 128,-1,18
 400 242 400 242 404 232 c 1,19,20
 352 233 352 233 332 233 c 2,21,-1
 272 231 l 1,22,23
 271 229 271 229 271 222.5 c 128,-1,24
 271 216 271 216 275.5 193.5 c 128,-1,25
 280 171 280 171 283 168 c 1,26,-1
 468 157 l 1,27,28
 460 29 460 29 460 2 c 1,29,30
 430 2 430 2 340 2 c 0,31,32
 162 2 162 2 150 11 c 1,33,34
 152 39 152 39 152 91 c 128,-1,35
 152 143 152 143 148 235 c 1,36,37
 73 237 73 237 48 237 c 128,-1,38
 23 237 23 237 21 237 c 1,39,40
 21 277 21 277 20 310 c 2,41,-1
 18 349 l 2,42,43
 18 353 18 353 19 360 c 1,44,45
 19 371 19 371 63 371 c 1,46,-1
 123 369 l 2,47,48
 136 369 136 369 143 370 c 1,0,-1
EndSplineSet
EndChar

StartChar: currency
Encoding: 164 164 102
Width: 607
GlyphClass: 2
Flags: W
LayerCount: 2
Fore
SplineSet
217 558 m 1,0,-1
 269 566 l 1,1,2
 284 567 284 567 314 567 c 128,-1,3
 344 567 344 567 391 559 c 1,4,-1
 486 666 l 1,5,-1
 589 578 l 1,6,7
 533 514 533 514 506 484 c 1,8,9
 520 457 520 457 524.5 433.5 c 128,-1,10
 529 410 529 410 529 332 c 128,-1,11
 529 254 529 254 500 200 c 1,12,13
 562 124 562 124 589 111 c 1,14,-1
 570 95 l 1,15,16
 563 92 563 92 526 58.5 c 128,-1,17
 489 25 489 25 477 25 c 2,18,19
 477 25 477 25 476 25 c 0,20,21
 453 51 453 51 430 72 c 128,-1,22
 407 93 407 93 385 119 c 1,23,24
 334 109 334 109 287.5 109 c 128,-1,25
 241 109 241 109 200 118 c 1,26,-1
 131 25 l 1,27,28
 131 25 131 25 130 25 c 0,29,30
 119 25 119 25 72 66.5 c 128,-1,31
 25 108 25 108 18 111 c 1,32,33
 50 149 50 149 92 200 c 1,34,-1
 92 201 l 1,35,36
 77 246 77 246 77 339.5 c 128,-1,37
 77 433 77 433 92 491 c 1,38,39
 67 525 67 525 50.5 540 c 128,-1,40
 34 555 34 555 18 578 c 1,41,-1
 121 666 l 1,42,-1
 217 558 l 1,0,-1
340 221 m 1,43,-1
 355 223 l 1,44,-1
 357 223 l 1,45,46
 406 229 406 229 415 291 c 0,47,48
 417 302 417 302 419.5 322 c 128,-1,49
 422 342 422 342 423.5 351 c 128,-1,50
 425 360 425 360 425 371 c 0,51,52
 425 405 425 405 410 424.5 c 128,-1,53
 395 444 395 444 370 451.5 c 128,-1,54
 345 459 345 459 308.5 459 c 128,-1,55
 272 459 272 459 236 452 c 1,56,57
 195 438 195 438 188 397 c 0,58,59
 184 376 184 376 184 349 c 2,60,-1
 186 285 l 2,61,62
 186 260 186 260 200.5 241 c 128,-1,63
 215 222 215 222 241 217 c 1,64,65
 261 215 261 215 287 215 c 128,-1,66
 313 215 313 215 340 221 c 1,43,-1
EndSplineSet
EndChar

StartChar: yen
Encoding: 165 165 103
Width: 530
GlyphClass: 2
Flags: W
LayerCount: 2
Fore
SplineSet
401 342 m 2,0,-1
 430 343 l 2,1,2
 455 343 455 343 463 339 c 1,3,-1
 464 339 l 1,4,-1
 464 292 l 2,5,6
 464 252 464 252 466 250 c 1,7,-1
 466 249 l 1,8,9
 459 251 459 251 436 251 c 2,10,-1
 327 248 l 1,11,12
 318 244 318 244 312 226 c 1,13,14
 304 206 304 206 300 202 c 1,15,-1
 464 202 l 1,16,17
 464 120 464 120 466 111 c 1,18,19
 457 111 457 111 420 111 c 128,-1,20
 383 111 383 111 263 106 c 1,21,22
 253 88 253 88 238.5 49 c 128,-1,23
 224 10 224 10 220 1 c 1,24,-1
 220 0 l 1,25,-1
 219 0 l 1,26,27
 211 3 211 3 187 3 c 2,28,-1
 100 0 l 2,29,30
 87 0 87 0 79 1 c 1,31,-1
 76 1 l 1,32,33
 78 20 78 20 92.5 55 c 128,-1,34
 107 90 107 90 111 101 c 1,35,36
 103 104 103 104 78 104 c 1,37,-1
 65 103 l 1,38,39
 36 103 36 103 27 110 c 1,40,-1
 27 111 l 1,41,42
 28 122 28 122 28 132 c 2,43,-1
 27 153 l 1,44,45
 27 185 27 185 32 199 c 1,46,47
 44 198 44 198 59 198 c 2,48,-1
 148 201 l 1,49,-1
 148 202 l 1,50,51
 151 208 151 208 154 214 c 128,-1,52
 157 220 157 220 160 228 c 0,53,54
 165 242 165 242 167 244 c 1,55,-1
 167 245 l 1,56,-1
 166 245 l 2,57,58
 164 245 164 245 152 245 c 2,59,-1
 79 244 l 2,60,61
 33 244 33 244 28 251 c 1,62,63
 26 252 26 252 26 270 c 2,64,-1
 28 336 l 1,65,-1
 30 336 l 1,66,67
 63 340 63 340 124.5 340 c 128,-1,68
 186 340 186 340 206 341 c 0,69,70
 206 342 206 342 205.5 342 c 128,-1,71
 205 342 205 342 198 366.5 c 128,-1,72
 191 391 191 391 143.5 510 c 128,-1,73
 96 629 96 629 84 692 c 1,74,75
 95 691 95 691 110 691 c 2,76,-1
 194 694 l 2,77,78
 214 694 214 694 228 692 c 1,79,80
 233 676 233 676 245 636 c 0,81,82
 269 558 269 558 290 512 c 1,83,84
 322 570 322 570 369 683 c 1,85,-1
 373 685 l 1,86,87
 428 693 428 693 461 693 c 128,-1,88
 494 693 494 693 513 689 c 1,89,90
 451 506 451 506 366 348 c 1,91,92
 373 342 373 342 401 342 c 2,0,-1
EndSplineSet
EndChar

StartChar: dieresis
Encoding: 168 168 106
Width: 349
GlyphClass: 2
Flags: W
LayerCount: 2
Fore
SplineSet
36 522 m 1,0,1
 33 538 33 538 33 568 c 1,2,-1
 35 623 l 1,3,4
 56 630 56 630 93.5 630 c 128,-1,5
 131 630 131 630 144 624 c 1,6,-1
 142 602 l 1,7,8
 138 536 138 536 138 523 c 2,9,-1
 138 521 l 1,10,-1
 136 521 l 1,11,-1
 39 522 l 1,12,-1
 36 522 l 1,0,1
210 522 m 1,13,14
 207 538 207 538 207 568 c 1,15,-1
 209 623 l 1,16,17
 230 630 230 630 267.5 630 c 128,-1,18
 305 630 305 630 318 624 c 1,19,-1
 316 602 l 1,20,21
 312 536 312 536 312 523 c 2,22,-1
 312 521 l 1,23,-1
 310 521 l 1,24,-1
 213 522 l 1,25,-1
 210 522 l 1,13,14
EndSplineSet
EndChar

StartChar: copyright
Encoding: 169 169 107
Width: 553
GlyphClass: 2
Flags: W
LayerCount: 2
Fore
SplineSet
147 127 m 1,0,1
 55 169 55 169 45 247 c 1,2,3
 36 296 36 296 36 348 c 128,-1,4
 36 400 36 400 40.5 447 c 128,-1,5
 45 494 45 494 77 532 c 1,6,7
 118 584 118 584 198 596 c 1,8,9
 245 598 245 598 289.5 598 c 128,-1,10
 334 598 334 598 370 591.5 c 128,-1,11
 406 585 406 585 444 561 c 1,12,-1
 456 553 l 2,13,14
 494 527 494 527 512 472 c 0,15,16
 519 453 519 453 519 416.5 c 128,-1,17
 519 380 519 380 518 364 c 128,-1,18
 517 348 517 348 512 303.5 c 128,-1,19
 507 259 507 259 506 249 c 1,20,21
 494 202 494 202 458 168 c 1,22,23
 416 126 416 126 328 118 c 0,24,25
 273 113 273 113 232.5 113 c 128,-1,26
 192 113 192 113 147 127 c 1,0,1
198 523 m 1,27,28
 159 515 159 515 138 493 c 128,-1,29
 117 471 117 471 113.5 444.5 c 128,-1,30
 110 418 110 418 110 376 c 128,-1,31
 110 334 110 334 115 263 c 1,32,33
 115 231 115 231 145 208.5 c 128,-1,34
 175 186 175 186 215 184 c 1,35,36
 224 185 224 185 278.5 187.5 c 128,-1,37
 333 190 333 190 365 195.5 c 128,-1,38
 397 201 397 201 417.5 230.5 c 128,-1,39
 438 260 438 260 442 305 c 128,-1,40
 446 350 446 350 446 374 c 128,-1,41
 446 398 446 398 446 406 c 2,42,-1
 445 433 l 1,43,44
 445 503 445 503 346 523 c 1,45,46
 309 528 309 528 272 528 c 1,47,-1
 198 523 l 1,27,28
244 311 m 0,48,49
 246 281 246 281 265 275 c 0,50,51
 267 275 267 275 270 275 c 0,52,53
 287 275 287 275 295 288 c 1,54,-1
 298 326 l 1,55,56
 300 326 300 326 324 326.5 c 128,-1,57
 348 327 348 327 351 324 c 1,58,59
 355 310 355 310 355 290.5 c 128,-1,60
 355 271 355 271 340 248 c 0,61,62
 317 212 317 212 275 212 c 1,63,64
 267 211 267 211 252 211 c 128,-1,65
 237 211 237 211 213.5 221.5 c 128,-1,66
 190 232 190 232 188 263 c 128,-1,67
 186 294 186 294 186 344 c 128,-1,68
 186 394 186 394 185.5 414.5 c 128,-1,69
 185 435 185 435 191.5 453 c 128,-1,70
 198 471 198 471 207 478.5 c 128,-1,71
 216 486 216 486 232 493 c 1,72,73
 248 498 248 498 262 498 c 0,74,75
 297 498 297 498 327 470.5 c 128,-1,76
 357 443 357 443 357 409 c 0,77,78
 357 394 357 394 352 378 c 1,79,80
 343 377 343 377 330 377 c 128,-1,81
 317 377 317 377 296 380 c 1,82,83
 296 422 296 422 280 430 c 0,84,85
 275 433 275 433 270 432 c 0,86,87
 253 431 253 431 248 426 c 1,88,-1
 245 420 l 1,89,-1
 244 406 l 1,90,91
 243 366 243 366 243 344.5 c 128,-1,92
 243 323 243 323 244 311 c 0,48,49
EndSplineSet
EndChar

StartChar: ordfeminine
Encoding: 170 170 108
Width: 276
GlyphClass: 2
Flags: W
LayerCount: 2
Fore
SplineSet
239 723 m 1,0,-1
 241 711 l 1,1,-1
 241 707 l 1,2,3
 240 690 240 690 240 663 c 2,4,-1
 241 562 l 2,5,6
 241 513 241 513 239 490 c 1,7,8
 239 470 239 470 232 469 c 1,9,-1
 226 469 l 1,10,-1
 193 470 l 1,11,-1
 170 469 l 1,12,13
 164 470 164 470 164 477 c 128,-1,14
 164 484 164 484 165.5 489.5 c 128,-1,15
 167 495 167 495 167 498 c 1,16,17
 139 468 139 468 101 468 c 128,-1,18
 63 468 63 468 44 511.5 c 128,-1,19
 25 555 25 555 25 605.5 c 128,-1,20
 25 656 25 656 49.5 689.5 c 128,-1,21
 74 723 74 723 110 723 c 0,22,23
 144 723 144 723 151.5 715.5 c 128,-1,24
 159 708 159 708 162 699 c 1,25,-1
 164 725 l 2,26,27
 164 726 164 726 176 726 c 2,28,-1
 189 726 l 1,29,-1
 239 723 l 1,0,-1
91 621 m 1,30,31
 87 613 87 613 87 592 c 128,-1,32
 87 571 87 571 100 555 c 128,-1,33
 113 539 113 539 131 539 c 128,-1,34
 149 539 149 539 156 548.5 c 128,-1,35
 163 558 163 558 163.5 566.5 c 128,-1,36
 164 575 164 575 164 590.5 c 128,-1,37
 164 606 164 606 164 624 c 128,-1,38
 164 642 164 642 160.5 648 c 128,-1,39
 157 654 157 654 138 654 c 0,40,41
 96 654 96 654 91 621 c 1,30,31
EndSplineSet
EndChar

StartChar: guillemotleft
Encoding: 171 171 109
Width: 583
GlyphClass: 2
Flags: W
LayerCount: 2
Fore
SplineSet
343 85 m 1,0,-1
 316 59 l 2,1,2
 289 32 289 32 265 11 c 1,3,4
 251 25 251 25 154 113.5 c 128,-1,5
 57 202 57 202 13 262 c 1,6,7
 53 313 53 313 201 461 c 1,8,-1
 258 520 l 1,9,10
 270 513 270 513 296.5 486 c 128,-1,11
 323 459 323 459 334 451 c 1,12,13
 315 427 315 427 249.5 359.5 c 128,-1,14
 184 292 184 292 158 259 c 1,15,16
 185 235 185 235 246.5 174 c 128,-1,17
 308 113 308 113 343 85 c 1,0,-1
564 85 m 1,18,-1
 537 59 l 2,19,20
 510 32 510 32 486 11 c 1,21,22
 472 25 472 25 375 113.5 c 128,-1,23
 278 202 278 202 234 262 c 1,24,25
 274 313 274 313 422 461 c 1,26,-1
 479 520 l 1,27,28
 491 513 491 513 517.5 486 c 128,-1,29
 544 459 544 459 555 451 c 1,30,31
 536 427 536 427 470.5 359.5 c 128,-1,32
 405 292 405 292 379 259 c 1,33,34
 406 235 406 235 467.5 174 c 128,-1,35
 529 113 529 113 564 85 c 1,18,-1
EndSplineSet
EndChar

StartChar: logicalnot
Encoding: 172 172 110
Width: 471
GlyphClass: 2
Flags: W
LayerCount: 2
Fore
SplineSet
21 417 m 1,0,-1
 20 452 l 1,1,-1
 20 472 l 1,2,3
 26 472 26 472 227 471 c 128,-1,4
 428 470 428 470 434 470 c 1,5,6
 433 468 433 468 433 467 c 1,7,-1
 434 467 l 1,8,9
 434 456 434 456 433 403 c 128,-1,10
 432 350 432 350 432 300 c 1,11,-1
 431 251 l 1,12,-1
 376 251 l 1,13,-1
 376 280 l 1,14,-1
 375 412 l 1,15,16
 23 415 23 415 21 417 c 1,0,-1
EndSplineSet
EndChar

StartChar: uni00AD
Encoding: 173 173 111
Width: 369
GlyphClass: 2
Flags: W
LayerCount: 2
Fore
SplineSet
37 249 m 1,0,-1
 36 284 l 1,1,-1
 36 304 l 1,2,3
 41 304 41 304 184 305 c 128,-1,4
 327 306 327 306 333 306 c 1,5,6
 331 295 331 295 331 248 c 1,7,8
 242 248 242 248 152 248 c 1,9,-1
 72 249 l 1,10,-1
 37 249 l 1,0,-1
EndSplineSet
EndChar

StartChar: registered
Encoding: 174 174 112
Width: 553
GlyphClass: 2
Flags: W
LayerCount: 2
Fore
SplineSet
147 127 m 1,0,1
 55 169 55 169 45 247 c 1,2,3
 36 296 36 296 36 348 c 128,-1,4
 36 400 36 400 40.5 447 c 128,-1,5
 45 494 45 494 77 532 c 1,6,7
 118 584 118 584 198 596 c 1,8,9
 245 598 245 598 289.5 598 c 128,-1,10
 334 598 334 598 370 591.5 c 128,-1,11
 406 585 406 585 444 561 c 1,12,-1
 456 553 l 1,13,14
 514 509 514 509 518 427 c 0,15,16
 519 405 519 405 519 387 c 0,17,18
 519 354 519 354 513.5 311.5 c 128,-1,19
 508 269 508 269 506 256 c 0,20,21
 501 209 501 209 458 168 c 1,22,23
 416 126 416 126 328 118 c 0,24,25
 273 113 273 113 232.5 113 c 128,-1,26
 192 113 192 113 147 127 c 1,0,1
198 523 m 1,27,28
 159 515 159 515 138 493 c 128,-1,29
 117 471 117 471 113 441 c 1,30,-1
 110 408 l 2,31,32
 110 405 110 405 110 387.5 c 128,-1,33
 110 370 110 370 112 293 c 128,-1,34
 114 216 114 216 163 197 c 1,35,36
 175 191 175 191 188.5 188.5 c 128,-1,37
 202 186 202 186 235 186 c 128,-1,38
 268 186 268 186 346 192 c 1,39,-1
 361 195 l 1,40,41
 397 201 397 201 417.5 230.5 c 128,-1,42
 438 260 438 260 442 305 c 128,-1,43
 446 350 446 350 446 374 c 128,-1,44
 446 398 446 398 446 406 c 2,45,-1
 445 433 l 1,46,47
 445 503 445 503 346 523 c 1,48,49
 309 528 309 528 272 528 c 1,50,-1
 198 523 l 1,27,28
377 216 m 1,51,-1
 324 214 l 2,52,53
 317 214 317 214 312 214 c 2,54,-1
 311 214 l 1,55,56
 297 248 297 248 280 278 c 1,57,-1
 253 318 l 1,58,59
 250 303 250 303 250 290 c 2,60,-1
 255 219 l 1,61,62
 236 214 236 214 184 214 c 1,63,64
 186 214 186 214 186 344 c 128,-1,65
 186 474 186 474 182 498 c 1,66,67
 232 505 232 505 255.5 505 c 128,-1,68
 279 505 279 505 289 504 c 0,69,70
 337 500 337 500 360 458 c 0,71,72
 372 438 372 438 372 416.5 c 128,-1,73
 372 395 372 395 360 373 c 0,74,75
 341 339 341 339 308 338 c 1,76,-1
 305 338 l 1,77,-1
 305 337 l 1,78,79
 312 326 312 326 329 301 c 0,80,81
 367 246 367 246 377 216 c 1,51,-1
269 390 m 0,82,83
 302 390 302 390 302 421 c 0,84,85
 302 434 302 434 292.5 441 c 128,-1,86
 283 448 283 448 270 448 c 128,-1,87
 257 448 257 448 241 442 c 1,88,89
 242 434 242 434 242 416 c 2,90,-1
 242 391 l 1,91,-1
 243 391 l 1,92,93
 259 390 259 390 269 390 c 0,82,83
EndSplineSet
EndChar

StartChar: degree
Encoding: 176 176 113
Width: 298
GlyphClass: 2
Flags: W
LayerCount: 2
Fore
SplineSet
108 648 m 1,0,-1
 121 649 l 2,1,2
 136 650 136 650 160.5 650 c 128,-1,3
 185 650 185 650 201 645 c 1,4,-1
 219 638 l 2,5,6
 234 633 234 633 247 621 c 1,7,8
 266 606 266 606 271 574 c 0,9,10
 273 564 273 564 273 530 c 0,11,12
 273 420 273 420 192 406 c 0,13,14
 165 401 165 401 136.5 401 c 128,-1,15
 108 401 108 401 79 410 c 1,16,17
 45 427 45 427 35 451 c 1,18,19
 27 474 27 474 27 521 c 128,-1,20
 27 568 27 568 32 588 c 1,21,22
 48 636 48 636 108 648 c 1,0,-1
116 460 m 0,23,24
 126 459 126 459 137.5 459 c 128,-1,25
 149 459 149 459 178 463 c 1,26,-1
 179 463 l 1,27,28
 206 466 206 466 211 500 c 1,29,30
 213 506 213 506 214.5 522 c 128,-1,31
 216 538 216 538 216 550 c 128,-1,32
 216 562 216 562 208 573 c 0,33,34
 192 592 192 592 151 592 c 0,35,36
 133 592 133 592 113 588 c 1,37,38
 91 580 91 580 87 558 c 0,39,40
 86 551 86 551 86 497 c 0,41,42
 86 465 86 465 116 460 c 0,23,24
EndSplineSet
EndChar

StartChar: plusminus
Encoding: 177 177 114
Width: 501
GlyphClass: 2
Flags: W
LayerCount: 2
Fore
SplineSet
288 254 m 2,0,-1
 179 256 l 2,1,2
 169 256 169 256 168 256 c 0,3,4
 165 259 165 259 165 295 c 2,5,-1
 166 335 l 1,6,7
 166 378 166 378 163 381 c 1,8,-1
 161 381 l 2,9,10
 143 381 143 381 100 384 c 0,11,12
 49 388 49 388 49 393 c 0,13,14
 50 403 50 403 50 414.5 c 128,-1,15
 50 426 50 426 49 445 c 128,-1,16
 48 464 48 464 46.5 494.5 c 128,-1,17
 45 525 45 525 45 526 c 1,18,19
 46 526 46 526 53.5 526 c 128,-1,20
 61 526 61 526 113.5 530 c 128,-1,21
 166 534 166 534 172 536 c 1,22,23
 172 574 172 574 175 610 c 128,-1,24
 178 646 178 646 178 648 c 2,25,-1
 181 666 l 2,26,27
 181 661 181 661 223 661 c 2,28,-1
 315 662 l 2,29,30
 324 662 324 662 326 662 c 1,31,32
 326 544 326 544 328 538 c 1,33,34
 341 537 341 537 387 537 c 128,-1,35
 433 537 433 537 449 534 c 1,36,37
 448 511 448 511 448 463.5 c 128,-1,38
 448 416 448 416 445 389 c 1,39,40
 442 387 442 387 387.5 386.5 c 128,-1,41
 333 386 333 386 326 382 c 1,42,43
 327 378 327 378 327 370 c 2,44,-1
 319 260 l 1,45,-1
 319 258 l 1,46,47
 314 254 314 254 288 254 c 2,0,-1
476 4 m 1,48,-1
 28 11 l 1,49,-1
 31 171 l 1,50,-1
 474 171 l 1,51,-1
 472 75 l 2,52,53
 472 32 472 32 477 4 c 1,54,-1
 476 4 l 1,48,-1
EndSplineSet
EndChar

StartChar: twosuperior
Encoding: 178 178 115
Width: 264
GlyphClass: 2
Flags: W
LayerCount: 2
Fore
SplineSet
112 397 m 1,0,-1
 224 398 l 1,1,2
 228 389 228 389 228 376.5 c 128,-1,3
 228 364 228 364 227.5 351 c 128,-1,4
 227 338 227 338 228 336 c 1,5,-1
 226 336 l 1,6,-1
 53 333 l 1,7,-1
 32 333 l 1,8,-1
 32 335 l 1,9,10
 33 347 33 347 33 372 c 0,11,12
 33 422 33 422 48 447 c 1,13,14
 66 466 66 466 100 487 c 128,-1,15
 134 508 134 508 147.5 517.5 c 128,-1,16
 161 527 161 527 161 553 c 128,-1,17
 161 579 161 579 138 581 c 1,18,19
 103 581 103 581 103 526 c 2,20,-1
 103 525 l 1,21,22
 81 522 81 522 64 522 c 128,-1,23
 47 522 47 522 36 523 c 1,24,-1
 36 524 l 1,25,26
 33 542 33 542 33 557 c 0,27,28
 33 600 33 600 59 629 c 1,29,30
 81 656 81 656 144 656 c 0,31,32
 226 656 226 656 233 572 c 0,33,34
 235 546 235 546 234 524 c 128,-1,35
 233 502 233 502 211 484.5 c 128,-1,36
 189 467 189 467 159 453 c 128,-1,37
 129 439 129 439 117 425 c 1,38,39
 106 400 106 400 112 397 c 1,0,-1
EndSplineSet
EndChar

StartChar: threesuperior
Encoding: 179 179 116
Width: 254
GlyphClass: 2
Flags: W
LayerCount: 2
Fore
SplineSet
154 556 m 0,0,1
 154 581 154 581 129 581 c 0,2,3
 119 581 119 581 105.5 573.5 c 128,-1,4
 92 566 92 566 88 553 c 1,5,6
 82 553 82 553 55 552 c 1,7,-1
 28 552 l 1,8,-1
 28 553 l 2,9,10
 28 591 28 591 30 596 c 0,11,12
 40 630 40 630 80 644 c 0,13,14
 104 653 104 653 124 653 c 0,15,16
 193 653 193 653 216 614 c 1,17,18
 222 606 222 606 222 596 c 128,-1,19
 222 586 222 586 222.5 563.5 c 128,-1,20
 223 541 223 541 223 501 c 128,-1,21
 223 461 223 461 222 445 c 0,22,23
 219 389 219 389 213 378 c 1,24,25
 194 331 194 331 124 331 c 0,26,27
 89 331 89 331 69 340 c 1,28,29
 59 342 59 342 53.5 346.5 c 128,-1,30
 48 351 48 351 43.5 354.5 c 128,-1,31
 39 358 39 358 34.5 374 c 128,-1,32
 30 390 30 390 29.5 406 c 128,-1,33
 29 422 29 422 28 431 c 1,34,-1
 29 431 l 1,35,-1
 88 434 l 1,36,-1
 89 434 l 1,37,38
 96 416 96 416 116 408 c 0,39,40
 122 405 122 405 131 405 c 128,-1,41
 140 405 140 405 150 417 c 1,42,43
 156 426 156 426 154 438 c 128,-1,44
 152 450 152 450 143 456 c 1,45,46
 132 465 132 465 118.5 465 c 128,-1,47
 105 465 105 465 93 462 c 1,48,49
 89 466 89 466 89 482 c 2,50,-1
 90 518 l 2,51,52
 90 524 90 524 90 526 c 1,53,54
 97 529 97 529 115.5 528.5 c 128,-1,55
 134 528 134 528 144 533.5 c 128,-1,56
 154 539 154 539 154 556 c 0,0,1
EndSplineSet
EndChar

StartChar: acute
Encoding: 180 180 117
Width: 255
GlyphClass: 2
Flags: W
LayerCount: 2
Fore
SplineSet
140 525 m 1,0,1
 118 523 118 523 98 523 c 0,2,3
 29 523 29 523 6 529 c 1,4,5
 19 541 19 541 82.5 606 c 128,-1,6
 146 671 146 671 173 692 c 1,7,-1
 242 622 l 1,8,9
 235 615 235 615 210 594 c 0,10,11
 146 539 146 539 140 525 c 1,0,1
EndSplineSet
EndChar

StartChar: mu
Encoding: 181 181 118
Width: 458
GlyphClass: 2
Flags: W
LayerCount: 2
Fore
SplineSet
423 2 m 1,0,-1
 320 -4 l 1,1,2
 302 -4 302 -4 293 1 c 1,3,4
 291 14 291 14 291 32 c 2,5,-1
 291 54 l 1,6,7
 280 35 280 35 258.5 24 c 128,-1,8
 237 13 237 13 222 10 c 128,-1,9
 207 7 207 7 177 4 c 1,10,11
 177 -92 177 -92 179 -120.5 c 128,-1,12
 181 -149 181 -149 181 -158 c 1,13,14
 180 -165 180 -165 135 -165 c 2,15,-1
 50 -164 l 2,16,17
 42 -164 42 -164 40 -164 c 1,18,19
 40 193 40 193 41 207 c 2,20,-1
 45 448 l 2,21,22
 45 479 45 479 44 498 c 1,23,24
 71 502 71 502 169 502 c 1,25,26
 171 472 171 472 171 390.5 c 128,-1,27
 171 309 171 309 172 287.5 c 128,-1,28
 173 266 173 266 174 255.5 c 128,-1,29
 175 245 175 245 175.5 239 c 128,-1,30
 176 233 176 233 177.5 223 c 128,-1,31
 179 213 179 213 180.5 207 c 128,-1,32
 182 201 182 201 184 194 c 0,33,34
 195 163 195 163 237 163 c 0,35,36
 256 163 256 163 275.5 177.5 c 128,-1,37
 295 192 295 192 297 225 c 0,38,39
 298 235 298 235 298 249 c 2,40,-1
 291 434 l 1,41,42
 291 477 291 477 296 497 c 1,43,44
 322 500 322 500 347 500 c 2,45,-1
 372 500 l 2,46,47
 396 500 396 500 422 503 c 1,48,-1
 425 113 l 2,49,50
 425 20 425 20 423 2 c 1,0,-1
EndSplineSet
EndChar

StartChar: paragraph
Encoding: 182 182 119
Width: 672
GlyphClass: 2
Flags: W
LayerCount: 2
Fore
SplineSet
652 728 m 1,0,-1
 655 591 l 1,1,2
 650 582 650 582 617 582 c 128,-1,3
 584 582 584 582 555 584 c 1,4,5
 548 144 548 144 548 -9 c 128,-1,6
 548 -162 548 -162 550 -198 c 1,7,8
 549 -205 549 -205 504 -205 c 2,9,-1
 419 -204 l 2,10,11
 411 -204 411 -204 409 -204 c 1,12,13
 418 -88 418 -88 418.5 202.5 c 128,-1,14
 419 493 419 493 422 585 c 1,15,-1
 345 586 l 1,16,17
 339 207 339 207 339 32 c 128,-1,18
 339 -143 339 -143 342 -198 c 1,19,20
 341 -205 341 -205 296 -205 c 2,21,-1
 211 -204 l 2,22,23
 203 -204 203 -204 201 -204 c 1,24,25
 210 -101 210 -101 210 50.5 c 128,-1,26
 210 202 210 202 208 320 c 1,27,28
 181 316 181 316 151 316 c 128,-1,29
 121 316 121 316 99 328 c 0,30,31
 65 348 65 348 31 412 c 1,32,33
 20 464 20 464 20 523 c 128,-1,34
 20 582 20 582 28 645 c 1,35,36
 44 710 44 710 108 720 c 0,37,38
 136 725 136 725 171.5 725.5 c 128,-1,39
 207 726 207 726 219 727 c 2,40,-1
 395 728 l 1,41,-1
 557 730 l 1,42,-1
 652 728 l 1,0,-1
EndSplineSet
EndChar

StartChar: periodcentered
Encoding: 183 183 120
Width: 164
GlyphClass: 2
Flags: W
LayerCount: 2
Fore
SplineSet
129 264 m 1,0,1
 123 254 123 254 102 254 c 2,2,-1
 55 255 l 2,3,4
 47 255 47 255 40 255 c 1,5,-1
 36 373 l 2,6,7
 36 383 36 383 36 393 c 1,8,-1
 126 392 l 1,9,-1
 129 264 l 1,0,1
EndSplineSet
EndChar

StartChar: cedilla
Encoding: 184 184 121
Width: 190
GlyphClass: 2
Flags: W
LayerCount: 2
Fore
SplineSet
17 -147 m 2,0,-1
 68 0 l 1,1,-1
 77 -2 l 1,2,-1
 87 -4 l 1,3,-1
 173 -6 l 1,4,-1
 126 -147 l 1,5,-1
 126 -148 l 1,6,7
 17 -148 17 -148 17 -147 c 2,0,-1
EndSplineSet
EndChar

StartChar: onesuperior
Encoding: 185 185 122
Width: 187
GlyphClass: 2
Flags: W
LayerCount: 2
Fore
SplineSet
150 567 m 1,0,-1
 145 372 l 1,1,-1
 145 342 l 2,2,3
 145 335 145 335 129 335 c 128,-1,4
 113 335 113 335 77 338 c 1,5,-1
 77 380 l 1,6,-1
 83 545 l 1,7,-1
 83 553 l 1,8,9
 81 553 81 553 75 541 c 128,-1,10
 69 529 69 529 64 529 c 128,-1,11
 59 529 59 529 35.5 535.5 c 128,-1,12
 12 542 12 542 12 545 c 0,13,14
 12 560 12 560 54 628 c 1,15,-1
 63 641 l 1,16,-1
 103 642 l 2,17,18
 118 642 118 642 148 640 c 1,19,20
 150 624 150 624 150 567 c 1,0,-1
EndSplineSet
EndChar

StartChar: ordmasculine
Encoding: 186 186 123
Width: 254
GlyphClass: 2
Flags: W
LayerCount: 2
Fore
SplineSet
192 619.5 m 128,-1,1
 218 592 218 592 223 560.5 c 128,-1,2
 228 529 228 529 228 516 c 128,-1,3
 228 503 228 503 228.5 496.5 c 128,-1,4
 229 490 229 490 229 482 c 0,5,6
 229 430 229 430 204 382.5 c 128,-1,7
 179 335 179 335 127 335 c 0,8,9
 109 335 109 335 90 340 c 1,10,11
 50 356 50 356 39 388.5 c 128,-1,12
 28 421 28 421 28 472 c 1,13,14
 27 488 27 488 27 503 c 0,15,16
 27 571 27 571 50 606 c 0,17,18
 50 607 50 607 54 611 c 0,19,20
 86 647 86 647 126 647 c 128,-1,0
 166 647 166 647 192 619.5 c 128,-1,1
125 406 m 1,21,22
 143 409 143 409 148 424 c 128,-1,23
 153 439 153 439 155 464.5 c 128,-1,24
 157 490 157 490 157 519.5 c 128,-1,25
 157 549 157 549 146.5 563 c 128,-1,26
 136 577 136 577 128.5 577 c 128,-1,27
 121 577 121 577 114 575 c 0,28,29
 98 572 98 572 95.5 539.5 c 128,-1,30
 93 507 93 507 93 482 c 128,-1,31
 93 457 93 457 96 445 c 128,-1,32
 99 433 99 433 101 427 c 128,-1,33
 103 421 103 421 104 418 c 0,34,35
 109 406 109 406 125 406 c 1,21,22
EndSplineSet
EndChar

StartChar: guillemotright
Encoding: 187 187 124
Width: 583
GlyphClass: 2
Flags: W
LayerCount: 2
Fore
SplineSet
251 75 m 1,0,-1
 240 85 l 1,1,2
 275 113 275 113 336.5 174 c 128,-1,3
 398 235 398 235 425 259 c 1,4,5
 398 291 398 291 333.5 358.5 c 128,-1,6
 269 426 269 426 249 451 c 1,7,8
 260 458 260 458 286 485.5 c 128,-1,9
 312 513 312 513 325 520 c 1,10,-1
 382 461 l 1,11,12
 530 313 530 313 570 262 c 1,13,14
 525 203 525 203 431.5 117 c 128,-1,15
 338 31 338 31 318 11 c 1,16,17
 294 32 294 32 267 59 c 2,18,-1
 251 75 l 1,0,-1
30 75 m 1,19,-1
 19 85 l 1,20,21
 54 113 54 113 115.5 174 c 128,-1,22
 177 235 177 235 204 259 c 1,23,24
 177 291 177 291 112.5 358.5 c 128,-1,25
 48 426 48 426 28 451 c 1,26,27
 39 458 39 458 65 485.5 c 128,-1,28
 91 513 91 513 104 520 c 1,29,-1
 161 461 l 1,30,31
 309 313 309 313 349 262 c 1,32,33
 304 203 304 203 210.5 117 c 128,-1,34
 117 31 117 31 97 11 c 1,35,36
 73 32 73 32 46 59 c 2,37,-1
 30 75 l 1,19,-1
EndSplineSet
EndChar

StartChar: onequarter
Encoding: 188 188 125
Width: 595
GlyphClass: 2
Flags: W
LayerCount: 2
Fore
SplineSet
380 708 m 2,0,-1
 430 710 l 2,1,2
 453 710 453 710 457 705 c 1,3,-1
 457 704 l 1,4,5
 278 168 278 168 216 8 c 1,6,-1
 214 5 l 1,7,-1
 212 1 l 1,8,9
 210 1 210 1 203 1 c 2,10,-1
 142 2 l 2,11,12
 128 2 128 2 125 1 c 1,13,14
 146 64 146 64 237 317.5 c 128,-1,15
 328 571 328 571 365 709 c 1,16,17
 368 708 368 708 380 708 c 2,0,-1
571 104 m 1,18,-1
 545 102 l 1,19,-1
 544 102 l 1,20,21
 545 103 545 103 541 58.5 c 128,-1,22
 537 14 537 14 536 6 c 1,23,24
 533 3 533 3 461 3 c 1,25,-1
 462 110 l 1,26,27
 457 112 457 112 408.5 112 c 128,-1,28
 360 112 360 112 359 112 c 1,29,-1
 359 113 l 1,30,31
 354 134 354 134 354 156 c 128,-1,32
 354 178 354 178 354 185 c 2,33,-1
 354 186 l 1,34,-1
 464 355 l 1,35,-1
 544 356 l 1,36,-1
 545 356 l 1,37,38
 546 351 546 351 546 334 c 2,39,-1
 545 233 l 2,40,41
 545 188 545 188 547 182 c 1,42,43
 550 184 550 184 561.5 182 c 128,-1,44
 573 180 573 180 575 180 c 1,45,-1
 572 104 l 1,46,-1
 571 104 l 1,18,-1
450 180 m 2,47,-1
 479 181 l 1,48,-1
 480 181 l 1,49,-1
 480 182 l 1,50,-1
 482 252 l 2,51,52
 482 261 482 261 456 221.5 c 128,-1,53
 430 182 430 182 429 181 c 1,54,-1
 440 180 l 2,55,56
 445 180 445 180 450 180 c 2,47,-1
174 572 m 1,57,-1
 169 347 l 2,58,59
 169 324 169 324 170 312 c 0,60,61
 170 303 170 303 139 303 c 1,62,-1
 91 306 l 1,63,-1
 91 355 l 1,64,-1
 97 545 l 2,65,66
 97 552 97 552 96 555 c 1,67,68
 94 555 94 555 87.5 541 c 128,-1,69
 81 527 81 527 75 527 c 128,-1,70
 69 527 69 527 42 534.5 c 128,-1,71
 15 542 15 542 15 545 c 0,72,73
 17 560 17 560 43 605 c 128,-1,74
 69 650 69 650 75 656 c 1,75,-1
 120 657 l 2,76,77
 138 657 138 657 172 655 c 1,78,79
 174 636 174 636 174 572 c 1,57,-1
EndSplineSet
EndChar

StartChar: onehalf
Encoding: 189 189 126
Width: 602
GlyphClass: 2
Flags: W
LayerCount: 2
Fore
SplineSet
380 708 m 2,0,-1
 430 710 l 2,1,2
 453 710 453 710 457 705 c 1,3,-1
 457 704 l 1,4,5
 278 168 278 168 216 8 c 1,6,-1
 214 5 l 1,7,-1
 212 1 l 1,8,9
 210 1 210 1 203 1 c 2,10,-1
 142 2 l 2,11,12
 128 2 128 2 125 1 c 1,13,14
 146 64 146 64 237 317.5 c 128,-1,15
 328 571 328 571 365 709 c 1,16,17
 368 708 368 708 380 708 c 2,0,-1
474 74 m 2,18,-1
 567 75 l 1,19,20
 571 66 571 66 571 36.5 c 128,-1,21
 571 7 571 7 571.5 5.5 c 128,-1,22
 572 4 572 4 570 4 c 2,23,-1
 380 2 l 1,24,-1
 357 2 l 1,25,-1
 357 3 l 1,26,27
 358 15 358 15 358 35.5 c 128,-1,28
 358 56 358 56 358 69 c 0,29,30
 360 103 360 103 374 127 c 1,31,32
 392 148 392 148 431 171.5 c 128,-1,33
 470 195 470 195 481 204 c 1,34,35
 499 214 499 214 499 238 c 0,36,37
 499 273 499 273 472 275 c 1,38,39
 435 275 435 275 435 215 c 2,40,-1
 435 214 l 1,41,42
 395 210 395 210 380.5 210 c 128,-1,43
 366 210 366 210 361 211 c 1,44,-1
 360 211 l 1,45,-1
 360 212 l 1,46,47
 357 231 357 231 357 248 c 0,48,49
 357 297 357 297 385 328 c 1,50,51
 408 358 408 358 478 358 c 0,52,53
 509 358 509 358 528 349 c 0,54,55
 572 326 572 326 577 265 c 0,56,57
 578 245 578 245 578 235 c 0,58,59
 578 190 578 190 553 170 c 128,-1,60
 528 150 528 150 495 134.5 c 128,-1,61
 462 119 462 119 449 103 c 1,62,63
 438 78 438 78 444 74 c 1,64,65
 457 74 457 74 474 74 c 2,18,-1
174 572 m 1,66,-1
 169 347 l 2,67,68
 169 324 169 324 170 312 c 0,69,70
 170 303 170 303 139 303 c 1,71,-1
 91 306 l 1,72,-1
 91 355 l 1,73,-1
 97 545 l 2,74,75
 97 552 97 552 96 555 c 1,76,77
 94 555 94 555 87.5 541 c 128,-1,78
 81 527 81 527 75 527 c 128,-1,79
 69 527 69 527 42 534.5 c 128,-1,80
 15 542 15 542 15 545 c 0,81,82
 17 560 17 560 43 605 c 128,-1,83
 69 650 69 650 75 656 c 1,84,-1
 120 657 l 2,85,86
 138 657 138 657 172 655 c 1,87,88
 174 636 174 636 174 572 c 1,66,-1
EndSplineSet
EndChar

StartChar: threequarters
Encoding: 190 190 127
Width: 626
GlyphClass: 2
Flags: W
LayerCount: 2
Fore
SplineSet
413 708 m 2,0,-1
 463 710 l 2,1,2
 486 710 486 710 490 705 c 1,3,-1
 490 704 l 1,4,5
 311 168 311 168 249 8 c 1,6,-1
 247 5 l 1,7,-1
 245 1 l 1,8,9
 243 1 243 1 236 1 c 2,10,-1
 175 2 l 2,11,12
 161 2 161 2 158 1 c 1,13,14
 179 64 179 64 270 317.5 c 128,-1,15
 361 571 361 571 398 709 c 1,16,17
 401 708 401 708 413 708 c 2,0,-1
604 104 m 1,18,-1
 578 102 l 1,19,-1
 577 102 l 1,20,21
 578 103 578 103 574 58.5 c 128,-1,22
 570 14 570 14 569 6 c 1,23,24
 566 3 566 3 494 3 c 1,25,-1
 495 110 l 1,26,27
 490 112 490 112 441.5 112 c 128,-1,28
 393 112 393 112 392 112 c 1,29,-1
 392 113 l 1,30,31
 387 134 387 134 387 156 c 128,-1,32
 387 178 387 178 387 185 c 2,33,-1
 387 186 l 1,34,-1
 497 355 l 1,35,-1
 577 356 l 1,36,-1
 578 356 l 1,37,38
 579 351 579 351 579 334 c 2,39,-1
 578 233 l 2,40,41
 578 188 578 188 580 182 c 1,42,43
 583 184 583 184 594.5 182 c 128,-1,44
 606 180 606 180 608 180 c 1,45,-1
 605 104 l 1,46,-1
 604 104 l 1,18,-1
483.5 180 m 128,-1,48
 505 180 505 180 512 181 c 1,49,-1
 513 181 l 1,50,-1
 513 182 l 1,51,-1
 515 252 l 2,52,53
 515 261 515 261 489 221.5 c 128,-1,54
 463 182 463 182 462.5 181 c 128,-1,47
 462 180 462 180 483.5 180 c 128,-1,48
89 547 m 1,55,-1
 23 546 l 1,56,-1
 23 547 l 2,57,58
 23 587 23 587 25 593 c 0,59,60
 36 631 36 631 80 647 c 0,61,62
 106 657 106 657 128 657 c 0,63,64
 204 657 204 657 229 614 c 0,65,66
 236 603 236 603 236 592.5 c 128,-1,67
 236 582 236 582 236.5 558 c 128,-1,68
 237 534 237 534 237 489 c 0,69,70
 237 375 237 375 227 354 c 1,71,72
 214 320 214 320 177 308 c 1,73,74
 155 302 155 302 134 302 c 0,75,76
 71 302 71 302 48 322 c 0,77,78
 45 324 45 324 44 324 c 0,79,80
 29 342 29 342 28 360 c 1,81,82
 26 368 26 368 25 384.5 c 128,-1,83
 24 401 24 401 23.5 406.5 c 128,-1,84
 23 412 23 412 24 412 c 2,85,-1
 81 416 l 2,86,87
 86 416 86 416 89 416 c 2,88,-1
 90 416 l 1,89,90
 97 395 97 395 119 386 c 0,91,92
 126 384 126 384 136 384 c 128,-1,93
 146 384 146 384 157 397 c 1,94,95
 163 406 163 406 161.5 419 c 128,-1,96
 160 432 160 432 148.5 440.5 c 128,-1,97
 137 449 137 449 121.5 449 c 128,-1,98
 106 449 106 449 94 447 c 1,99,100
 90 455 90 455 90 468 c 2,101,-1
 92 516 l 1,102,103
 98 518 98 518 119 518.5 c 128,-1,104
 140 519 140 519 151 525 c 128,-1,105
 162 531 162 531 161 550 c 1,106,107
 161 577 161 577 135 577 c 0,108,109
 124 577 124 577 109.5 569 c 128,-1,110
 95 561 95 561 89 547 c 1,55,-1
EndSplineSet
EndChar

StartChar: questiondown
Encoding: 191 191 128
Width: 450
GlyphClass: 2
Flags: W
LayerCount: 2
Fore
SplineSet
223 439 m 2,0,-1
 277 438 l 2,1,2
 292 438 292 438 303 439 c 1,3,-1
 304 439 l 1,4,5
 308 435 308 435 308 417 c 2,6,-1
 306 379 l 1,7,8
 293 298 293 298 267 260 c 1,9,10
 260 247 260 247 242 222 c 0,11,12
 178 137 178 137 178 108 c 0,13,14
 178 77 178 77 217 65 c 1,15,16
 230 58 230 58 238 58 c 128,-1,17
 246 58 246 58 256.5 62.5 c 128,-1,18
 267 67 267 67 274 77.5 c 128,-1,19
 281 88 281 88 291 102 c 128,-1,20
 301 116 301 116 312 120 c 1,21,22
 335 122 335 122 348 122 c 2,23,-1
 434 118 l 1,24,-1
 434 117 l 1,25,26
 430 38 430 38 374.5 -24.5 c 128,-1,27
 319 -87 319 -87 237 -91 c 0,28,29
 224 -92 224 -92 211 -92 c 0,30,31
 134 -92 134 -92 76.5 -41 c 128,-1,32
 19 10 19 10 19 83 c 0,33,34
 19 151 19 151 67 211 c 0,35,36
 78 226 78 226 97.5 246.5 c 128,-1,37
 117 267 117 267 127 280 c 0,38,39
 162 329 162 329 176 402 c 1,40,41
 181 419 181 419 181 426 c 128,-1,42
 181 433 181 433 180 436 c 1,43,-1
 180 437 l 1,44,45
 196 439 196 439 223 439 c 2,0,-1
307 615 m 1,46,47
 310 598 310 598 310 562 c 1,48,-1
 308 499 l 1,49,50
 285 491 285 491 240.5 491 c 128,-1,51
 196 491 196 491 183 497 c 1,52,-1
 189 614 l 1,53,-1
 189 616 l 1,54,-1
 191 616 l 1,55,-1
 304 615 l 1,56,-1
 307 615 l 1,46,47
EndSplineSet
EndChar

StartChar: Agrave
Encoding: 192 192 129
Width: 434
GlyphClass: 2
Flags: W
LayerCount: 2
Fore
SplineSet
290 754 m 1,0,1
 266 748 266 748 222 748 c 128,-1,2
 178 748 178 748 156 750 c 1,3,4
 148 762 148 762 104.5 801 c 128,-1,5
 61 840 61 840 54 847 c 1,6,-1
 123 917 l 1,7,8
 150 896 150 896 213.5 831 c 128,-1,9
 277 766 277 766 290 754 c 1,0,1
157 700 m 1,10,11
 171 702 171 702 176 701 c 128,-1,12
 181 700 181 700 202 700 c 128,-1,13
 223 700 223 700 280 705 c 1,14,15
 296 655 296 655 362 351 c 2,16,-1
 437 1 l 1,17,-1
 437 0 l 1,18,19
 412 -5 412 -5 379 -5 c 128,-1,20
 346 -5 346 -5 303 4 c 1,21,-1
 302 4 l 1,22,23
 295 23 295 23 280 84.5 c 128,-1,24
 265 146 265 146 255 167 c 1,25,26
 251 170 251 170 236 170 c 2,27,-1
 193 168 l 1,28,29
 185 149 185 149 173 87 c 128,-1,30
 161 25 161 25 149 1 c 1,31,32
 140 -1 140 -1 131 -1 c 2,33,-1
 6 1 l 2,34,35
 5 1 5 1 4 2 c 1,36,37
 59 375 59 375 157 700 c 1,10,11
186 286 m 1,38,39
 223 286 223 286 260 286 c 1,40,41
 236 495 236 495 222 495 c 0,42,43
 218 495 218 495 214 480 c 128,-1,44
 210 465 210 465 186 286 c 1,38,39
EndSplineSet
EndChar

StartChar: Aacute
Encoding: 193 193 130
Width: 434
GlyphClass: 2
Flags: W
LayerCount: 2
Fore
SplineSet
266 750 m 1,0,1
 244 748 244 748 224 748 c 0,2,3
 155 748 155 748 132 754 c 1,4,5
 145 766 145 766 208.5 831 c 128,-1,6
 272 896 272 896 299 917 c 1,7,-1
 368 847 l 1,8,9
 361 840 361 840 336 819 c 0,10,11
 272 764 272 764 266 750 c 1,0,1
157 700 m 1,12,13
 171 702 171 702 176 701 c 128,-1,14
 181 700 181 700 202 700 c 128,-1,15
 223 700 223 700 280 705 c 1,16,17
 296 655 296 655 362 351 c 2,18,-1
 437 1 l 1,19,-1
 437 0 l 1,20,21
 412 -5 412 -5 379 -5 c 128,-1,22
 346 -5 346 -5 303 4 c 1,23,-1
 302 4 l 1,24,25
 295 23 295 23 280 84.5 c 128,-1,26
 265 146 265 146 255 167 c 1,27,28
 251 170 251 170 236 170 c 2,29,-1
 193 168 l 1,30,31
 185 149 185 149 173 87 c 128,-1,32
 161 25 161 25 149 1 c 1,33,34
 140 -1 140 -1 131 -1 c 2,35,-1
 6 1 l 2,36,37
 5 1 5 1 4 2 c 1,38,39
 59 375 59 375 157 700 c 1,12,13
186 286 m 1,40,41
 223 286 223 286 260 286 c 1,42,43
 236 495 236 495 222 495 c 0,44,45
 218 495 218 495 214 480 c 128,-1,46
 210 465 210 465 186 286 c 1,40,41
EndSplineSet
EndChar

StartChar: Acircumflex
Encoding: 194 194 131
Width: 434
GlyphClass: 2
Flags: W
LayerCount: 2
Fore
SplineSet
384 756 m 1,0,-1
 306 749 l 1,1,2
 289 749 289 749 269 751 c 0,3,4
 263 751 263 751 243 774 c 128,-1,5
 223 797 223 797 218 800 c 1,6,7
 213 798 213 798 192 775.5 c 128,-1,8
 171 753 171 753 167.5 752 c 128,-1,9
 164 751 164 751 151.5 751 c 128,-1,10
 139 751 139 751 59 755 c 1,11,12
 91 797 91 797 119.5 824.5 c 128,-1,13
 148 852 148 852 178.5 879.5 c 128,-1,14
 209 907 209 907 221 918 c 1,15,-1
 384 756 l 1,0,-1
157 700 m 1,16,17
 171 702 171 702 176 701 c 128,-1,18
 181 700 181 700 202 700 c 128,-1,19
 223 700 223 700 280 705 c 1,20,-1
 362 351 l 1,21,-1
 437 1 l 1,22,-1
 437 0 l 1,23,24
 412 -5 412 -5 379 -5 c 128,-1,25
 346 -5 346 -5 303 4 c 1,26,-1
 302 4 l 1,27,28
 295 23 295 23 280 84.5 c 128,-1,29
 265 146 265 146 255 167 c 1,30,31
 251 170 251 170 236 170 c 2,32,-1
 193 168 l 1,33,34
 185 149 185 149 173 87 c 128,-1,35
 161 25 161 25 149 1 c 1,36,37
 140 -1 140 -1 131 -1 c 2,38,-1
 6 1 l 2,39,40
 5 1 5 1 4 2 c 1,41,42
 5 5 5 5 24 115 c 128,-1,43
 43 225 43 225 79 391.5 c 128,-1,44
 115 558 115 558 157 700 c 1,16,17
186 286 m 1,45,46
 223 286 223 286 260 286 c 1,47,48
 236 495 236 495 222 495 c 0,49,50
 218 495 218 495 214 480 c 128,-1,51
 210 465 210 465 186 286 c 1,45,46
EndSplineSet
EndChar

StartChar: Atilde
Encoding: 195 195 132
Width: 434
GlyphClass: 2
Flags: W
LayerCount: 2
Fore
SplineSet
188 823 m 1,0,1
 131 823 131 823 131 776 c 0,2,3
 131 766 131 766 134 755 c 1,4,-1
 134 754 l 1,5,6
 117 758 117 758 75.5 758 c 128,-1,7
 34 758 34 758 17 757 c 1,8,9
 42 846 42 846 77 886 c 1,10,11
 112 921 112 921 158 921 c 0,12,13
 205 921 205 921 237 880 c 0,14,15
 251 862 251 862 259 857 c 1,16,17
 272 846 272 846 283.5 846 c 128,-1,18
 295 846 295 846 310.5 863 c 128,-1,19
 326 880 326 880 336 910 c 0,20,21
 337 910 337 910 418 913 c 1,22,-1
 419 912 l 2,23,24
 419 911 419 911 420 911 c 1,25,-1
 420 910 l 1,26,27
 421 899 421 899 421 889 c 0,28,29
 421 849 421 849 400 809 c 0,30,31
 369 749 369 749 305 749 c 0,32,33
 283 749 283 749 259 760 c 128,-1,34
 235 771 235 771 223 800 c 1,35,36
 210 822 210 822 188 823 c 1,0,1
157 700 m 1,37,38
 171 702 171 702 176 701 c 128,-1,39
 181 700 181 700 202 700 c 128,-1,40
 223 700 223 700 280 705 c 1,41,42
 296 655 296 655 362 351 c 2,43,-1
 437 1 l 1,44,-1
 437 0 l 1,45,46
 412 -5 412 -5 379 -5 c 128,-1,47
 346 -5 346 -5 303 4 c 1,48,-1
 302 4 l 1,49,50
 295 23 295 23 280 84.5 c 128,-1,51
 265 146 265 146 255 167 c 1,52,53
 251 170 251 170 236 170 c 2,54,-1
 193 168 l 1,55,56
 185 149 185 149 173 87 c 128,-1,57
 161 25 161 25 149 1 c 1,58,59
 140 -1 140 -1 131 -1 c 2,60,-1
 6 1 l 2,61,62
 5 1 5 1 4 2 c 1,63,64
 5 5 5 5 24 115 c 128,-1,65
 43 225 43 225 79 391.5 c 128,-1,66
 115 558 115 558 157 700 c 1,37,38
186 286 m 1,67,68
 223 286 223 286 260 286 c 1,69,70
 236 495 236 495 222 495 c 0,71,72
 218 495 218 495 214 480 c 128,-1,73
 210 465 210 465 186 286 c 1,67,68
EndSplineSet
EndChar

StartChar: Adieresis
Encoding: 196 196 133
Width: 434
GlyphClass: 2
Flags: W
LayerCount: 2
Fore
SplineSet
69 759 m 1,0,1
 66 775 66 775 66 805 c 1,2,-1
 68 860 l 1,3,4
 89 867 89 867 126.5 867 c 128,-1,5
 164 867 164 867 177 861 c 1,6,-1
 176 839 l 1,7,8
 171 773 171 773 171 760 c 2,9,-1
 171 758 l 1,10,-1
 169 758 l 1,11,-1
 72 759 l 1,12,-1
 69 759 l 1,0,1
243 759 m 1,13,14
 240 775 240 775 240 805 c 1,15,-1
 242 860 l 1,16,17
 263 867 263 867 300.5 867 c 128,-1,18
 338 867 338 867 351 861 c 1,19,-1
 350 839 l 1,20,21
 345 773 345 773 345 760 c 2,22,-1
 345 758 l 1,23,-1
 343 758 l 1,24,-1
 246 759 l 1,25,-1
 243 759 l 1,13,14
157 700 m 1,26,27
 171 702 171 702 176 701 c 128,-1,28
 181 700 181 700 202 700 c 128,-1,29
 223 700 223 700 280 705 c 1,30,-1
 362 351 l 1,31,-1
 437 1 l 1,32,-1
 437 0 l 1,33,34
 412 -5 412 -5 379 -5 c 128,-1,35
 346 -5 346 -5 303 4 c 1,36,-1
 302 4 l 1,37,38
 295 23 295 23 280 84.5 c 128,-1,39
 265 146 265 146 255 167 c 1,40,41
 251 170 251 170 236 170 c 2,42,-1
 193 168 l 1,43,44
 185 149 185 149 173 87 c 128,-1,45
 161 25 161 25 149 1 c 1,46,47
 140 -1 140 -1 131 -1 c 2,48,-1
 6 1 l 2,49,50
 5 1 5 1 4 2 c 1,51,52
 5 5 5 5 24 115 c 128,-1,53
 43 225 43 225 79 391.5 c 128,-1,54
 115 558 115 558 157 700 c 1,26,27
186 286 m 1,55,56
 223 286 223 286 260 286 c 1,57,58
 236 495 236 495 222 495 c 0,59,60
 218 495 218 495 214 480 c 128,-1,61
 210 465 210 465 186 286 c 1,55,56
EndSplineSet
EndChar

StartChar: Aring
Encoding: 197 197 134
Width: 434
GlyphClass: 2
Flags: W
LayerCount: 2
Fore
SplineSet
232 753 m 1,0,1
 221 751 221 751 206 751 c 128,-1,2
 191 751 191 751 176 752 c 0,3,4
 142 754 142 754 131 781 c 1,5,6
 124 816 124 816 124 844 c 0,7,8
 124 893 124 893 141 915 c 1,9,10
 164 936 164 936 203 936 c 0,11,12
 211 936 211 936 219 935 c 0,13,14
 279 933 279 933 298 906 c 1,15,16
 306 878 306 878 306 845.5 c 128,-1,17
 306 813 306 813 292 777 c 1,18,19
 278 755 278 755 232 753 c 1,0,1
169 848 m 0,20,21
 169 814 169 814 179 804 c 1,22,23
 190 795 190 795 204 795 c 2,24,-1
 214 795 l 1,25,26
 251 797 251 797 257 810 c 1,27,28
 262 833 262 833 262 843 c 0,29,30
 262 866 262 866 255 877 c 1,31,32
 241 891 241 891 220.5 891 c 128,-1,33
 200 891 200 891 186 885 c 1,34,35
 174 877 174 877 171.5 864 c 128,-1,36
 169 851 169 851 169 848 c 0,20,21
157 700 m 1,37,38
 171 702 171 702 176 701 c 128,-1,39
 181 700 181 700 202 700 c 128,-1,40
 223 700 223 700 280 705 c 1,41,-1
 362 351 l 1,42,-1
 437 1 l 1,43,-1
 437 0 l 1,44,45
 412 -5 412 -5 379 -5 c 128,-1,46
 346 -5 346 -5 303 4 c 1,47,-1
 302 4 l 1,48,49
 295 23 295 23 280 84.5 c 128,-1,50
 265 146 265 146 255 167 c 1,51,52
 251 170 251 170 236 170 c 2,53,-1
 193 168 l 1,54,55
 185 149 185 149 173 87 c 128,-1,56
 161 25 161 25 149 1 c 1,57,58
 140 -1 140 -1 131 -1 c 2,59,-1
 6 1 l 2,60,61
 5 1 5 1 4 2 c 1,62,63
 5 5 5 5 24 115 c 128,-1,64
 43 225 43 225 79 391.5 c 128,-1,65
 115 558 115 558 157 700 c 1,37,38
186 286 m 1,66,67
 223 286 223 286 260 286 c 1,68,69
 236 495 236 495 222 495 c 0,70,71
 218 495 218 495 214 480 c 128,-1,72
 210 465 210 465 186 286 c 1,66,67
EndSplineSet
EndChar

StartChar: AE
Encoding: 198 198 135
Width: 716
GlyphClass: 2
Flags: W
LayerCount: 2
Fore
SplineSet
557 366 m 1,0,-1
 554 280 l 1,1,2
 538 277 538 277 509 276.5 c 128,-1,3
 480 276 480 276 459 275.5 c 128,-1,4
 438 275 438 275 433 270 c 1,5,6
 431 235 431 235 431 198 c 128,-1,7
 431 161 431 161 439 143 c 1,8,-1
 440 143 l 1,9,10
 475 141 475 141 564.5 141 c 128,-1,11
 654 141 654 141 698 137 c 1,12,-1
 698 134 l 1,13,14
 699 115 699 115 699 82.5 c 128,-1,15
 699 50 699 50 692 6 c 1,16,-1
 690 4 l 1,17,-1
 406 1 l 2,18,19
 338 1 338 1 280 5 c 1,20,21
 276 21 276 21 266 57.5 c 128,-1,22
 256 94 256 94 252 115 c 1,23,-1
 252 116 l 1,24,-1
 183 118 l 1,25,-1
 181 118 l 1,26,27
 181 117 181 117 167 70.5 c 128,-1,28
 153 24 153 24 148 3 c 1,29,-1
 145 1 l 1,30,-1
 68 3 l 1,31,32
 11 3 11 3 7 1 c 128,-1,33
 3 -1 3 -1 2 -1 c 1,34,35
 24 115 24 115 25.5 133 c 128,-1,36
 27 151 27 151 32 177 c 128,-1,37
 37 203 37 203 39 211 c 128,-1,38
 41 219 41 219 51.5 264.5 c 128,-1,39
 62 310 62 310 71.5 349 c 128,-1,40
 81 388 81 388 104.5 488 c 128,-1,41
 128 588 128 588 153 693 c 1,42,43
 334 701 334 701 695 701 c 1,44,-1
 695 699 l 1,45,46
 697 678 697 678 697 654 c 2,47,-1
 695 557 l 1,48,-1
 695 555 l 1,49,50
 655 546 655 546 584 546 c 1,51,-1
 529 547 l 1,52,53
 466 547 466 547 428 542 c 1,54,55
 428 540 428 540 428 535 c 2,56,-1
 425 459 l 1,57,58
 425 431 425 431 431 425 c 1,59,60
 449 422 449 422 490.5 422 c 128,-1,61
 532 422 532 422 552 419 c 1,62,63
 557 397 557 397 557 366 c 1,0,-1
186 284 m 1,64,-1
 188 284 l 1,65,66
 192 286 192 286 201 286 c 2,67,-1
 238 283 l 1,68,69
 251 283 251 283 254 287 c 1,70,71
 250 312 250 312 236 360 c 2,72,-1
 218 421 l 1,73,74
 200 371 200 371 195 349.5 c 128,-1,75
 190 328 190 328 186 284 c 1,64,-1
EndSplineSet
EndChar

StartChar: Ccedilla
Encoding: 199 199 136
Width: 476
GlyphClass: 2
Flags: W
LayerCount: 2
Fore
SplineSet
151 -125 m 2,0,-1
 177 -10 l 1,1,-1
 177 -7 l 1,2,3
 167 -8 167 -8 149 -8 c 128,-1,4
 131 -8 131 -8 106.5 5 c 128,-1,5
 82 18 82 18 66 48 c 0,6,7
 37 104 37 104 35 184 c 1,8,-1
 35 194 l 1,9,10
 33 272 33 272 33 357.5 c 128,-1,11
 33 443 33 443 35.5 487.5 c 128,-1,12
 38 532 38 532 39 535 c 0,13,14
 48 629 48 629 103 676 c 1,15,16
 130 693 130 693 185 693 c 0,17,18
 191 693 191 693 199 693 c 128,-1,19
 207 693 207 693 216 693 c 0,20,21
 292 693 292 693 331 679 c 1,22,23
 403 649 403 649 437 567 c 0,24,25
 457 519 457 519 457 479.5 c 128,-1,26
 457 440 457 440 447 408 c 0,27,28
 446 408 446 408 446 408 c 1,29,30
 429 402 429 402 394 402 c 128,-1,31
 359 402 359 402 312 409 c 1,32,-1
 310 409 l 1,33,34
 305 422 305 422 303 455.5 c 128,-1,35
 301 489 301 489 292 511 c 0,36,37
 279 540 279 540 241 540 c 0,38,39
 217 540 217 540 199.5 523.5 c 128,-1,40
 182 507 182 507 180 480 c 0,41,42
 177 410 177 410 177 342.5 c 128,-1,43
 177 275 177 275 182 218 c 1,44,45
 195 157 195 157 235 146 c 0,46,47
 241 145 241 145 246 145 c 0,48,49
 287 145 287 145 304 180 c 0,50,51
 313 199 313 199 314 231.5 c 128,-1,52
 315 264 315 264 316 274 c 1,53,-1
 386 276 l 1,54,55
 424 276 424 276 446 270 c 1,56,57
 458 233 458 233 458 198 c 0,58,59
 458 140 458 140 426 84 c 0,60,61
 375 -4 375 -4 274 -10 c 1,62,-1
 272 -10 l 1,63,-1
 271 -9 l 1,64,65
 250 -98 250 -98 241 -125 c 1,66,-1
 241 -127 l 1,67,68
 236 -127 236 -127 229 -127 c 2,69,-1
 169 -129 l 2,70,71
 151 -129 151 -129 151 -125 c 2,0,-1
EndSplineSet
EndChar

StartChar: Egrave
Encoding: 200 200 137
Width: 481
GlyphClass: 2
Flags: W
LayerCount: 2
Fore
SplineSet
347 754 m 1,0,1
 323 748 323 748 279 748 c 128,-1,2
 235 748 235 748 213 750 c 1,3,4
 205 762 205 762 161.5 801 c 128,-1,5
 118 840 118 840 111 847 c 1,6,-1
 180 917 l 1,7,8
 207 896 207 896 270.5 831 c 128,-1,9
 334 766 334 766 347 754 c 1,0,1
201 141 m 1,10,-1
 421 135 l 2,11,12
 444 135 444 135 463 136 c 1,13,-1
 463 134 l 1,14,15
 465 110 465 110 465 74 c 128,-1,16
 465 38 465 38 455 3 c 1,17,-1
 171 0 l 2,18,19
 102 0 102 0 45 5 c 1,20,-1
 40 474 l 1,21,22
 40 587 40 587 46 689 c 1,23,24
 215 698 215 698 337 698 c 128,-1,25
 459 698 459 698 460 695 c 0,26,27
 463 674 463 674 463 650 c 2,28,-1
 460 553 l 1,29,-1
 460 552 l 1,30,31
 416 542 416 542 344 542 c 2,32,-1
 292 542 l 2,33,34
 236 542 236 542 198 540 c 1,35,-1
 195 540 l 1,36,-1
 194 539 l 1,37,-1
 191 452 l 2,38,39
 191 426 191 426 196 421 c 1,40,41
 250 418 250 418 319 418 c 1,42,-1
 319 417 l 1,43,44
 323 414 323 414 323 375 c 2,45,-1
 321 278 l 1,46,47
 300 272 300 272 253.5 272 c 128,-1,48
 207 272 207 272 200 267 c 1,49,50
 196 246 196 246 196 214.5 c 128,-1,51
 196 183 196 183 200 142 c 1,52,-1
 201 141 l 1,10,-1
EndSplineSet
EndChar

StartChar: Eacute
Encoding: 201 201 138
Width: 481
GlyphClass: 2
Flags: W
LayerCount: 2
Fore
SplineSet
201 141 m 1,0,-1
 421 135 l 2,1,2
 444 135 444 135 463 136 c 1,3,-1
 463 134 l 1,4,5
 465 110 465 110 465 74 c 128,-1,6
 465 38 465 38 455 3 c 1,7,-1
 171 0 l 2,8,9
 102 0 102 0 45 5 c 1,10,-1
 40 474 l 1,11,12
 40 587 40 587 46 689 c 1,13,14
 215 698 215 698 337 698 c 128,-1,15
 459 698 459 698 460 695 c 0,16,17
 463 674 463 674 463 650 c 2,18,-1
 460 553 l 1,19,-1
 460 552 l 1,20,21
 416 542 416 542 344 542 c 2,22,-1
 292 542 l 2,23,24
 236 542 236 542 198 540 c 1,25,-1
 195 540 l 1,26,-1
 194 539 l 1,27,-1
 191 452 l 2,28,29
 191 426 191 426 196 421 c 1,30,31
 250 418 250 418 319 418 c 1,32,-1
 319 417 l 1,33,34
 323 414 323 414 323 375 c 2,35,-1
 321 278 l 1,36,37
 300 272 300 272 253.5 272 c 128,-1,38
 207 272 207 272 200 267 c 1,39,40
 196 246 196 246 196 214.5 c 128,-1,41
 196 183 196 183 200 142 c 1,42,-1
 201 141 l 1,0,-1
294 750 m 1,43,44
 272 748 272 748 252 748 c 0,45,46
 182 748 182 748 160 754 c 1,47,48
 173 766 173 766 236.5 831 c 128,-1,49
 300 896 300 896 327 917 c 1,50,-1
 396 847 l 1,51,52
 389 840 389 840 364 819 c 0,53,54
 300 764 300 764 294 750 c 1,43,44
EndSplineSet
EndChar

StartChar: Ecircumflex
Encoding: 202 202 139
Width: 481
GlyphClass: 2
Flags: W
LayerCount: 2
Fore
SplineSet
415 756 m 1,0,-1
 337 749 l 1,1,2
 320 749 320 749 300 751 c 0,3,4
 294 751 294 751 274 774 c 128,-1,5
 254 797 254 797 249 800 c 1,6,7
 244 798 244 798 223 775.5 c 128,-1,8
 202 753 202 753 198.5 752 c 128,-1,9
 195 751 195 751 182.5 751 c 128,-1,10
 170 751 170 751 90 755 c 1,11,12
 122 797 122 797 150.5 824.5 c 128,-1,13
 179 852 179 852 209.5 879.5 c 128,-1,14
 240 907 240 907 252 918 c 1,15,-1
 415 756 l 1,0,-1
201 141 m 1,16,-1
 421 135 l 2,17,18
 444 135 444 135 463 136 c 1,19,-1
 463 134 l 1,20,21
 465 110 465 110 465 74 c 128,-1,22
 465 38 465 38 455 3 c 1,23,-1
 171 0 l 2,24,25
 102 0 102 0 45 5 c 1,26,-1
 40 474 l 1,27,28
 40 587 40 587 46 689 c 1,29,30
 215 698 215 698 337 698 c 128,-1,31
 459 698 459 698 460 695 c 0,32,33
 463 674 463 674 463 650 c 2,34,-1
 460 553 l 1,35,-1
 460 552 l 1,36,37
 416 542 416 542 344 542 c 2,38,-1
 292 542 l 2,39,40
 236 542 236 542 198 540 c 1,41,-1
 195 540 l 1,42,-1
 194 539 l 1,43,-1
 191 452 l 2,44,45
 191 426 191 426 196 421 c 1,46,47
 250 418 250 418 319 418 c 1,48,-1
 319 417 l 1,49,50
 323 414 323 414 323 375 c 2,51,-1
 321 278 l 1,52,53
 300 272 300 272 253.5 272 c 128,-1,54
 207 272 207 272 200 267 c 1,55,56
 196 246 196 246 196 214.5 c 128,-1,57
 196 183 196 183 200 142 c 1,58,-1
 201 141 l 1,16,-1
EndSplineSet
EndChar

StartChar: Edieresis
Encoding: 203 203 140
Width: 481
GlyphClass: 2
Flags: W
LayerCount: 2
Fore
SplineSet
201 141 m 1,0,-1
 421 135 l 2,1,2
 444 135 444 135 463 136 c 1,3,-1
 463 134 l 1,4,5
 465 110 465 110 465 74 c 128,-1,6
 465 38 465 38 455 3 c 1,7,-1
 171 0 l 2,8,9
 102 0 102 0 45 5 c 1,10,-1
 40 474 l 1,11,12
 40 587 40 587 46 689 c 1,13,14
 215 698 215 698 337 698 c 128,-1,15
 459 698 459 698 460 695 c 0,16,17
 463 674 463 674 463 650 c 2,18,-1
 460 553 l 1,19,-1
 460 552 l 1,20,21
 416 542 416 542 344 542 c 2,22,-1
 292 542 l 2,23,24
 236 542 236 542 198 540 c 1,25,-1
 195 540 l 1,26,-1
 194 539 l 1,27,-1
 191 452 l 2,28,29
 191 426 191 426 196 421 c 1,30,31
 250 418 250 418 319 418 c 1,32,-1
 319 417 l 1,33,34
 323 414 323 414 323 375 c 2,35,-1
 321 278 l 1,36,37
 300 272 300 272 253.5 272 c 128,-1,38
 207 272 207 272 200 267 c 1,39,40
 196 246 196 246 196 214.5 c 128,-1,41
 196 183 196 183 200 142 c 1,42,-1
 201 141 l 1,0,-1
108 759 m 1,43,44
 105 775 105 775 105 805 c 1,45,-1
 107 860 l 1,46,47
 128 867 128 867 165.5 867 c 128,-1,48
 203 867 203 867 216 861 c 1,49,-1
 214 839 l 1,50,51
 210 773 210 773 210 760 c 2,52,-1
 210 758 l 1,53,-1
 208 758 l 1,54,-1
 111 759 l 1,55,-1
 108 759 l 1,43,44
282 759 m 1,56,57
 279 775 279 775 279 805 c 1,58,-1
 281 860 l 1,59,60
 302 867 302 867 339.5 867 c 128,-1,61
 377 867 377 867 390 861 c 1,62,-1
 388 839 l 1,63,64
 384 773 384 773 384 760 c 2,65,-1
 384 758 l 1,66,-1
 382 758 l 1,67,-1
 285 759 l 1,68,-1
 282 759 l 1,56,57
EndSplineSet
EndChar

StartChar: Igrave
Encoding: 204 204 141
Width: 260
GlyphClass: 2
Flags: W
LayerCount: 2
Fore
SplineSet
220 754 m 1,0,1
 196 748 196 748 152 748 c 128,-1,2
 108 748 108 748 86 750 c 1,3,4
 78 762 78 762 34.5 801 c 128,-1,5
 -9 840 -9 840 -16 847 c 1,6,-1
 53 917 l 1,7,8
 80 896 80 896 143.5 831 c 128,-1,9
 207 766 207 766 220 754 c 1,0,1
52 708 m 2,10,-1
 88 706 l 1,11,12
 171 703 171 703 198 703 c 2,13,-1
 222 703 l 1,14,-1
 222 699 l 1,15,-1
 215 222 l 1,16,17
 215 143 215 143 221 5 c 1,18,19
 218 -6 218 -6 161 -6 c 1,20,-1
 58 -3 l 2,21,22
 43 -3 43 -3 39 -4 c 1,23,24
 44 61 44 61 44 167 c 1,25,-1
 39 512 l 1,26,27
 39 640 39 640 47 706 c 1,28,-1
 47 708 l 1,29,30
 49 708 49 708 52 708 c 2,10,-1
EndSplineSet
EndChar

StartChar: Iacute
Encoding: 205 205 142
Width: 259
GlyphClass: 2
Flags: W
LayerCount: 2
Fore
SplineSet
47 708 m 1,0,-1
 88 706 l 1,1,2
 171 703 171 703 198 703 c 2,3,-1
 222 703 l 1,4,-1
 222 699 l 1,5,-1
 215 222 l 1,6,7
 215 143 215 143 221 5 c 1,8,9
 218 -6 218 -6 161 -6 c 1,10,-1
 58 -3 l 2,11,12
 43 -3 43 -3 39 -4 c 1,13,14
 44 61 44 61 44 167 c 1,15,-1
 39 512 l 1,16,17
 39 640 39 640 47 706 c 1,18,-1
 47 708 l 1,0,-1
193 750 m 1,19,20
 171 748 171 748 151 748 c 0,21,22
 82 748 82 748 59 754 c 1,23,24
 72 766 72 766 135.5 831 c 128,-1,25
 199 896 199 896 226 917 c 1,26,-1
 295 847 l 1,27,28
 288 840 288 840 264 819 c 0,29,30
 199 764 199 764 193 750 c 1,19,20
EndSplineSet
EndChar

StartChar: Icircumflex
Encoding: 206 206 143
Width: 260
GlyphClass: 2
Flags: W
LayerCount: 2
Fore
SplineSet
307 756 m 1,0,-1
 229 749 l 1,1,2
 212 749 212 749 192 751 c 0,3,4
 186 751 186 751 166 774 c 128,-1,5
 146 797 146 797 141 800 c 1,6,7
 136 798 136 798 115 775.5 c 128,-1,8
 94 753 94 753 90.5 752 c 128,-1,9
 87 751 87 751 74.5 751 c 128,-1,10
 62 751 62 751 -18 755 c 1,11,12
 14 797 14 797 42.5 824.5 c 128,-1,13
 71 852 71 852 101.5 879.5 c 128,-1,14
 132 907 132 907 144 918 c 1,15,-1
 307 756 l 1,0,-1
52 708 m 2,16,-1
 88 706 l 1,17,18
 171 703 171 703 198 703 c 2,19,-1
 222 703 l 1,20,-1
 222 699 l 1,21,-1
 215 222 l 1,22,23
 215 143 215 143 221 5 c 1,24,25
 218 -6 218 -6 161 -6 c 1,26,-1
 58 -3 l 2,27,28
 43 -3 43 -3 39 -4 c 1,29,30
 44 61 44 61 44 167 c 1,31,-1
 39 512 l 1,32,33
 39 640 39 640 47 706 c 1,34,-1
 47 708 l 1,35,36
 49 708 49 708 52 708 c 2,16,-1
EndSplineSet
EndChar

StartChar: Idieresis
Encoding: 207 207 144
Width: 260
GlyphClass: 2
Flags: W
LayerCount: 2
Fore
SplineSet
47 708 m 1,0,-1
 88 706 l 1,1,2
 171 703 171 703 198 703 c 2,3,-1
 222 703 l 1,4,-1
 222 699 l 1,5,-1
 215 222 l 1,6,7
 215 143 215 143 221 5 c 1,8,9
 218 -6 218 -6 161 -6 c 1,10,-1
 58 -3 l 2,11,12
 43 -3 43 -3 39 -4 c 1,13,14
 44 61 44 61 44 167 c 1,15,-1
 39 512 l 1,16,17
 39 640 39 640 47 706 c 1,18,-1
 47 708 l 1,0,-1
2 759 m 1,19,20
 -1 775 -1 775 -1 805 c 1,21,-1
 1 860 l 1,22,23
 22 867 22 867 59.5 867 c 128,-1,24
 97 867 97 867 110 861 c 1,25,-1
 108 839 l 1,26,27
 104 773 104 773 104 760 c 2,28,-1
 104 758 l 1,29,-1
 102 758 l 1,30,-1
 5 759 l 1,31,-1
 2 759 l 1,19,20
176 759 m 1,32,33
 173 775 173 775 173 805 c 1,34,-1
 175 860 l 1,35,36
 196 867 196 867 233.5 867 c 128,-1,37
 271 867 271 867 284 861 c 1,38,-1
 282 839 l 1,39,40
 278 773 278 773 278 760 c 2,41,-1
 278 758 l 1,42,-1
 276 758 l 1,43,-1
 179 759 l 1,44,-1
 176 759 l 1,32,33
EndSplineSet
EndChar

StartChar: Eth
Encoding: 208 208 145
Width: 482
GlyphClass: 2
Flags: W
LayerCount: 2
Fore
SplineSet
-1 272 m 1,0,-1
 -5 390 l 2,1,2
 -5 400 -5 400 -5 410 c 1,3,-1
 52 409 l 1,4,5
 53 482 53 482 53 555.5 c 128,-1,6
 53 629 53 629 51 687 c 1,7,8
 58 688 58 688 94 694 c 0,9,10
 175 706 175 706 203 706 c 128,-1,11
 231 706 231 706 242.5 704.5 c 128,-1,12
 254 703 254 703 281.5 698 c 128,-1,13
 309 693 309 693 326 683 c 0,14,15
 369 656 369 656 396 612 c 128,-1,16
 423 568 423 568 434 524 c 1,17,18
 454 458 454 458 458 417.5 c 128,-1,19
 462 377 462 377 462 329 c 128,-1,20
 462 281 462 281 446 219 c 1,21,22
 403 26 403 26 319 8 c 0,23,24
 278 0 278 0 220 0 c 1,25,-1
 74 4 l 2,26,27
 64 4 64 4 56 4 c 1,28,29
 52 132 52 132 52 271 c 1,30,31
 33 272 33 272 -1 272 c 1,0,-1
201 164 m 1,32,-1
 238 166 l 1,33,34
 282 170 282 170 306 205 c 1,35,36
 332 245 332 245 332 336 c 0,37,38
 332 384 332 384 327 404 c 128,-1,39
 322 424 322 424 319 439 c 128,-1,40
 316 454 316 454 313.5 460 c 128,-1,41
 311 466 311 466 306.5 478 c 128,-1,42
 302 490 302 490 297 496 c 0,43,44
 283 515 283 515 268 525 c 1,45,46
 246 534 246 534 233 534 c 0,47,48
 192 534 192 534 167 524 c 1,49,50
 169 508 169 508 169 475 c 128,-1,51
 169 442 169 442 168 406 c 1,52,-1
 227 405 l 1,53,-1
 230 277 l 1,54,-1
 167 278 l 1,55,56
 167 191 167 191 169 173 c 0,57,58
 169 164 169 164 201 164 c 1,32,-1
EndSplineSet
EndChar

StartChar: Ntilde
Encoding: 209 209 146
Width: 516
GlyphClass: 2
Flags: W
LayerCount: 2
Fore
SplineSet
318 699 m 1,0,1
 358 706 358 706 405.5 706 c 128,-1,2
 453 706 453 706 474 702 c 1,3,-1
 473 382 l 1,4,5
 474 326 474 326 474 199 c 128,-1,6
 474 72 474 72 476 17 c 1,7,-1
 475 3 l 1,8,9
 471 -8 471 -8 434 -8 c 1,10,-1
 355 -3 l 2,11,12
 340 -3 340 -3 328 -5 c 1,13,-1
 327 -5 l 1,14,15
 288 80 288 80 207 294 c 1,16,17
 200 197 200 197 200 124 c 128,-1,18
 200 51 200 51 201 25 c 128,-1,19
 202 -1 202 -1 201 -1 c 0,20,21
 192 -5 192 -5 169 -5 c 1,22,-1
 65 2 l 2,23,24
 51 2 51 2 46.5 1 c 128,-1,25
 42 0 42 0 42 1 c 0,26,27
 42 24 42 24 42 51 c 2,28,-1
 39 408 l 1,29,30
 39 580 39 580 48 695 c 1,31,32
 70 701 70 701 109 701 c 128,-1,33
 148 701 148 701 194 688 c 1,34,-1
 194 687 l 1,35,36
 197 668 197 668 252 578.5 c 128,-1,37
 307 489 307 489 316 474 c 1,38,39
 319 487 319 487 319 515 c 2,40,-1
 315 638 l 1,41,42
 315 672 315 672 318 696 c 1,43,-1
 318 699 l 1,0,1
176 752 m 1,44,45
 159 756 159 756 117.5 756 c 128,-1,46
 76 756 76 756 59 755 c 1,47,48
 84 844 84 844 119 884 c 1,49,50
 154 919 154 919 200 919 c 0,51,52
 247 919 247 919 279 878 c 0,53,54
 293 860 293 860 301 855 c 1,55,56
 314 844 314 844 325.5 844 c 128,-1,57
 337 844 337 844 352.5 861 c 128,-1,58
 368 878 368 878 378 908 c 0,59,60
 379 908 379 908 460 911 c 1,61,-1
 461 910 l 2,62,63
 461 909 461 909 462.5 903.5 c 128,-1,64
 464 898 464 898 464 886 c 0,65,66
 464 838 464 838 426 782 c 1,67,68
 408 761 408 761 389 754 c 128,-1,69
 370 747 370 747 352.5 747 c 128,-1,70
 335 747 335 747 316 752 c 0,71,72
 278 764 278 764 265 798 c 1,73,74
 251 821 251 821 226 821 c 0,75,76
 214 821 214 821 191 812 c 1,77,78
 173 799 173 799 173 774 c 0,79,80
 173 764 173 764 176 753 c 1,81,-1
 176 752 l 1,44,45
EndSplineSet
EndChar

StartChar: Ograve
Encoding: 210 210 147
Width: 485
GlyphClass: 2
Flags: W
LayerCount: 2
Fore
SplineSet
302 754 m 1,0,1
 278 748 278 748 234 748 c 128,-1,2
 190 748 190 748 168 750 c 1,3,4
 160 762 160 762 116.5 801 c 128,-1,5
 73 840 73 840 66 847 c 1,6,-1
 135 917 l 1,7,8
 162 896 162 896 225.5 831 c 128,-1,9
 289 766 289 766 302 754 c 1,0,1
457 473 m 2,10,-1
 454 335 l 1,11,12
 454 267 454 267 451 231 c 2,13,-1
 448 198 l 1,14,15
 443 116 443 116 410 63 c 1,16,17
 380 22 380 22 307 2 c 0,18,19
 270 -9 270 -9 239.5 -9 c 128,-1,20
 209 -9 209 -9 176.5 -6.5 c 128,-1,21
 144 -4 144 -4 110.5 11 c 128,-1,22
 77 26 77 26 61 62 c 1,23,24
 39 100 39 100 37 173 c 1,25,26
 29 326 29 326 29 358 c 0,27,28
 29 438 29 438 32 487 c 1,29,30
 34 599 34 599 85 658 c 1,31,32
 97 670 97 670 108 676 c 0,33,34
 166 705 166 705 239 705 c 0,35,36
 335 705 335 705 397 658 c 1,37,38
 426 632 426 632 438 597 c 1,39,40
 448 574 448 574 452.5 541 c 128,-1,41
 457 508 457 508 457 473 c 2,10,-1
329 253 m 2,42,-1
 331 305 l 1,43,-1
 331 353 l 1,44,-1
 329 421 l 1,45,46
 325 459 325 459 325 478 c 1,47,48
 320 540 320 540 273 563 c 0,49,50
 259 569 259 569 246 569 c 1,51,-1
 195 549 l 1,52,53
 160 521 160 521 148 480 c 1,54,55
 138 431 138 431 138 386.5 c 128,-1,56
 138 342 138 342 139 324 c 0,57,58
 146 213 146 213 158 175 c 1,59,60
 179 131 179 131 238 131 c 0,61,62
 281 131 281 131 309 162 c 1,63,64
 325 184 325 184 326 193.5 c 128,-1,65
 327 203 327 203 327.5 220 c 128,-1,66
 328 237 328 237 329 253 c 2,42,-1
EndSplineSet
EndChar

StartChar: Oacute
Encoding: 211 211 148
Width: 485
GlyphClass: 2
Flags: W
LayerCount: 2
Fore
SplineSet
457 473 m 2,0,-1
 454 335 l 1,1,2
 454 267 454 267 451 231 c 2,3,-1
 448 198 l 1,4,5
 443 116 443 116 410 63 c 1,6,7
 380 22 380 22 307 2 c 0,8,9
 270 -9 270 -9 239.5 -9 c 128,-1,10
 209 -9 209 -9 176.5 -6.5 c 128,-1,11
 144 -4 144 -4 110.5 11 c 128,-1,12
 77 26 77 26 61 62 c 1,13,14
 39 100 39 100 37 173 c 1,15,16
 29 326 29 326 29 358 c 0,17,18
 29 438 29 438 32 487 c 1,19,20
 34 599 34 599 85 658 c 1,21,22
 97 670 97 670 108 676 c 0,23,24
 166 705 166 705 239 705 c 0,25,26
 335 705 335 705 397 658 c 1,27,28
 426 632 426 632 438 597 c 1,29,30
 448 574 448 574 452.5 541 c 128,-1,31
 457 508 457 508 457 473 c 2,0,-1
329 253 m 2,32,-1
 331 305 l 1,33,-1
 331 353 l 1,34,-1
 329 421 l 1,35,36
 325 459 325 459 325 478 c 1,37,38
 320 540 320 540 273 563 c 0,39,40
 259 569 259 569 246 569 c 1,41,-1
 195 549 l 1,42,43
 160 521 160 521 148 480 c 1,44,45
 138 431 138 431 138 386.5 c 128,-1,46
 138 342 138 342 139 324 c 0,47,48
 146 213 146 213 158 175 c 1,49,50
 179 131 179 131 238 131 c 0,51,52
 281 131 281 131 309 162 c 1,53,54
 325 184 325 184 326 193.5 c 128,-1,55
 327 203 327 203 327.5 220 c 128,-1,56
 328 237 328 237 329 253 c 2,32,-1
300 750 m 1,57,58
 278 748 278 748 258 748 c 0,59,60
 188 748 188 748 166 754 c 1,61,62
 179 766 179 766 242.5 831 c 128,-1,63
 306 896 306 896 333 917 c 1,64,-1
 402 847 l 1,65,66
 395 840 395 840 370 819 c 0,67,68
 306 764 306 764 300 750 c 1,57,58
EndSplineSet
EndChar

StartChar: Ocircumflex
Encoding: 212 212 149
Width: 484
GlyphClass: 2
Flags: W
LayerCount: 2
Fore
SplineSet
410 756 m 1,0,-1
 332 749 l 1,1,2
 315 749 315 749 295 751 c 0,3,4
 289 751 289 751 269 774 c 128,-1,5
 249 797 249 797 244 800 c 1,6,7
 239 798 239 798 218 775.5 c 128,-1,8
 197 753 197 753 193.5 752 c 128,-1,9
 190 751 190 751 177.5 751 c 128,-1,10
 165 751 165 751 85 755 c 1,11,12
 117 797 117 797 145.5 824.5 c 128,-1,13
 174 852 174 852 204.5 879.5 c 128,-1,14
 235 907 235 907 247 918 c 1,15,-1
 410 756 l 1,0,-1
456 473 m 2,16,-1
 453 335 l 1,17,18
 453 267 453 267 450 231 c 2,19,-1
 447 198 l 1,20,21
 442 116 442 116 409 63 c 1,22,23
 379 22 379 22 306 2 c 0,24,25
 268 -9 268 -9 238 -9 c 128,-1,26
 208 -9 208 -9 175.5 -6.5 c 128,-1,27
 143 -4 143 -4 109.5 11 c 128,-1,28
 76 26 76 26 60 62 c 1,29,30
 38 100 38 100 36 173 c 1,31,32
 28 326 28 326 28 358 c 0,33,34
 28 438 28 438 31 487 c 1,35,36
 33 599 33 599 84 658 c 1,37,38
 96 670 96 670 107 676 c 0,39,40
 165 705 165 705 238 705 c 0,41,42
 334 705 334 705 396 658 c 1,43,44
 425 632 425 632 437 597 c 1,45,46
 447 574 447 574 451.5 541 c 128,-1,47
 456 508 456 508 456 473 c 2,16,-1
328 253 m 2,48,-1
 330 305 l 1,49,-1
 330 353 l 1,50,-1
 328 421 l 1,51,52
 324 459 324 459 324 478 c 1,53,54
 319 540 319 540 272 563 c 0,55,56
 258 569 258 569 245 569 c 1,57,-1
 194 549 l 1,58,59
 159 521 159 521 147 480 c 1,60,61
 137 431 137 431 137 386.5 c 128,-1,62
 137 342 137 342 138 324 c 0,63,64
 145 213 145 213 157 175 c 1,65,66
 178 131 178 131 237 131 c 0,67,68
 280 131 280 131 308 162 c 1,69,70
 324 184 324 184 325 193.5 c 128,-1,71
 326 203 326 203 326.5 220 c 128,-1,72
 327 237 327 237 328 253 c 2,48,-1
EndSplineSet
EndChar

StartChar: Otilde
Encoding: 213 213 150
Width: 484
GlyphClass: 2
Flags: W
LayerCount: 2
Fore
SplineSet
456 473 m 2,0,-1
 453 335 l 1,1,2
 453 267 453 267 450 231 c 2,3,-1
 447 198 l 1,4,5
 442 116 442 116 409 63 c 1,6,7
 379 22 379 22 306 2 c 0,8,9
 268 -9 268 -9 238 -9 c 128,-1,10
 208 -9 208 -9 175.5 -6.5 c 128,-1,11
 143 -4 143 -4 109.5 11 c 128,-1,12
 76 26 76 26 60 62 c 1,13,14
 38 100 38 100 36 173 c 1,15,16
 28 326 28 326 28 358 c 0,17,18
 28 438 28 438 31 487 c 1,19,20
 33 599 33 599 84 658 c 1,21,22
 96 670 96 670 107 676 c 0,23,24
 165 705 165 705 238 705 c 0,25,26
 334 705 334 705 396 658 c 1,27,28
 425 632 425 632 437 597 c 1,29,30
 447 574 447 574 451.5 541 c 128,-1,31
 456 508 456 508 456 473 c 2,0,-1
328 253 m 2,32,-1
 330 305 l 1,33,-1
 330 353 l 1,34,-1
 328 421 l 1,35,36
 324 459 324 459 324 478 c 1,37,38
 319 540 319 540 272 563 c 0,39,40
 258 569 258 569 245 569 c 1,41,-1
 194 549 l 1,42,43
 159 521 159 521 147 480 c 1,44,45
 137 431 137 431 137 386.5 c 128,-1,46
 137 342 137 342 138 324 c 0,47,48
 145 213 145 213 157 175 c 1,49,50
 178 131 178 131 237 131 c 0,51,52
 280 131 280 131 308 162 c 1,53,54
 324 184 324 184 325 193.5 c 128,-1,55
 326 203 326 203 326.5 220 c 128,-1,56
 327 237 327 237 328 253 c 2,32,-1
156 743 m 1,57,58
 139 747 139 747 97.5 747 c 128,-1,59
 56 747 56 747 39 746 c 1,60,61
 64 835 64 835 99 875 c 1,62,63
 134 910 134 910 180 910 c 0,64,65
 227 910 227 910 259 869 c 0,66,67
 273 851 273 851 281 846 c 1,68,69
 294 835 294 835 305.5 835 c 128,-1,70
 317 835 317 835 332.5 852 c 128,-1,71
 348 869 348 869 358 899 c 0,72,73
 359 899 359 899 440 902 c 1,74,-1
 441 901 l 2,75,76
 441 900 441 900 442.5 894.5 c 128,-1,77
 444 889 444 889 444 877 c 0,78,79
 444 829 444 829 406 773 c 1,80,81
 388 752 388 752 369 745 c 128,-1,82
 350 738 350 738 332.5 738 c 128,-1,83
 315 738 315 738 296 744 c 0,84,85
 258 755 258 755 245 789 c 1,86,87
 231 812 231 812 206 812 c 0,88,89
 194 812 194 812 171 803 c 1,90,91
 153 790 153 790 153 764 c 0,92,93
 153 754 153 754 156 744 c 1,94,-1
 156 743 l 1,57,58
EndSplineSet
EndChar

StartChar: Odieresis
Encoding: 214 214 151
Width: 484
GlyphClass: 2
Flags: W
LayerCount: 2
Fore
SplineSet
456 473 m 2,0,-1
 453 335 l 1,1,2
 453 267 453 267 450 231 c 2,3,-1
 447 198 l 1,4,5
 442 116 442 116 409 63 c 1,6,7
 379 22 379 22 306 2 c 0,8,9
 268 -9 268 -9 238 -9 c 128,-1,10
 208 -9 208 -9 175.5 -6.5 c 128,-1,11
 143 -4 143 -4 109.5 11 c 128,-1,12
 76 26 76 26 60 62 c 1,13,14
 38 100 38 100 36 173 c 1,15,16
 28 326 28 326 28 358 c 0,17,18
 28 438 28 438 31 487 c 1,19,20
 33 599 33 599 84 658 c 1,21,22
 96 670 96 670 107 676 c 0,23,24
 165 705 165 705 238 705 c 0,25,26
 334 705 334 705 396 658 c 1,27,28
 425 632 425 632 437 597 c 1,29,30
 447 574 447 574 451.5 541 c 128,-1,31
 456 508 456 508 456 473 c 2,0,-1
328 253 m 2,32,-1
 330 305 l 1,33,-1
 330 353 l 1,34,-1
 328 421 l 1,35,36
 324 459 324 459 324 478 c 1,37,38
 319 540 319 540 272 563 c 0,39,40
 258 569 258 569 245 569 c 1,41,-1
 194 549 l 1,42,43
 159 521 159 521 147 480 c 1,44,45
 137 431 137 431 137 386.5 c 128,-1,46
 137 342 137 342 138 324 c 0,47,48
 145 213 145 213 157 175 c 1,49,50
 178 131 178 131 237 131 c 0,51,52
 280 131 280 131 308 162 c 1,53,54
 324 184 324 184 325 193.5 c 128,-1,55
 326 203 326 203 326.5 220 c 128,-1,56
 327 237 327 237 328 253 c 2,32,-1
106 759 m 1,57,58
 103 775 103 775 103 805 c 1,59,-1
 105 860 l 1,60,61
 126 867 126 867 163.5 867 c 128,-1,62
 201 867 201 867 214 861 c 1,63,-1
 212 839 l 1,64,65
 208 773 208 773 208 760 c 2,66,-1
 208 758 l 1,67,-1
 206 758 l 1,68,-1
 109 759 l 1,69,-1
 106 759 l 1,57,58
280 759 m 1,70,71
 277 775 277 775 277 805 c 1,72,-1
 279 860 l 1,73,74
 300 867 300 867 337.5 867 c 128,-1,75
 375 867 375 867 388 861 c 1,76,-1
 386 839 l 1,77,78
 382 773 382 773 382 760 c 2,79,-1
 382 758 l 1,80,-1
 380 758 l 1,81,-1
 283 759 l 1,82,-1
 280 759 l 1,70,71
EndSplineSet
EndChar

StartChar: multiply
Encoding: 215 215 152
Width: 735
GlyphClass: 2
Flags: W
LayerCount: 2
Fore
SplineSet
692 9 m 0,0,1
 692 0 692 0 671.5 -3.5 c 128,-1,2
 651 -7 651 -7 510 -7 c 128,-1,3
 369 -7 369 -7 46 2 c 1,4,5
 51 131 51 131 51 180.5 c 128,-1,6
 51 230 51 230 50 280.5 c 128,-1,7
 49 331 49 331 45 481.5 c 128,-1,8
 41 632 41 632 41 726 c 1,9,-1
 688 724 l 1,10,11
 688 124 688 124 693 13 c 1,12,13
 692 12 692 12 692 9 c 0,0,1
255 372 m 1,14,15
 250 387 250 387 239.5 423.5 c 128,-1,16
 229 460 229 460 222 482 c 0,17,18
 202 542 202 542 148 643 c 1,19,20
 145 488 145 488 145 101 c 1,21,22
 196 207 196 207 222.5 282.5 c 128,-1,23
 249 358 249 358 255 372 c 1,14,15
587 272 m 128,-1,25
 587 367 587 367 586 479.5 c 128,-1,26
 585 592 585 592 585 638 c 1,27,28
 580 625 580 625 525.5 518.5 c 128,-1,29
 471 412 471 412 465 370 c 1,30,31
 471 327 471 327 523.5 228 c 128,-1,32
 576 129 576 129 585 107 c 1,33,24
 587 177 587 177 587 272 c 128,-1,25
357 410 m 1,34,35
 360 419 360 419 401 504 c 128,-1,36
 442 589 442 589 459 641 c 1,37,38
 436 641 436 641 363 640.5 c 128,-1,39
 290 640 290 640 267 640 c 1,40,41
 281 590 281 590 318.5 501 c 128,-1,42
 356 412 356 412 357 410 c 1,34,35
259 97 m 1,43,44
 286 95 286 95 315 95 c 0,45,46
 427 95 427 95 463 103 c 1,47,-1
 356 328 l 1,48,49
 351 316 351 316 310.5 224.5 c 128,-1,50
 270 133 270 133 259 97 c 1,43,44
EndSplineSet
EndChar

StartChar: Oslash
Encoding: 216 216 153
Width: 479
GlyphClass: 2
Flags: W
LayerCount: 2
Fore
SplineSet
378 724 m 1,0,1
 413 724 413 724 424 716 c 1,2,3
 424 703 424 703 414 680 c 128,-1,4
 404 657 404 657 406 645 c 1,5,6
 440 606 440 606 446.5 564.5 c 128,-1,7
 453 523 453 523 453 492 c 128,-1,8
 453 461 453 461 452 441.5 c 128,-1,9
 451 422 451 422 451 375 c 128,-1,10
 451 328 451 328 450 309 c 128,-1,11
 449 290 449 290 448 254 c 0,12,13
 445 195 445 195 434 131 c 1,14,15
 422 77 422 77 383.5 42.5 c 128,-1,16
 345 8 345 8 290 3 c 0,17,18
 272 1 272 1 234 0.5 c 128,-1,19
 196 0 196 0 180 -2 c 1,20,-1
 178 -2 l 1,21,22
 178 -8 178 -8 165 -17 c 1,23,-1
 164 -18 l 1,24,25
 152 -20 152 -20 117 -21 c 1,26,-1
 76 -20 l 2,27,28
 50 -20 50 -20 33 -21 c 1,29,30
 29 -15 29 -15 59 67 c 0,31,32
 59 68 59 68 59.5 68 c 128,-1,33
 60 68 60 68 60 69 c 128,-1,34
 60 70 60 70 59.5 70 c 128,-1,35
 59 70 59 70 59 71 c 0,36,37
 29 189 29 189 29 348 c 0,38,39
 29 404 29 404 31.5 440.5 c 128,-1,40
 34 477 34 477 36 510 c 0,41,42
 38 576 38 576 55 610.5 c 128,-1,43
 72 645 72 645 98 671 c 1,44,45
 140 703 140 703 228 703 c 0,46,47
 251 703 251 703 278 701 c 1,48,49
 280 702 280 702 281 712.5 c 128,-1,50
 282 723 282 723 288 723 c 2,51,-1
 289 723 l 1,52,53
 303 721 303 721 318 721 c 2,54,-1
 378 724 l 1,0,1
141 279 m 1,55,-1
 234 562 l 1,56,-1
 234 563 l 1,57,-1
 226 563 l 1,58,59
 206 561 206 561 186 545.5 c 128,-1,60
 166 530 166 530 158 510 c 1,61,62
 154 489 154 489 151.5 447 c 128,-1,63
 149 405 149 405 146 383 c 2,64,-1
 143 360 l 2,65,66
 138 325 138 325 138 306 c 128,-1,67
 138 287 138 287 141 279 c 1,55,-1
322 391 m 2,68,-1
 322 395 l 1,69,70
 311 365 311 365 229 131 c 1,71,72
 230 131 230 131 230 130.5 c 128,-1,73
 230 130 230 130 244 132.5 c 128,-1,74
 258 135 258 135 284.5 149.5 c 128,-1,75
 311 164 311 164 318 187 c 1,76,77
 328 231 328 231 328 272 c 128,-1,78
 328 313 328 313 325 347 c 128,-1,79
 322 381 322 381 322 391 c 2,68,-1
EndSplineSet
EndChar

StartChar: Ugrave
Encoding: 217 217 154
Width: 505
GlyphClass: 2
Flags: W
LayerCount: 2
Fore
SplineSet
331 754 m 1,0,1
 307 748 307 748 263 748 c 128,-1,2
 219 748 219 748 197 750 c 1,3,4
 189 762 189 762 145.5 801 c 128,-1,5
 102 840 102 840 95 847 c 1,6,-1
 164 917 l 1,7,8
 191 896 191 896 254.5 831 c 128,-1,9
 318 766 318 766 331 754 c 1,0,1
381 678 m 128,-1,11
 395 679 395 679 406 679.5 c 128,-1,12
 417 680 417 680 434.5 680 c 128,-1,13
 452 680 452 680 469 670 c 1,14,-1
 469 669 l 1,15,16
 473 570 473 570 473 436 c 128,-1,17
 473 302 473 302 457 151 c 1,18,19
 448 83 448 83 406 38 c 0,20,21
 355 -16 355 -16 259 -16 c 0,22,23
 146 -16 146 -16 80 49 c 0,24,25
 39 89 39 89 37 147 c 1,26,-1
 42 586 l 1,27,28
 42 678 42 678 40 680 c 1,29,-1
 41 680 l 1,30,-1
 115 682 l 1,31,32
 159 682 159 682 182 675 c 1,33,-1
 182 674 l 1,34,35
 178 588 178 588 178 466 c 128,-1,36
 178 344 178 344 191 183 c 1,37,38
 204 138 204 138 251 138 c 0,39,40
 266 138 266 138 282 146 c 0,41,42
 308 159 308 159 314 188 c 1,43,44
 318 279 318 279 320 449 c 128,-1,45
 322 619 322 619 323 672 c 1,46,47
 328 672 328 672 347.5 674.5 c 128,-1,10
 367 677 367 677 381 678 c 128,-1,11
EndSplineSet
EndChar

StartChar: Uacute
Encoding: 218 218 155
Width: 505
GlyphClass: 2
Flags: W
LayerCount: 2
Fore
SplineSet
381 678 m 128,-1,1
 395 679 395 679 406 679.5 c 128,-1,2
 417 680 417 680 434.5 680 c 128,-1,3
 452 680 452 680 469 670 c 1,4,-1
 469 669 l 1,5,6
 473 570 473 570 473 436 c 128,-1,7
 473 302 473 302 457 151 c 1,8,9
 448 83 448 83 406 38 c 0,10,11
 355 -16 355 -16 259 -16 c 0,12,13
 146 -16 146 -16 80 49 c 0,14,15
 39 89 39 89 37 147 c 1,16,-1
 42 586 l 1,17,18
 42 678 42 678 40 680 c 1,19,-1
 41 680 l 1,20,-1
 115 682 l 1,21,22
 159 682 159 682 182 675 c 1,23,-1
 182 674 l 1,24,25
 178 588 178 588 178 466 c 128,-1,26
 178 344 178 344 191 183 c 1,27,28
 204 138 204 138 251 138 c 0,29,30
 266 138 266 138 282 146 c 0,31,32
 308 159 308 159 314 188 c 1,33,34
 318 279 318 279 320 449 c 128,-1,35
 322 619 322 619 323 672 c 1,36,37
 328 672 328 672 347.5 674.5 c 128,-1,0
 367 677 367 677 381 678 c 128,-1,1
317 750 m 1,38,39
 295 748 295 748 275 748 c 0,40,41
 205 748 205 748 183 754 c 1,42,43
 196 766 196 766 259.5 831 c 128,-1,44
 323 896 323 896 350 917 c 1,45,-1
 419 847 l 1,46,47
 412 840 412 840 388 819 c 0,48,49
 323 764 323 764 317 750 c 1,38,39
EndSplineSet
EndChar

StartChar: Ucircumflex
Encoding: 219 219 156
Width: 505
GlyphClass: 2
Flags: W
LayerCount: 2
Fore
SplineSet
411 756 m 1,0,-1
 333 749 l 1,1,2
 316 749 316 749 296 751 c 0,3,4
 290 751 290 751 270 774 c 128,-1,5
 250 797 250 797 245 800 c 1,6,7
 240 798 240 798 219 775.5 c 128,-1,8
 198 753 198 753 194.5 752 c 128,-1,9
 191 751 191 751 178.5 751 c 128,-1,10
 166 751 166 751 86 755 c 1,11,12
 118 797 118 797 146.5 824.5 c 128,-1,13
 175 852 175 852 205.5 879.5 c 128,-1,14
 236 907 236 907 248 918 c 1,15,-1
 411 756 l 1,0,-1
381 678 m 128,-1,17
 395 679 395 679 406 679.5 c 128,-1,18
 417 680 417 680 434.5 680 c 128,-1,19
 452 680 452 680 469 670 c 1,20,-1
 469 669 l 1,21,22
 473 570 473 570 473 436 c 128,-1,23
 473 302 473 302 457 151 c 1,24,25
 448 83 448 83 406 38 c 0,26,27
 355 -16 355 -16 259 -16 c 0,28,29
 146 -16 146 -16 80 49 c 0,30,31
 39 89 39 89 37 147 c 1,32,-1
 42 586 l 1,33,34
 42 678 42 678 40 680 c 1,35,-1
 41 680 l 1,36,-1
 115 682 l 1,37,38
 159 682 159 682 182 675 c 1,39,-1
 182 674 l 1,40,41
 178 588 178 588 178 466 c 128,-1,42
 178 344 178 344 191 183 c 1,43,44
 204 138 204 138 251 138 c 0,45,46
 266 138 266 138 282 146 c 0,47,48
 308 159 308 159 314 188 c 1,49,50
 318 279 318 279 320 449 c 128,-1,51
 322 619 322 619 323 672 c 1,52,53
 328 672 328 672 347.5 674.5 c 128,-1,16
 367 677 367 677 381 678 c 128,-1,17
EndSplineSet
EndChar

StartChar: Udieresis
Encoding: 220 220 157
Width: 505
GlyphClass: 2
Flags: W
LayerCount: 2
Fore
SplineSet
112 759 m 1,0,1
 109 775 109 775 109 805 c 1,2,-1
 111 860 l 1,3,4
 132 867 132 867 169.5 867 c 128,-1,5
 207 867 207 867 220 861 c 1,6,-1
 218 839 l 1,7,8
 214 773 214 773 214 760 c 2,9,-1
 214 758 l 1,10,-1
 212 758 l 1,11,-1
 115 759 l 1,12,-1
 112 759 l 1,0,1
286 759 m 1,13,14
 283 775 283 775 283 805 c 1,15,-1
 285 860 l 1,16,17
 306 867 306 867 343.5 867 c 128,-1,18
 381 867 381 867 394 861 c 1,19,-1
 392 839 l 1,20,21
 388 773 388 773 388 760 c 2,22,-1
 388 758 l 1,23,-1
 386 758 l 1,24,-1
 289 759 l 1,25,-1
 286 759 l 1,13,14
381 678 m 128,-1,27
 395 679 395 679 406 679.5 c 128,-1,28
 417 680 417 680 434.5 680 c 128,-1,29
 452 680 452 680 469 670 c 1,30,-1
 469 669 l 1,31,32
 473 570 473 570 473 436 c 128,-1,33
 473 302 473 302 457 151 c 1,34,35
 448 83 448 83 406 38 c 0,36,37
 355 -16 355 -16 259 -16 c 0,38,39
 146 -16 146 -16 80 49 c 0,40,41
 39 89 39 89 37 147 c 1,42,43
 37 147 37 147 42 586 c 1,44,45
 42 678 42 678 40 680 c 1,46,-1
 41 680 l 1,47,48
 41 680 41 680 115 682 c 1,49,50
 159 682 159 682 182 675 c 1,51,-1
 182 674 l 1,52,53
 178 588 178 588 178 466 c 128,-1,54
 178 344 178 344 191 183 c 1,55,56
 204 138 204 138 251 138 c 0,57,58
 266 138 266 138 282 146 c 0,59,60
 308 159 308 159 314 188 c 1,61,62
 318 279 318 279 320 449 c 128,-1,63
 322 619 322 619 323 672 c 1,64,65
 328 672 328 672 347.5 674.5 c 128,-1,26
 367 677 367 677 381 678 c 128,-1,27
EndSplineSet
EndChar

StartChar: Yacute
Encoding: 221 221 158
Width: 434
GlyphClass: 2
Flags: W
LayerCount: 2
Fore
SplineSet
16 688 m 1,0,-1
 115 694 l 1,1,2
 149 694 149 694 168 686 c 1,3,4
 195 579 195 579 227 513 c 1,5,6
 256 565 256 565 306 684 c 0,7,8
 307 684 307 684 336 688.5 c 128,-1,9
 365 693 365 693 397.5 693 c 128,-1,10
 430 693 430 693 448 689 c 1,11,-1
 448 688 l 1,12,13
 409 564 409 564 301 337 c 128,-1,14
 193 110 193 110 155 -1 c 1,15,16
 146 0 146 0 129 0 c 2,17,-1
 31 -2 l 2,18,19
 21 -2 21 -2 13 -2 c 2,20,-1
 11 -2 l 1,21,22
 28 52 28 52 141 342 c 1,23,-1
 141 344 l 1,24,25
 127 402 127 402 78.5 516.5 c 128,-1,26
 30 631 30 631 16 688 c 1,0,-1
283 750 m 1,27,28
 261 748 261 748 241 748 c 0,29,30
 172 748 172 748 149 754 c 1,31,32
 162 766 162 766 225.5 831 c 128,-1,33
 289 896 289 896 316 917 c 1,34,-1
 385 847 l 1,35,36
 378 840 378 840 354 819 c 0,37,38
 289 764 289 764 283 750 c 1,27,28
EndSplineSet
EndChar

StartChar: Thorn
Encoding: 222 222 159
Width: 478
GlyphClass: 2
Flags: W
LayerCount: 2
Fore
SplineSet
44 242 m 1,0,-1
 41 551 l 1,1,2
 41 656 41 656 44 730 c 1,3,-1
 180 727 l 1,4,5
 180 707 180 707 181 679.5 c 128,-1,6
 182 652 182 652 182 586 c 1,7,8
 191 608 191 608 209.5 618.5 c 128,-1,9
 228 629 228 629 243.5 630.5 c 128,-1,10
 259 632 259 632 290 632 c 0,11,12
 361 630 361 630 409.5 565 c 128,-1,13
 458 500 458 500 458 401 c 0,14,15
 458 263 458 263 394 179 c 0,16,17
 359 133 359 133 311 133 c 0,18,19
 278 133 278 133 242.5 148 c 128,-1,20
 207 163 207 163 183 187 c 1,21,22
 183 92 183 92 181.5 67 c 128,-1,23
 180 42 180 42 180 30 c 0,24,25
 179 15 179 15 181 4 c 1,26,27
 174 -4 174 -4 122 -4 c 2,28,-1
 61 -4 l 2,29,30
 42 -4 42 -4 37 -4 c 1,31,32
 44 102 44 102 44 242 c 1,0,-1
236 498 m 128,-1,34
 197 498 197 498 190.5 483 c 128,-1,35
 184 468 184 468 184 429 c 128,-1,36
 184 390 184 390 184 373 c 128,-1,37
 184 356 184 356 184.5 344 c 128,-1,38
 185 332 185 332 188 315 c 128,-1,39
 191 298 191 298 198 291 c 0,40,41
 214 273 214 273 250.5 273 c 128,-1,42
 287 273 287 273 311 304 c 128,-1,43
 335 335 335 335 335 374.5 c 128,-1,44
 335 414 335 414 329 437.5 c 128,-1,45
 323 461 323 461 299 479.5 c 128,-1,33
 275 498 275 498 236 498 c 128,-1,34
EndSplineSet
EndChar

StartChar: germandbls
Encoding: 223 223 160
Width: 470
GlyphClass: 2
Flags: W
LayerCount: 2
Fore
SplineSet
34 218 m 2,0,-1
 36 558 l 2,1,2
 36 644 36 644 35 692 c 1,3,-1
 36 693 l 1,4,5
 116 715 116 715 165.5 715 c 128,-1,6
 215 715 215 715 256.5 709.5 c 128,-1,7
 298 704 298 704 339.5 683 c 128,-1,8
 381 662 381 662 407 617 c 128,-1,9
 433 572 433 572 433 503 c 128,-1,10
 433 434 433 434 384 352 c 0,11,12
 379 343 379 343 391.5 328 c 128,-1,13
 404 313 404 313 407.5 308.5 c 128,-1,14
 411 304 411 304 423.5 287 c 128,-1,15
 436 270 436 270 439 262.5 c 128,-1,16
 442 255 442 255 449.5 238.5 c 128,-1,17
 457 222 457 222 458.5 209.5 c 128,-1,18
 460 197 460 197 460 180 c 128,-1,19
 460 163 460 163 457 145 c 0,20,21
 442 57 442 57 372 23 c 0,22,23
 338 6 338 6 315.5 2 c 128,-1,24
 293 -2 293 -2 272.5 -2 c 128,-1,25
 252 -2 252 -2 229 0 c 1,26,27
 222 25 222 25 222 56.5 c 128,-1,28
 222 88 222 88 226 122 c 1,29,30
 231 140 231 140 258 142 c 1,31,32
 301 149 301 149 301 201 c 0,33,34
 301 215 301 215 294 237.5 c 128,-1,35
 287 260 287 260 270 276 c 1,36,37
 238 309 238 309 238 348 c 0,38,39
 238 352 238 352 238 355 c 0,40,41
 245 400 245 400 276.5 430 c 128,-1,42
 308 460 308 460 308 489 c 0,43,44
 308 500 308 500 303 510 c 0,45,46
 288 539 288 539 256.5 545.5 c 128,-1,47
 225 552 225 552 201 552 c 128,-1,48
 177 552 177 552 162 544 c 1,49,-1
 158 484 l 2,50,51
 158 478 158 478 158 468 c 2,52,-1
 162 331 l 1,53,-1
 165 214 l 1,54,-1
 167 71 l 1,55,56
 167 -1 167 -1 158 0 c 1,57,58
 45 0 45 0 38 3 c 1,59,60
 34 71 34 71 34 218 c 2,0,-1
EndSplineSet
EndChar

StartChar: agrave
Encoding: 224 224 161
Width: 476
GlyphClass: 2
Flags: W
LayerCount: 2
Fore
SplineSet
349 2 m 1,0,-1
 306 -1 l 1,1,2
 294 3 294 3 294 16 c 128,-1,3
 294 29 294 29 296 39.5 c 128,-1,4
 298 50 298 50 298 56 c 1,5,6
 273 31 273 31 236.5 14.5 c 128,-1,7
 200 -2 200 -2 166 -2 c 0,8,9
 118 -2 118 -2 83 44 c 0,10,11
 19 128 19 128 19 266 c 0,12,13
 19 365 19 365 67.5 430 c 128,-1,14
 116 495 116 495 187 497 c 0,15,16
 218 497 218 497 232.5 495.5 c 128,-1,17
 247 494 247 494 263.5 483.5 c 128,-1,18
 280 473 280 473 289 451 c 1,19,20
 288 463 288 463 290.5 479.5 c 128,-1,21
 293 496 293 496 293 502 c 0,22,23
 293 503 293 503 341 503 c 1,24,25
 411 500 411 500 439 498 c 1,26,27
 441 482 441 482 441 474 c 2,28,-1
 441 464 l 1,29,30
 440 438 440 438 440 393 c 2,31,-1
 442 159 l 2,32,33
 442 78 442 78 440.5 54.5 c 128,-1,34
 439 31 439 31 439 17 c 128,-1,35
 439 3 439 3 426 -1 c 1,36,-1
 414 -1 l 1,37,-1
 349 2 l 1,0,-1
178 344.5 m 128,-1,39
 154 326 154 326 148 302.5 c 128,-1,40
 142 279 142 279 142 239.5 c 128,-1,41
 142 200 142 200 166 169 c 128,-1,42
 190 138 190 138 231 138 c 0,43,44
 263 138 263 138 280 156 c 0,45,46
 291 168 291 168 292 194 c 128,-1,47
 293 220 293 220 293 238 c 2,48,-1
 293 259 l 2,49,50
 293 335 293 335 285.5 349 c 128,-1,51
 278 363 278 363 240 363 c 128,-1,38
 202 363 202 363 178 344.5 c 128,-1,39
350 591 m 1,52,53
 326 585 326 585 282 585 c 128,-1,54
 238 585 238 585 216 587 c 1,55,56
 208 599 208 599 164.5 638 c 128,-1,57
 121 677 121 677 114 684 c 1,58,-1
 183 754 l 1,59,60
 210 733 210 733 273.5 668 c 128,-1,61
 337 603 337 603 350 591 c 1,52,53
EndSplineSet
EndChar

StartChar: aacute
Encoding: 225 225 162
Width: 476
GlyphClass: 2
Flags: W
LayerCount: 2
Fore
SplineSet
349 2 m 1,0,-1
 306 -1 l 1,1,2
 294 3 294 3 294 16 c 128,-1,3
 294 29 294 29 296 39.5 c 128,-1,4
 298 50 298 50 298 56 c 1,5,6
 273 31 273 31 236.5 14.5 c 128,-1,7
 200 -2 200 -2 166 -2 c 0,8,9
 118 -2 118 -2 83 44 c 0,10,11
 19 128 19 128 19 266 c 0,12,13
 19 365 19 365 67.5 430 c 128,-1,14
 116 495 116 495 187 497 c 0,15,16
 218 497 218 497 232.5 495.5 c 128,-1,17
 247 494 247 494 263.5 483.5 c 128,-1,18
 280 473 280 473 289 451 c 1,19,20
 288 463 288 463 290.5 479.5 c 128,-1,21
 293 496 293 496 293 502 c 0,22,23
 293 503 293 503 341 503 c 1,24,25
 411 500 411 500 439 498 c 1,26,27
 441 482 441 482 441 474 c 2,28,-1
 441 464 l 1,29,30
 440 438 440 438 440 393 c 2,31,-1
 442 159 l 2,32,33
 442 78 442 78 440.5 54.5 c 128,-1,34
 439 31 439 31 439 17 c 128,-1,35
 439 3 439 3 426 -1 c 1,36,-1
 414 -1 l 1,37,-1
 349 2 l 1,0,-1
178 344.5 m 128,-1,39
 154 326 154 326 148 302.5 c 128,-1,40
 142 279 142 279 142 239.5 c 128,-1,41
 142 200 142 200 166 169 c 128,-1,42
 190 138 190 138 231 138 c 0,43,44
 263 138 263 138 280 156 c 0,45,46
 291 168 291 168 292 194 c 128,-1,47
 293 220 293 220 293 238 c 2,48,-1
 293 259 l 2,49,50
 293 335 293 335 285.5 349 c 128,-1,51
 278 363 278 363 240 363 c 128,-1,38
 202 363 202 363 178 344.5 c 128,-1,39
293 587 m 1,52,53
 271 585 271 585 251 585 c 0,54,55
 181 585 181 585 159 591 c 1,56,57
 172 603 172 603 235.5 668 c 128,-1,58
 299 733 299 733 326 754 c 1,59,-1
 395 684 l 1,60,61
 388 677 388 677 364 656 c 0,62,63
 299 601 299 601 293 587 c 1,52,53
EndSplineSet
EndChar

StartChar: acircumflex
Encoding: 226 226 163
Width: 476
GlyphClass: 2
Flags: W
LayerCount: 2
Fore
SplineSet
415 595 m 1,0,-1
 337 588 l 1,1,2
 320 588 320 588 300 590 c 0,3,4
 294 590 294 590 274 613 c 128,-1,5
 254 636 254 636 249 639 c 1,6,7
 244 637 244 637 223 614.5 c 128,-1,8
 202 592 202 592 198.5 591 c 128,-1,9
 195 590 195 590 182.5 590 c 128,-1,10
 170 590 170 590 90 594 c 1,11,12
 122 636 122 636 150.5 663.5 c 128,-1,13
 179 691 179 691 209.5 718.5 c 128,-1,14
 240 746 240 746 252 757 c 1,15,-1
 415 595 l 1,0,-1
349 2 m 1,16,-1
 306 -1 l 1,17,18
 294 3 294 3 294 16 c 128,-1,19
 294 29 294 29 296 39.5 c 128,-1,20
 298 50 298 50 298 56 c 1,21,22
 273 31 273 31 236.5 14.5 c 128,-1,23
 200 -2 200 -2 166 -2 c 0,24,25
 118 -2 118 -2 83 44 c 0,26,27
 19 128 19 128 19 266 c 0,28,29
 19 365 19 365 67.5 430 c 128,-1,30
 116 495 116 495 187 497 c 0,31,32
 218 497 218 497 232.5 495.5 c 128,-1,33
 247 494 247 494 263.5 483.5 c 128,-1,34
 280 473 280 473 289 451 c 1,35,36
 288 463 288 463 290.5 479.5 c 128,-1,37
 293 496 293 496 293 502 c 0,38,39
 293 503 293 503 341 503 c 1,40,41
 411 500 411 500 439 498 c 1,42,43
 441 482 441 482 441 474 c 2,44,-1
 441 464 l 1,45,46
 440 438 440 438 440 393 c 2,47,-1
 442 159 l 2,48,49
 442 78 442 78 440.5 54.5 c 128,-1,50
 439 31 439 31 439 17 c 128,-1,51
 439 3 439 3 426 -1 c 1,52,-1
 414 -1 l 1,53,-1
 349 2 l 1,16,-1
178 344.5 m 128,-1,55
 154 326 154 326 148 302.5 c 128,-1,56
 142 279 142 279 142 239.5 c 128,-1,57
 142 200 142 200 166 169 c 128,-1,58
 190 138 190 138 231 138 c 0,59,60
 263 138 263 138 280 156 c 0,61,62
 291 168 291 168 292 194 c 128,-1,63
 293 220 293 220 293 238 c 2,64,-1
 293 259 l 2,65,66
 293 335 293 335 285.5 349 c 128,-1,67
 278 363 278 363 240 363 c 128,-1,54
 202 363 202 363 178 344.5 c 128,-1,55
EndSplineSet
EndChar

StartChar: atilde
Encoding: 227 227 164
Width: 476
GlyphClass: 2
Flags: W
LayerCount: 2
Fore
SplineSet
349 2 m 1,0,-1
 306 -1 l 1,1,2
 294 3 294 3 294 16 c 128,-1,3
 294 29 294 29 296 39.5 c 128,-1,4
 298 50 298 50 298 56 c 1,5,6
 273 31 273 31 236.5 14.5 c 128,-1,7
 200 -2 200 -2 166 -2 c 0,8,9
 118 -2 118 -2 83 44 c 0,10,11
 19 128 19 128 19 266 c 0,12,13
 19 365 19 365 67.5 430 c 128,-1,14
 116 495 116 495 187 497 c 0,15,16
 218 497 218 497 232.5 495.5 c 128,-1,17
 247 494 247 494 263.5 483.5 c 128,-1,18
 280 473 280 473 289 451 c 1,19,20
 288 463 288 463 290.5 479.5 c 128,-1,21
 293 496 293 496 293 502 c 0,22,23
 293 503 293 503 341 503 c 1,24,25
 411 500 411 500 439 498 c 1,26,27
 441 482 441 482 441 474 c 2,28,-1
 441 464 l 1,29,30
 440 438 440 438 440 393 c 2,31,-1
 442 159 l 2,32,33
 442 78 442 78 440.5 54.5 c 128,-1,34
 439 31 439 31 439 17 c 128,-1,35
 439 3 439 3 426 -1 c 1,36,-1
 414 -1 l 1,37,-1
 349 2 l 1,0,-1
178 344.5 m 128,-1,39
 154 326 154 326 148 302.5 c 128,-1,40
 142 279 142 279 142 239.5 c 128,-1,41
 142 200 142 200 166 169 c 128,-1,42
 190 138 190 138 231 138 c 0,43,44
 263 138 263 138 280 156 c 0,45,46
 291 168 291 168 292 194 c 128,-1,47
 293 220 293 220 293 238 c 2,48,-1
 293 259 l 2,49,50
 293 335 293 335 285.5 349 c 128,-1,51
 278 363 278 363 240 363 c 128,-1,38
 202 363 202 363 178 344.5 c 128,-1,39
218 658 m 1,52,53
 161 658 161 658 161 610 c 0,54,55
 161 600 161 600 164 590 c 1,56,-1
 164 589 l 1,57,58
 147 593 147 593 105.5 593 c 128,-1,59
 64 593 64 593 47 592 c 1,60,61
 72 681 72 681 107 721 c 1,62,63
 142 756 142 756 188 756 c 0,64,65
 235 756 235 756 267 715 c 0,66,67
 281 697 281 697 289 692 c 1,68,69
 302 681 302 681 313.5 681 c 128,-1,70
 325 681 325 681 340.5 698 c 128,-1,71
 356 715 356 715 366 745 c 0,72,73
 367 745 367 745 448 748 c 1,74,-1
 449 747 l 2,75,76
 449 746 449 746 450 746 c 1,77,-1
 450 745 l 1,78,79
 451 734 451 734 451 724 c 0,80,81
 451 684 451 684 430 644 c 0,82,83
 399 584 399 584 335 584 c 0,84,85
 313 584 313 584 289 595 c 128,-1,86
 265 606 265 606 253 635 c 1,87,88
 240 657 240 657 218 658 c 1,52,53
EndSplineSet
EndChar

StartChar: adieresis
Encoding: 228 228 165
Width: 476
GlyphClass: 2
Flags: W
LayerCount: 2
Fore
SplineSet
349 2 m 1,0,-1
 306 -1 l 1,1,2
 294 3 294 3 294 16 c 128,-1,3
 294 29 294 29 296 39.5 c 128,-1,4
 298 50 298 50 298 56 c 1,5,6
 273 31 273 31 236.5 14.5 c 128,-1,7
 200 -2 200 -2 166 -2 c 0,8,9
 118 -2 118 -2 83 44 c 0,10,11
 19 128 19 128 19 266 c 0,12,13
 19 365 19 365 67.5 430 c 128,-1,14
 116 495 116 495 187 497 c 0,15,16
 218 497 218 497 232.5 495.5 c 128,-1,17
 247 494 247 494 263.5 483.5 c 128,-1,18
 280 473 280 473 289 451 c 1,19,20
 288 463 288 463 290.5 479.5 c 128,-1,21
 293 496 293 496 293 502 c 0,22,23
 293 503 293 503 341 503 c 1,24,25
 411 500 411 500 439 498 c 1,26,27
 441 482 441 482 441 474 c 2,28,-1
 441 464 l 1,29,30
 440 438 440 438 440 393 c 2,31,-1
 442 159 l 2,32,33
 442 78 442 78 440.5 54.5 c 128,-1,34
 439 31 439 31 439 17 c 128,-1,35
 439 3 439 3 426 -1 c 1,36,-1
 414 -1 l 1,37,-1
 349 2 l 1,0,-1
178 344.5 m 128,-1,39
 154 326 154 326 148 302.5 c 128,-1,40
 142 279 142 279 142 239.5 c 128,-1,41
 142 200 142 200 166 169 c 128,-1,42
 190 138 190 138 231 138 c 0,43,44
 263 138 263 138 280 156 c 0,45,46
 291 168 291 168 292 194 c 128,-1,47
 293 220 293 220 293 238 c 2,48,-1
 293 259 l 2,49,50
 293 335 293 335 285.5 349 c 128,-1,51
 278 363 278 363 240 363 c 128,-1,38
 202 363 202 363 178 344.5 c 128,-1,39
254 629 m 1,52,53
 248 620 248 620 212 620 c 2,54,-1
 133 622 l 2,55,56
 125 622 125 622 119 622 c 1,57,-1
 115 740 l 2,58,59
 115 750 115 750 115 760 c 1,60,-1
 251 757 l 1,61,-1
 254 629 l 1,52,53
438 629 m 1,62,63
 432 620 432 620 396 620 c 2,64,-1
 317 622 l 2,65,66
 309 622 309 622 303 622 c 1,67,-1
 299 740 l 2,68,69
 299 750 299 750 299 760 c 1,70,-1
 435 757 l 1,71,-1
 438 629 l 1,62,63
EndSplineSet
EndChar

StartChar: aring
Encoding: 229 229 166
Width: 476
GlyphClass: 2
Flags: W
LayerCount: 2
Fore
SplineSet
267 570 m 1,0,1
 256 568 256 568 241 568 c 128,-1,2
 226 568 226 568 211 569 c 0,3,4
 177 571 177 571 166 598 c 1,5,6
 159 633 159 633 159 661 c 0,7,8
 159 710 159 710 176 732 c 1,9,10
 199 753 199 753 238 753 c 0,11,12
 246 753 246 753 254 752 c 0,13,14
 314 750 314 750 333 723 c 1,15,16
 341 694 341 694 341 662 c 128,-1,17
 341 630 341 630 327 594 c 1,18,19
 313 572 313 572 267 570 c 1,0,1
204 665 m 0,20,21
 204 631 204 631 214 621 c 1,22,23
 225 612 225 612 239 612 c 2,24,-1
 249 612 l 1,25,26
 286 614 286 614 292 627 c 1,27,28
 297 650 297 650 297 660 c 0,29,30
 297 683 297 683 290 694 c 1,31,32
 276 708 276 708 255 708 c 128,-1,33
 234 708 234 708 221 702 c 1,34,35
 209 694 209 694 206.5 681 c 128,-1,36
 204 668 204 668 204 665 c 0,20,21
349 2 m 1,37,-1
 306 -1 l 1,38,39
 294 3 294 3 294 16 c 128,-1,40
 294 29 294 29 296 39.5 c 128,-1,41
 298 50 298 50 298 56 c 1,42,43
 273 31 273 31 236.5 14.5 c 128,-1,44
 200 -2 200 -2 166 -2 c 0,45,46
 118 -2 118 -2 83 44 c 0,47,48
 19 128 19 128 19 266 c 0,49,50
 19 365 19 365 67.5 430 c 128,-1,51
 116 495 116 495 187 497 c 0,52,53
 218 497 218 497 232.5 495.5 c 128,-1,54
 247 494 247 494 263.5 483.5 c 128,-1,55
 280 473 280 473 289 451 c 1,56,57
 288 463 288 463 290.5 479.5 c 128,-1,58
 293 496 293 496 293 502 c 0,59,60
 293 503 293 503 341 503 c 1,61,62
 411 500 411 500 439 498 c 1,63,64
 441 482 441 482 441 474 c 2,65,-1
 441 464 l 1,66,67
 440 438 440 438 440 393 c 2,68,-1
 442 159 l 2,69,70
 442 78 442 78 440.5 54.5 c 128,-1,71
 439 31 439 31 439 17 c 128,-1,72
 439 3 439 3 426 -1 c 1,73,-1
 414 -1 l 1,74,-1
 349 2 l 1,37,-1
178 344.5 m 128,-1,76
 154 326 154 326 148 302.5 c 128,-1,77
 142 279 142 279 142 239.5 c 128,-1,78
 142 200 142 200 166 169 c 128,-1,79
 190 138 190 138 231 138 c 0,80,81
 263 138 263 138 280 156 c 0,82,83
 291 168 291 168 292 194 c 128,-1,84
 293 220 293 220 293 238 c 2,85,-1
 293 259 l 2,86,87
 293 335 293 335 285.5 349 c 128,-1,88
 278 363 278 363 240 363 c 128,-1,75
 202 363 202 363 178 344.5 c 128,-1,76
EndSplineSet
EndChar

StartChar: ae
Encoding: 230 230 167
Width: 703
GlyphClass: 2
Flags: W
LayerCount: 2
Fore
SplineSet
354 451 m 1,0,1
 408 498 408 498 494 498 c 0,2,3
 526 498 526 498 557 490 c 1,4,5
 685 468 685 468 685 297 c 0,6,7
 685 278 685 278 683 257 c 1,8,9
 662 251 662 251 591.5 248 c 128,-1,10
 521 245 521 245 485 245 c 128,-1,11
 449 245 449 245 430 249 c 1,12,-1
 430 220 l 1,13,-1
 431 199 l 2,14,15
 431 192 431 192 431.5 189.5 c 128,-1,16
 432 187 432 187 433 181 c 128,-1,17
 434 175 434 175 435 172.5 c 128,-1,18
 436 170 436 170 437.5 165.5 c 128,-1,19
 439 161 439 161 441 157.5 c 128,-1,20
 443 154 443 154 445 150 c 0,21,22
 461 122 461 122 490 113 c 0,23,24
 499 110 499 110 512.5 110 c 128,-1,25
 526 110 526 110 544.5 126.5 c 128,-1,26
 563 143 563 143 563 185 c 0,27,28
 563 189 563 189 563 193 c 1,29,30
 566 193 566 193 574 193 c 2,31,-1
 647 195 l 2,32,33
 675 195 675 195 681 191 c 1,34,35
 680 184 680 184 679 169.5 c 128,-1,36
 678 155 678 155 677.5 148 c 128,-1,37
 677 141 677 141 676 128 c 128,-1,38
 675 115 675 115 674 107.5 c 128,-1,39
 673 100 673 100 671.5 90 c 128,-1,40
 670 80 670 80 668.5 74 c 128,-1,41
 667 68 667 68 665 61 c 0,42,43
 662 50 662 50 655 43 c 1,44,45
 640 22 640 22 610 12 c 0,46,47
 575 0 575 0 537 0 c 1,48,-1
 438 3 l 1,49,50
 382 13 382 13 349 59 c 1,51,52
 317 33 317 33 297 21 c 0,53,54
 246 -8 246 -8 195 -8 c 0,55,56
 98 -8 98 -8 39 58 c 0,57,58
 9 91 9 91 9 136.5 c 128,-1,59
 9 182 9 182 37 233 c 1,60,61
 75 291 75 291 185 291 c 0,62,63
 243 291 243 291 280 268 c 1,64,65
 279 287 279 287 279 297 c 128,-1,66
 279 307 279 307 279 317 c 0,67,68
 281 339 281 339 277 351 c 1,69,70
 269 385 269 385 240 395 c 0,71,72
 229 399 229 399 214.5 399 c 128,-1,73
 200 399 200 399 183 388 c 0,74,75
 156 371 156 371 156 339 c 1,76,77
 111 332 111 332 79.5 332 c 128,-1,78
 48 332 48 332 32 340 c 1,79,80
 31 349 31 349 31 357 c 0,81,82
 31 402 31 402 66 436 c 0,83,84
 120 488 120 488 217 488 c 128,-1,85
 314 488 314 488 354 451 c 1,0,1
136 193 m 1,86,87
 115 172 115 172 115 142 c 0,88,89
 115 126 115 126 133 110 c 128,-1,90
 151 94 151 94 211 94 c 0,91,92
 235 94 235 94 254.5 111.5 c 128,-1,93
 274 129 274 129 274 152 c 0,94,95
 274 186 274 186 251 200 c 1,96,97
 219 215 219 215 190 215 c 128,-1,98
 161 215 161 215 136 193 c 1,86,87
522 322 m 2,99,-1
 575 320 l 2,100,101
 579 320 579 320 580 320.5 c 128,-1,102
 581 321 581 321 581 326 c 2,103,-1
 581 333 l 2,104,105
 581 378 581 378 545 395 c 0,106,107
 525 404 525 404 512 404 c 0,108,109
 471 404 471 404 454.5 388 c 128,-1,110
 438 372 438 372 433 343 c 0,111,112
 432 337 432 337 432 331 c 128,-1,113
 432 325 432 325 436 323.5 c 128,-1,114
 440 322 440 322 479 322 c 128,-1,115
 518 322 518 322 522 322 c 2,99,-1
EndSplineSet
EndChar

StartChar: ccedilla
Encoding: 231 231 168
Width: 443
GlyphClass: 2
Flags: W
LayerCount: 2
Fore
SplineSet
305 194 m 2,0,-1
 384 196 l 2,1,2
 414 196 414 196 421 192 c 1,3,4
 411 53 411 53 393 35 c 1,5,6
 364 -7 364 -7 281 -12 c 1,7,8
 277 -25 277 -25 257.5 -79.5 c 128,-1,9
 238 -134 238 -134 235 -147 c 1,10,-1
 235 -148 l 1,11,12
 126 -148 126 -148 126 -147 c 0,13,14
 150 -83 150 -83 174 -10 c 1,15,-1
 161 -9 l 1,16,17
 110 0 110 0 75 35 c 1,18,19
 50 57 50 57 38 94.5 c 128,-1,20
 26 132 26 132 26 170 c 0,21,22
 26 276 26 276 23 323 c 1,23,24
 23 359 23 359 26.5 381.5 c 128,-1,25
 30 404 30 404 45 454 c 1,26,27
 58 483 58 483 100.5 497.5 c 128,-1,28
 143 512 143 512 173.5 511.5 c 128,-1,29
 204 511 204 511 218 511 c 2,30,-1
 249 512 l 1,31,32
 340 512 340 512 384 469 c 1,33,34
 408 453 408 453 415 412 c 0,35,36
 419 387 419 387 420 369.5 c 128,-1,37
 421 352 421 352 422 344 c 0,38,39
 423 322 423 322 423 289 c 1,40,41
 409 286 409 286 380.5 286 c 128,-1,42
 352 286 352 286 296 294 c 1,43,44
 291 331 291 331 270.5 346 c 128,-1,45
 250 361 250 361 233 361 c 0,46,47
 190 361 190 361 170 336 c 1,48,49
 164 331 164 331 161 312 c 128,-1,50
 158 293 158 293 157 248 c 2,51,-1
 155 181 l 2,52,53
 155 156 155 156 176 142.5 c 128,-1,54
 197 129 197 129 222 129 c 0,55,56
 252 129 252 129 268 140 c 128,-1,57
 284 151 284 151 294 194 c 1,58,59
 297 194 297 194 305 194 c 2,0,-1
424 -89 m 2,60,-1
 425 -90 l 2,61,62
 424 -90 424 -90 424 -89 c 2,60,-1
EndSplineSet
EndChar

StartChar: egrave
Encoding: 232 232 169
Width: 444
GlyphClass: 2
Flags: W
LayerCount: 2
Fore
SplineSet
328 591 m 1,0,1
 304 585 304 585 260 585 c 128,-1,2
 216 585 216 585 194 587 c 1,3,4
 186 599 186 599 142.5 638 c 128,-1,5
 99 677 99 677 92 684 c 1,6,-1
 161 754 l 1,7,8
 188 733 188 733 251.5 668 c 128,-1,9
 315 603 315 603 328 591 c 1,0,1
255 -13 m 2,10,-1
 164 -10 l 1,11,12
 136 -6 136 -6 112 8 c 1,13,14
 62 43 62 43 41 113.5 c 128,-1,15
 20 184 20 184 20 258 c 0,16,17
 20 271 20 271 21 284 c 0,18,19
 29 385 29 385 43 423 c 1,20,21
 68 480 68 480 142 503 c 0,22,23
 182 516 182 516 219 516 c 128,-1,24
 256 516 256 516 290 507 c 1,25,26
 426 484 426 484 426 300 c 0,27,28
 426 280 426 280 424 259 c 1,29,30
 402 253 402 253 327.5 250 c 128,-1,31
 253 247 253 247 214.5 247 c 128,-1,32
 176 247 176 247 156 251 c 1,33,-1
 156 220 l 1,34,-1
 157 198 l 2,35,36
 157 191 157 191 157.5 188.5 c 128,-1,37
 158 186 158 186 159 180 c 128,-1,38
 160 174 160 174 161 171 c 0,39,40
 178 119 178 119 218 106 c 0,41,42
 227 104 227 104 241.5 104 c 128,-1,43
 256 104 256 104 276 122 c 128,-1,44
 296 140 296 140 296 185 c 0,45,46
 296 188 296 188 296 192 c 1,47,48
 299 192 299 192 307 192 c 2,49,-1
 385 194 l 2,50,51
 414 194 414 194 422 190 c 1,52,53
 412 49 412 49 394 34 c 1,54,55
 367 -3 367 -3 314 -9 c 0,56,57
 281 -13 281 -13 255 -13 c 2,10,-1
253 329 m 2,58,-1
 307 327 l 2,59,60
 312 327 312 327 314 328 c 128,-1,61
 316 329 316 329 316 334 c 2,62,-1
 316 341 l 2,63,64
 316 386 316 386 277 406 c 1,65,66
 261 416 261 416 230 416 c 0,67,68
 167 416 167 416 159 351 c 0,69,70
 158 345 158 345 158 338.5 c 128,-1,71
 158 332 158 332 162.5 330.5 c 128,-1,72
 167 329 167 329 208.5 329 c 128,-1,73
 250 329 250 329 253 329 c 2,58,-1
EndSplineSet
EndChar

StartChar: eacute
Encoding: 233 233 170
Width: 444
GlyphClass: 2
Flags: W
LayerCount: 2
Fore
SplineSet
278 587 m 1,0,1
 256 585 256 585 236 585 c 0,2,3
 166 585 166 585 144 591 c 1,4,5
 157 603 157 603 220.5 668 c 128,-1,6
 284 733 284 733 311 754 c 1,7,-1
 380 684 l 1,8,9
 373 677 373 677 348 656 c 0,10,11
 284 601 284 601 278 587 c 1,0,1
255 -13 m 2,12,-1
 164 -10 l 1,13,14
 136 -6 136 -6 112 8 c 1,15,16
 62 43 62 43 41 113.5 c 128,-1,17
 20 184 20 184 20 258 c 0,18,19
 20 271 20 271 21 284 c 0,20,21
 29 385 29 385 43 423 c 1,22,23
 68 480 68 480 142 503 c 0,24,25
 182 516 182 516 219 516 c 128,-1,26
 256 516 256 516 290 507 c 1,27,28
 426 484 426 484 426 300 c 0,29,30
 426 280 426 280 424 259 c 1,31,32
 401 253 401 253 327 250 c 128,-1,33
 253 247 253 247 214.5 247 c 128,-1,34
 176 247 176 247 156 251 c 1,35,-1
 156 220 l 1,36,-1
 157 198 l 2,37,38
 157 191 157 191 157.5 188.5 c 128,-1,39
 158 186 158 186 159 180 c 128,-1,40
 160 174 160 174 161 171 c 0,41,42
 178 119 178 119 218 106 c 0,43,44
 227 104 227 104 241.5 104 c 128,-1,45
 256 104 256 104 276 122 c 128,-1,46
 296 140 296 140 296 185 c 0,47,48
 296 188 296 188 296 192 c 1,49,50
 299 192 299 192 307 192 c 2,51,-1
 385 194 l 2,52,53
 414 194 414 194 422 190 c 1,54,55
 412 49 412 49 394 34 c 1,56,57
 367 -3 367 -3 314 -9 c 0,58,59
 281 -13 281 -13 255 -13 c 2,12,-1
253 329 m 2,60,-1
 307 327 l 2,61,62
 312 327 312 327 314 328 c 128,-1,63
 316 329 316 329 316 334 c 2,64,-1
 316 341 l 2,65,66
 316 386 316 386 277 406 c 1,67,68
 261 416 261 416 230 416 c 0,69,70
 167 416 167 416 159 351 c 0,71,72
 158 345 158 345 158 338.5 c 128,-1,73
 158 332 158 332 162.5 330.5 c 128,-1,74
 167 329 167 329 208.5 329 c 128,-1,75
 250 329 250 329 253 329 c 2,60,-1
EndSplineSet
EndChar

